<svg width="28" height="28" viewBox="0 0 28 28" fill="none" xmlns="http://www.w3.org/2000/svg">
<path d="M19.6092 8.38776C19.7727 8.54894 19.9025 8.74102 19.9911 8.95282C20.0797 9.16462 20.1253 9.39192 20.1253 9.62151C20.1253 9.8511 20.0797 10.0784 19.9911 10.2902C19.9025 10.502 19.7727 10.6941 19.6092 10.8553C19.2781 11.1752 18.8358 11.354 18.3754 11.354C17.915 11.354 17.4727 11.1752 17.1417 10.8553C16.9776 10.6937 16.8471 10.5012 16.7578 10.289C16.6684 10.0768 16.622 9.84899 16.6211 9.61873C16.6202 9.38847 16.6649 9.16031 16.7526 8.9474C16.8403 8.7345 16.9693 8.54106 17.1321 8.37824C17.295 8.21542 17.4884 8.08643 17.7013 7.99873C17.9142 7.91102 18.1424 7.86632 18.3726 7.8672C18.6029 7.86809 18.8307 7.91454 19.0429 8.00388C19.2552 8.09322 19.4476 8.22369 19.6092 8.38776Z" fill="#1FA0FE"/>
<path d="M26.4429 0.711204C24.4856 0.657092 22.5303 0.875006 20.6329 1.3587C15.4465 2.80055 10.9084 5.97107 7.77042 10.345C7.64707 10.5139 7.58811 10.7213 7.60415 10.9299C7.62019 11.1384 7.71018 11.3344 7.85792 11.4825L16.5204 20.145C16.6694 20.2911 16.8651 20.3801 17.0732 20.3961C17.2813 20.4121 17.4884 20.3541 17.6579 20.2325C22.0318 17.0945 25.2023 12.5564 26.6442 7.36995C27.1279 5.47259 27.3458 3.51725 27.2917 1.55995C27.287 1.33632 27.1961 1.12314 27.0379 0.964965C26.8797 0.806794 26.6666 0.715873 26.4429 0.711204ZM20.8517 12.1037C20.1949 12.7604 19.3042 13.1294 18.3754 13.1294C17.4466 13.1294 16.5559 12.7604 15.8992 12.1037C15.2424 11.447 14.8735 10.5562 14.8735 9.62745C14.8735 8.69868 15.2424 7.80795 15.8992 7.1512C16.5667 6.5151 17.4534 6.16027 18.3754 6.16027C19.2975 6.16027 20.1842 6.5151 20.8517 7.1512C21.5073 7.80856 21.8754 8.69906 21.8754 9.62745C21.8754 10.5558 21.5073 11.4464 20.8517 12.1037Z" fill="#1FA0FE"/>
<path d="M13.0809 2.85612C11.3261 4.0298 9.71911 5.41058 8.29461 6.96862L6.00211 4.67612C5.67431 4.34745 5.49023 3.90219 5.49023 3.438C5.49023 2.9738 5.67431 2.52855 6.00211 2.19987L7.35836 0.843621C7.639 0.559755 8.0089 0.381276 8.40574 0.338245C8.80259 0.295213 9.20215 0.390258 9.53711 0.607371L13.0809 2.85612Z" fill="#1FA0FE"/>
<path d="M27.1602 20.6444L25.8039 22.0006C25.4742 22.3301 25.0275 22.5157 24.5614 22.5169C24.3319 22.5162 24.1048 22.4703 23.8931 22.3817C23.6814 22.2931 23.4892 22.1636 23.3277 22.0006L21.0352 19.7081C22.5932 18.2836 23.974 16.6766 25.1477 14.9219L27.3964 18.4656C27.6135 18.8006 27.7086 19.2001 27.6655 19.597C27.6225 19.9938 27.444 20.3637 27.1602 20.6444Z" fill="#1FA0FE"/>
<path d="M17.756 18.9077L9.09351 10.2452C8.76484 9.91799 8.31989 9.73429 7.85608 9.73438C7.39227 9.73446 6.94738 9.91831 6.61883 10.2457L5.38211 11.4831C5.21949 11.6456 5.09048 11.8385 5.00246 12.0508C4.91444 12.2632 4.86914 12.4908 4.86914 12.7206C4.86914 12.9505 4.91444 13.1781 5.00246 13.3904C5.09048 13.6028 5.21949 13.7957 5.38211 13.9581L14.0434 22.6201C14.2058 22.7827 14.3987 22.9116 14.611 22.9996C14.8233 23.0876 15.0509 23.1329 15.2807 23.1329C15.5105 23.1329 15.738 23.0876 15.9503 22.9996C16.1626 22.9116 16.3555 22.7827 16.518 22.6201L17.7562 21.3824C18.0836 21.0538 18.2674 20.6089 18.2673 20.145C18.2673 19.6812 18.0834 19.2363 17.756 18.9077Z" fill="#1FA0FE"/>
<path d="M2.62481 26.2505C2.45178 26.2504 2.28265 26.1991 2.13879 26.1029C1.99493 26.0068 1.88281 25.8702 1.8166 25.7103C1.75038 25.5504 1.73306 25.3745 1.7668 25.2048C1.80055 25.0351 1.88386 24.8792 2.00619 24.7568L7.00664 19.7563C7.17142 19.5956 7.39287 19.5064 7.62301 19.5078C7.85315 19.5093 8.07345 19.6014 8.23619 19.7641C8.39892 19.9268 8.49099 20.1471 8.49245 20.3773C8.49391 20.6074 8.40464 20.8289 8.24398 20.9936L3.24344 25.9941C3.1623 26.0755 3.06588 26.14 2.95971 26.184C2.85355 26.228 2.73973 26.2506 2.62481 26.2505Z" fill="#1FA0FE"/>
<path d="M2.6795 22.4846C2.50647 22.4846 2.33733 22.4332 2.19347 22.3371C2.04962 22.2409 1.93749 22.1043 1.87128 21.9444C1.80507 21.7845 1.78774 21.6086 1.82149 21.4389C1.85524 21.2692 1.93854 21.1133 2.06088 20.991L5.15111 17.9006C5.31625 17.7418 5.53712 17.6541 5.76624 17.6563C5.99537 17.6585 6.21448 17.7506 6.37649 17.9126C6.5385 18.0746 6.63048 18.2938 6.63267 18.5229C6.63485 18.752 6.54707 18.9729 6.38819 19.138L3.29821 22.2282C3.21705 22.3096 3.12062 22.3741 3.01444 22.4181C2.90826 22.4621 2.79443 22.4847 2.6795 22.4846Z" fill="#1FA0FE"/>
<path d="M2.65224 18.801C2.4792 18.801 2.31004 18.7497 2.16616 18.6535C2.02228 18.5574 1.91015 18.4207 1.84393 18.2608C1.77772 18.1009 1.7604 17.925 1.79416 17.7553C1.82792 17.5856 1.91126 17.4297 2.03362 17.3073L3.29563 16.0452C3.45977 15.8811 3.68236 15.789 3.91443 15.7891C4.02934 15.7891 4.14312 15.8118 4.24927 15.8558C4.35542 15.8998 4.45187 15.9642 4.5331 16.0455C4.61433 16.1268 4.67876 16.2233 4.72271 16.3294C4.76666 16.4356 4.78926 16.5494 4.78924 16.6643C4.78921 16.7792 4.76655 16.893 4.72255 16.9991C4.67855 17.1053 4.61407 17.2017 4.53279 17.283L3.27069 18.5446C3.18957 18.626 3.09318 18.6905 2.98704 18.7345C2.88091 18.7785 2.76713 18.8011 2.65224 18.801Z" fill="#1FA0FE"/>
<path d="M6.33779 26.2532C6.16475 26.2532 5.9956 26.2018 5.85173 26.1057C5.70786 26.0095 5.59572 25.8729 5.5295 25.713C5.46328 25.5532 5.44595 25.3773 5.47969 25.2075C5.51343 25.0378 5.59674 24.8819 5.71908 24.7596L8.86322 21.6157C9.028 21.455 9.24945 21.3657 9.47959 21.3672C9.70973 21.3687 9.93003 21.4607 10.0928 21.6235C10.2555 21.7862 10.3476 22.0065 10.349 22.2366C10.3505 22.4668 10.2612 22.6882 10.1006 22.853L6.95668 25.9968C6.8755 26.0782 6.77904 26.1428 6.67283 26.1868C6.56662 26.2308 6.45276 26.2533 6.33779 26.2532Z" fill="#1FA0FE"/>
<path d="M10.0507 26.249C9.87764 26.249 9.7085 26.1977 9.56462 26.1016C9.42075 26.0054 9.30861 25.8688 9.24239 25.7089C9.17617 25.549 9.15884 25.3731 9.19258 25.2034C9.22632 25.0337 9.30963 24.8778 9.43197 24.7554L10.7201 23.4672C10.8849 23.3066 11.1064 23.2173 11.3365 23.2188C11.5667 23.2202 11.787 23.3123 11.9497 23.475C12.1124 23.6378 12.2045 23.8581 12.206 24.0882C12.2074 24.3183 12.1181 24.5398 11.9575 24.7046L10.6693 25.9927C10.5882 26.074 10.4917 26.1386 10.3856 26.1826C10.2794 26.2266 10.1656 26.2492 10.0507 26.249Z" fill="#1FA0FE"/>
</svg>
