<svg width="20" height="20" viewBox="0 0 20 20" fill="none" xmlns="http://www.w3.org/2000/svg">
<path d="M7.05501 7.05503L4.10875 4.10876M4.10875 15.8939L7.05503 12.9476M12.9476 12.9476L15.8939 15.8938M15.8939 4.10873L12.9476 7.05501M18.3346 10.0013C18.3346 14.6037 14.6037 18.3346 10.0013 18.3346C5.39893 18.3346 1.66797 14.6037 1.66797 10.0013C1.66797 5.39893 5.39893 1.66797 10.0013 1.66797C14.6037 1.66797 18.3346 5.39893 18.3346 10.0013ZM14.168 10.0013C14.168 12.3025 12.3025 14.168 10.0013 14.168C7.70012 14.168 5.83464 12.3025 5.83464 10.0013C5.83464 7.70012 7.70012 5.83464 10.0013 5.83464C12.3025 5.83464 14.168 7.70012 14.168 10.0013Z" stroke="black" stroke-width="1.66667" stroke-linecap="round" stroke-linejoin="round"/>
</svg>
