<svg width="28" height="28" viewBox="0 0 28 28" fill="none" xmlns="http://www.w3.org/2000/svg">
<g clip-path="url(#clip0_2263_22511)">
<path d="M22.7873 5.20312C20.1005 5.20312 17.8822 7.24609 17.6035 9.86009C19.5535 11.0698 20.855 13.2299 20.855 15.6886V19.2032C20.855 20.4853 20.2772 21.6638 19.331 22.449V27.1693C19.331 27.6223 19.6983 27.9896 20.1514 27.9896H25.4232C25.8763 27.9896 26.2435 27.6223 26.2435 27.1693V19.011C27.264 18.6676 28.0008 17.7018 28.0008 16.5672V10.4166C28.0008 7.54195 25.662 5.20312 22.7873 5.20312Z" fill="#F97316"/>
<path d="M22.7865 5.20436C24.2238 5.20436 25.3933 4.03498 25.3933 2.59757C25.2622 -0.855942 20.3102 -0.854958 20.1797 2.59763C20.1797 4.03498 21.3491 5.20436 22.7865 5.20436Z" fill="#F97316"/>
<path d="M16.6067 7.87241C16.6067 6.43501 15.4373 5.26562 13.9999 5.26562C10.5464 5.39666 10.5474 10.3487 14 10.4792C15.4373 10.4792 16.6067 9.30982 16.6067 7.87241Z" fill="#F97316"/>
<path d="M14.0002 10.4766C11.3134 10.4766 9.09509 12.5195 8.81641 15.1335C10.7664 16.3433 12.0679 18.5033 12.0679 20.962V21.8406C12.0679 23.1227 11.4901 24.3013 10.5439 25.0865V27.1709C10.5439 27.6239 10.9112 27.9912 11.3642 27.9912H16.6361C17.0891 27.9912 17.4564 27.6239 17.4564 27.1709V21.6485C18.4768 21.3051 19.2137 20.3394 19.2137 19.2047V15.6901C19.2137 12.8153 16.8749 10.4766 14.0002 10.4766Z" fill="#F97316"/>
<path d="M5.21352 15.75C2.32898 15.75 0 18.0848 0 20.9635V21.8421C0 22.9768 0.736859 23.9426 1.75727 24.286V27.1724C1.75727 27.6254 2.12455 27.9927 2.57759 27.9927H7.84946C8.30249 27.9927 8.66977 27.6254 8.66977 27.1724V24.286C9.69019 23.9426 10.427 22.9768 10.427 21.8421V20.9635C10.4271 18.0794 8.09293 15.75 5.21352 15.75Z" fill="#F97316"/>
<path d="M5.21421 15.7434C6.65156 15.7434 7.821 14.574 7.821 13.1366C7.68997 9.68312 2.73796 9.6841 2.60742 13.1367C2.60748 14.574 3.77686 15.7434 5.21421 15.7434Z" fill="#F97316"/>
</g>
<defs>
<clipPath id="clip0_2263_22511">
<rect width="28" height="28" fill="white"/>
</clipPath>
</defs>
</svg>
