<svg width="20" height="20" viewBox="0 0 20 20" fill="none" xmlns="http://www.w3.org/2000/svg">
<path d="M10.4167 1.66797H12.6667C14.0668 1.66797 14.7669 1.66797 15.3016 1.94045C15.772 2.18014 16.1545 2.56259 16.3942 3.03299C16.6667 3.56777 16.6667 4.26784 16.6667 5.66797V14.3346C16.6667 15.7348 16.6667 16.4348 16.3942 16.9696C16.1545 17.44 15.772 17.8225 15.3016 18.0622C14.7669 18.3346 14.0668 18.3346 12.6667 18.3346H7.33333C5.9332 18.3346 5.23314 18.3346 4.69836 18.0622C4.22795 17.8225 3.8455 17.44 3.60582 16.9696C3.33333 16.4348 3.33333 15.7348 3.33333 14.3346V13.7513M13.3333 10.8346H9.58333M13.3333 7.5013H10.4167M13.3333 14.168H6.66667M5 8.33464V3.7513C5 3.06095 5.55964 2.5013 6.25 2.5013C6.94036 2.5013 7.5 3.06095 7.5 3.7513V8.33464C7.5 9.71535 6.38071 10.8346 5 10.8346C3.61929 10.8346 2.5 9.71535 2.5 8.33464V5.0013" stroke="black" stroke-width="1.66667" stroke-linecap="round" stroke-linejoin="round"/>
</svg>
