<svg width="20" height="20" viewBox="0 0 20 20" fill="none" xmlns="http://www.w3.org/2000/svg">
<g clip-path="url(#clip0_1937_6406)">
<path d="M10.0158 8.1017C8.3556 8.08607 6.96498 9.43373 6.94935 11.0783C6.93373 12.7814 8.27357 14.1837 9.93764 14.2033C11.6212 14.2228 13.0353 12.879 13.0548 11.2345C13.0783 9.49232 11.7462 8.12123 10.0158 8.1017Z" fill="white"/>
<path d="M19.9922 7.93262C19.9883 6.9209 19.5469 6.10449 18.7539 5.4873C18.1914 5.0498 17.5469 4.85059 16.8359 4.85059C16.0234 4.85449 15.2148 4.85059 14.3789 4.85059C14.2969 4.38965 14.2266 3.95215 14.1406 3.51465C13.9727 2.68262 13.1992 2.04199 12.3555 2.04199C10.8047 2.03809 9.25391 2.03809 7.69922 2.04199C6.78906 2.03418 6.00391 2.68652 5.84375 3.58496C5.78516 3.90137 5.72656 4.22168 5.68359 4.54199C5.65234 4.78027 5.55859 4.87012 5.30469 4.8623C4.55469 4.84668 3.80469 4.85449 3.05469 4.8623C1.37891 4.87793 0 6.27246 0 7.94824V14.8545C0 16.5498 1.375 17.9521 3.06641 17.9561C7.69141 17.9678 12.3164 17.9678 16.9375 17.96C18.6094 17.9561 19.9883 16.5459 19.9922 14.8701C20 12.5537 20.0039 10.2412 19.9922 7.93262ZM10.0156 15.7529C7.43359 15.7529 5.38672 13.6865 5.39453 11.0889C5.40234 8.58105 7.49609 6.53809 10.043 6.5498C12.5742 6.56543 14.6055 8.62793 14.6016 11.1787C14.5977 13.6865 12.5234 15.7529 10.0156 15.7529ZM16.6133 8.77637C16.1523 8.78027 15.7734 8.40918 15.7695 7.94434C15.7695 7.94043 15.7695 7.93652 15.7695 7.92871C15.7852 7.47559 16.1484 7.11621 16.6016 7.1084C17.0898 7.10059 17.4453 7.44824 17.4492 7.93262C17.4531 8.41699 17.0977 8.77637 16.6133 8.77637Z" fill="white"/>
</g>
<defs>
<clipPath id="clip0_1937_6406">
<rect width="20" height="20" fill="white"/>
</clipPath>
</defs>
</svg>
