<svg width="19" height="19" viewBox="0 0 19 19" fill="none" xmlns="http://www.w3.org/2000/svg">
<path d="M1.4969 4.39163C1.49694 4.39152 1.21396 3.5934 1.21396 3.5934C1.09864 3.26752 0.741285 3.09784 0.41631 3.2132C0.0910288 3.32852 -0.0792587 3.68557 0.0360975 4.01085L0.800485 6.167C0.900548 6.44803 1.19779 6.61641 1.48892 6.57525C1.48892 6.57528 3.86296 6.19264 3.86296 6.19264C4.2038 6.1377 4.43539 5.8167 4.38046 5.47616C4.32557 5.13561 4.0033 4.90189 3.66399 4.95861L2.4968 5.1466C3.94197 2.73472 6.54977 1.22914 9.42303 1.22914C13.8757 1.22914 17.4984 4.85184 17.4984 9.30454C17.4984 9.64996 17.7779 9.92947 18.1234 9.92947C18.4688 9.92947 18.7483 9.64996 18.7483 9.30454C18.6691 -0.0723648 6.45154 -3.50841 1.4969 4.39163Z" fill="black"/>
<path d="M17.9475 12.4422C17.8485 12.1667 17.5494 11.9897 17.2591 12.0339L14.8857 12.4165C14.5451 12.4715 14.3132 12.7925 14.3682 13.133C14.4231 13.4735 14.7423 13.7061 15.0846 13.6505L16.2509 13.4625C14.8064 15.8744 12.1986 17.3801 9.3253 17.3801C4.87259 17.3801 1.24989 13.7574 1.24989 9.30465C1.24989 8.95919 0.970081 8.67969 0.624963 8.67969C0.279844 8.67969 0 8.95919 0 9.30465C0.0788875 18.6815 12.2972 22.1176 17.2514 14.2176C17.4262 14.6247 17.5209 15.4621 18.1233 15.4319C18.544 15.4385 18.8622 14.9953 18.7122 14.5983L17.9475 12.4422Z" fill="black"/>
<path d="M9.3737 4.63281C7.90931 4.63281 6.71772 5.82411 6.71772 7.28822V7.91376H5.8984C5.55324 7.91376 5.27344 8.19326 5.27344 8.53872V13.3588C5.27344 13.7042 5.55324 13.9837 5.8984 13.9837H12.8493C13.1948 13.9837 13.4743 13.7042 13.4743 13.3588V8.53872C13.4743 8.19326 13.1948 7.91376 12.8493 7.91376H12.0297V7.28822C12.0297 5.8241 10.8384 4.63281 9.3737 4.63281ZM7.96756 7.28822C7.96756 6.51315 8.59833 5.88269 9.3737 5.88269C10.1488 5.88269 10.7798 6.51315 10.7798 7.28822V7.91375H7.96756V7.28822ZM12.2244 9.16364V12.7338H6.52332V9.16364H12.2244Z" fill="black"/>
</svg>
