<svg width="32" height="32" viewBox="0 0 32 32" fill="none" xmlns="http://www.w3.org/2000/svg">
<path d="M26.1335 5.25136C24.5204 3.63747 22.545 2.43243 20.3718 1.73665C18.1987 1.04087 15.8907 0.874482 13.6402 1.25136C11.3824 1.62661 9.24735 2.5376 7.41412 3.90799C5.5809 5.27838 4.10286 7.06823 3.1039 9.12754C2.10493 11.1869 1.61413 13.4556 1.67265 15.7437C1.73117 18.0318 2.33728 20.2725 3.44021 22.278C3.4709 22.3597 3.4709 22.4497 3.44021 22.5314L2.06687 27.2647C1.97707 27.5533 1.96812 27.8611 2.041 28.1545C2.11388 28.4478 2.2658 28.7156 2.48025 28.9287C2.69469 29.1418 2.96344 29.292 3.25728 29.3629C3.55112 29.4339 3.85881 29.423 4.14687 29.3314L8.85354 27.918C8.93981 27.8875 9.03393 27.8875 9.12021 27.918C11.2218 29.0982 13.5899 29.7223 16.0002 29.7314C17.0351 29.7292 18.067 29.622 19.0802 29.4114C21.5936 28.8577 23.9117 27.6381 25.7917 25.8804C27.6716 24.1227 29.0441 21.8917 29.7654 19.4212C30.4866 16.9507 30.53 14.3317 29.891 11.8386C29.2521 9.3456 27.9542 7.07035 26.1335 5.25136ZM10.6669 17.6647C10.3372 17.6647 10.015 17.5669 9.74092 17.3838C9.46684 17.2007 9.25322 16.9404 9.12707 16.6358C9.00093 16.3313 8.96792 15.9962 9.03223 15.6729C9.09654 15.3496 9.25527 15.0526 9.48836 14.8195C9.72145 14.5864 10.0184 14.4277 10.3417 14.3634C10.665 14.2991 11.0001 14.3321 11.3047 14.4582C11.6092 14.5844 11.8695 14.798 12.0527 15.0721C12.2358 15.3462 12.3335 15.6684 12.3335 15.998C12.3335 16.44 12.1579 16.864 11.8454 17.1765C11.5328 17.4891 11.1089 17.6647 10.6669 17.6647ZM16.0002 17.6647C15.6706 17.6647 15.3483 17.5669 15.0743 17.3838C14.8002 17.2007 14.5866 16.9404 14.4604 16.6358C14.3343 16.3313 14.3013 15.9962 14.3656 15.6729C14.4299 15.3496 14.5886 15.0526 14.8217 14.8195C15.0548 14.5864 15.3518 14.4277 15.6751 14.3634C15.9984 14.2991 16.3335 14.3321 16.638 14.4582C16.9426 14.5844 17.2029 14.798 17.386 15.0721C17.5691 15.3462 17.6669 15.6684 17.6669 15.998C17.6669 16.44 17.4913 16.864 17.1787 17.1765C16.8662 17.4891 16.4422 17.6647 16.0002 17.6647ZM21.3335 17.6647C21.0039 17.6647 20.6817 17.5669 20.4076 17.3838C20.1335 17.2007 19.9199 16.9404 19.7937 16.6358C19.6676 16.3313 19.6346 15.9962 19.6989 15.6729C19.7632 15.3496 19.9219 15.0526 20.155 14.8195C20.3881 14.5864 20.6851 14.4277 21.0084 14.3634C21.3317 14.2991 21.6668 14.3321 21.9713 14.4582C22.2759 14.5844 22.5362 14.798 22.7193 15.0721C22.9025 15.3462 23.0002 15.6684 23.0002 15.998C23.0002 16.44 22.8246 16.864 22.5121 17.1765C22.1995 17.4891 21.7756 17.6647 21.3335 17.6647Z" fill="#787878"/>
</svg>
