<svg width="32" height="32" viewBox="0 0 32 32" fill="none" xmlns="http://www.w3.org/2000/svg">
<g clip-path="url(#clip0_1334_6788)">
<path d="M27.7845 8.39453H18.6748L24.2685 15.0612H32.0002V13.6702L27.7845 8.39453Z" fill="#1FA0FE"/>
<path d="M4.21575 8.39453L0 13.6702V15.0612H7.73175L13.3254 8.39453H4.21575Z" fill="#1FA0FE"/>
<path d="M30.2709 30.125V16.9375H23.3939L16.9375 9.24256V5.20831H22.3519V0H15.0625V9.24256L8.60612 16.9375H1.72919V30.125H0V32H32V30.125H30.2709ZM5.02087 20H6.89587V22.6667H5.02087V20ZM6.94394 28H5.06894V25.3333H6.94394V28ZM16 13.0625C17.6198 13.0625 18.9375 14.3802 18.9375 16C18.9375 17.6198 17.6198 18.9375 16 18.9375C14.3802 18.9375 13.0625 17.6198 13.0625 16C13.0625 14.3802 14.3802 13.0625 16 13.0625ZM20.9375 30.125H19.0625V23.6042H16.9375V30.125H15.0625V23.6042H12.9375V30.125H11.0625V21.7292H20.9375V30.125ZM26.9311 28H25.0561V25.3333H26.9311V28ZM26.9791 22.6667H25.1041V20H26.9791V22.6667Z" fill="#1FA0FE"/>
<path d="M16 14.9375C15.4141 14.9375 14.9375 15.4141 14.9375 16C14.9375 16.5859 15.4141 17.0625 16 17.0625C16.5859 17.0625 17.0625 16.5859 17.0625 16C17.0625 15.4141 16.5859 14.9375 16 14.9375Z" fill="#1FA0FE"/>
</g>
<defs>
<clipPath id="clip0_1334_6788">
<rect width="32" height="32" fill="white"/>
</clipPath>
</defs>
</svg>
