<svg width="28" height="28" viewBox="0 0 28 28" fill="none" xmlns="http://www.w3.org/2000/svg">
<g clip-path="url(#clip0_1857_1746)">
<path d="M27.1797 24.7188H0.820312C0.367281 24.7188 0 25.086 0 25.5391V27.1797C0 27.6327 0.367281 28 0.820312 28H27.1797C27.6327 28 28 27.6327 28 27.1797V25.5391C28 25.086 27.6327 24.7188 27.1797 24.7188Z" fill="#787878"/>
<path d="M21.3828 15.9688H26.3047V19.25H21.3828V15.9688Z" fill="#787878"/>
<path d="M14.8203 15.9688H16.4609V23.0781H14.8203V15.9688Z" fill="#787878"/>
<path d="M1.69531 15.9688H6.61719V19.25H1.69531V15.9688Z" fill="#787878"/>
<path d="M11.5391 15.9688H13.1797V23.0781H11.5391V15.9688Z" fill="#787878"/>
<path d="M26.3047 11.4844H1.69531V14.3281H7.4375C7.89053 14.3281 8.25781 14.6954 8.25781 15.1484V20.0703C8.25781 20.5233 7.89053 20.8906 7.4375 20.8906H1.69531V23.0781H9.89844V15.1484C9.89844 14.6954 10.2657 14.3281 10.7188 14.3281H17.2812C17.7343 14.3281 18.1016 14.6954 18.1016 15.1484V23.0781H26.3047V20.8906H20.5625C20.1095 20.8906 19.7422 20.5233 19.7422 20.0703V15.1484C19.7422 14.6954 20.1095 14.3281 20.5625 14.3281H26.3047V11.4844Z" fill="#787878"/>
<path d="M0.876252 9.84375H9.66442C8.42821 8.7535 7.60451 7.20617 7.46046 5.46875H2.51688C2.22873 5.46875 1.96169 5.61991 1.81349 5.86704L0.172861 8.60141C-0.155209 9.14818 0.23865 9.84375 0.876252 9.84375Z" fill="#787878"/>
<path d="M18.3359 9.84375H27.1241C27.7617 9.84375 28.1556 9.14818 27.8275 8.60141L26.1869 5.86704C26.0386 5.61996 25.7716 5.46875 25.4835 5.46875H20.5399C20.3959 7.20617 19.5721 8.7535 18.3359 9.84375Z" fill="#787878"/>
<path d="M14 9.84375C16.7183 9.84375 18.9219 7.64017 18.9219 4.92188C18.9219 2.20358 16.7183 0 14 0C11.2817 0 9.07812 2.20358 9.07812 4.92188C9.07812 7.64017 11.2817 9.84375 14 9.84375ZM15.6406 2.73438C16.0937 2.73438 16.4609 3.10166 16.4609 3.55469C16.4609 4.00772 16.0937 4.375 15.6406 4.375C15.1876 4.375 14.8203 4.00772 14.8203 3.55469C14.8203 3.10166 15.1876 2.73438 15.6406 2.73438ZM14 5.46875C14.453 5.46875 14.8203 5.83603 14.8203 6.28906C14.8203 6.74209 14.453 7.10938 14 7.10938C13.547 7.10938 13.1797 6.74209 13.1797 6.28906C13.1797 5.83603 13.547 5.46875 14 5.46875ZM12.3594 2.73438C12.8124 2.73438 13.1797 3.10166 13.1797 3.55469C13.1797 4.00772 12.8124 4.375 12.3594 4.375C11.9063 4.375 11.5391 4.00772 11.5391 3.55469C11.5391 3.10166 11.9063 2.73438 12.3594 2.73438Z" fill="#787878"/>
</g>
<defs>
<clipPath id="clip0_1857_1746">
<rect width="28" height="28" fill="white"/>
</clipPath>
</defs>
</svg>
