<svg width="12" height="12" viewBox="0 0 12 12" fill="none" xmlns="http://www.w3.org/2000/svg">
<g clip-path="url(#clip0_1368_1552)">
<path d="M5.99987 0.50001C6.9557 0.498596 7.89535 0.746665 8.72593 1.21969C9.5565 1.69272 10.2492 2.37433 10.7357 3.19713C11.2221 4.01994 11.4853 4.95544 11.4994 5.91117C11.5135 6.8669 11.2779 7.80974 10.8159 8.64651L11.4789 10.8565C11.5012 10.9312 11.5058 11.01 11.4923 11.0868C11.4788 11.1635 11.4475 11.236 11.401 11.2986C11.3545 11.3611 11.294 11.4118 11.2243 11.4468C11.1547 11.4818 11.0778 11.5 10.9999 11.5C10.9511 11.4999 10.9026 11.4929 10.8559 11.479L8.64587 10.816C7.91075 11.2215 7.09257 11.4533 6.25401 11.4936C5.41546 11.534 4.57879 11.3819 3.80812 11.0489C3.03745 10.7159 2.35323 10.2109 1.8079 9.57264C1.26257 8.93435 0.870591 8.17969 0.662009 7.36649C0.453427 6.55328 0.433775 5.70312 0.604557 4.88115C0.775339 4.05918 1.13202 3.28721 1.64728 2.6244C2.16254 1.96159 2.82269 1.42553 3.57715 1.0573C4.3316 0.689066 5.16035 0.498434 5.99987 0.50001ZM5.99987 10.5C6.81968 10.4989 7.62349 10.2731 8.32387 9.84701C8.40224 9.79992 8.49195 9.77503 8.58337 9.77501C8.63199 9.7748 8.68036 9.78188 8.72687 9.79601L10.2539 10.2545L9.79587 8.72701C9.77599 8.66052 9.77017 8.59061 9.77878 8.52175C9.78739 8.45288 9.81024 8.38656 9.84587 8.32701C10.3592 7.47631 10.5764 6.47952 10.4633 5.49238C10.3502 4.50524 9.91335 3.58336 9.22091 2.87078C8.52848 2.15819 7.61951 1.69506 6.63602 1.55373C5.65252 1.4124 4.64991 1.60083 3.78485 2.0896C2.91978 2.57837 2.24098 3.33992 1.85452 4.25528C1.46806 5.17064 1.39571 6.18823 1.64876 7.14906C1.90181 8.1099 2.46601 8.95984 3.25322 9.56609C4.04042 10.1723 5.00628 10.5008 5.99987 10.5Z" fill="white"/>
</g>
<defs>
<clipPath id="clip0_1368_1552">
<rect width="12" height="12" fill="white" transform="matrix(-1 0 0 1 12 0)"/>
</clipPath>
</defs>
</svg>
