<svg width="12" height="12" viewBox="0 0 12 12" fill="none" xmlns="http://www.w3.org/2000/svg">
<path d="M10.198 3.8912C10.198 4.76733 9.48761 5.47727 8.6119 5.47727C7.73577 5.47727 7.02539 4.76733 7.02539 3.8912C7.02539 3.01507 7.73576 2.30512 8.6119 2.30469C9.48761 2.30469 10.198 3.01505 10.198 3.8912Z" fill="#F97316"/>
<path d="M0.644054 8.48953C0.310814 9.17475 0.866501 10.1949 1.7013 10.4054C3.46126 10.7983 5.25439 10.7983 7.01435 10.4054C7.84957 10.1944 8.40526 9.17473 8.0716 8.48953C7.44859 7.19495 6.01589 6.05757 4.35738 6.04688C2.69887 6.05795 1.26618 7.19484 0.643159 8.48953H0.644054Z" fill="#F97316"/>
<path d="M6.48447 3.3304C6.48447 4.50531 5.53206 5.45811 4.3572 5.45811C3.18229 5.45811 2.22949 4.50526 2.22949 3.3304C2.22949 2.15549 3.18234 1.20313 4.3572 1.20313C5.53211 1.2027 6.48447 2.15554 6.48447 3.3304Z" fill="#F97316"/>
<path d="M11.381 7.73534C10.9165 6.76971 9.84812 5.9217 8.6119 5.91406C8.0477 5.91747 7.51848 6.09645 7.06543 6.3811C7.72295 6.86817 8.26761 7.51848 8.60808 8.22583C8.77599 8.571 8.80923 8.97753 8.70993 9.38274C9.33976 9.37592 9.96873 9.30305 10.5926 9.16371C11.2152 9.00646 11.6298 8.24587 11.381 7.73534Z" fill="#F97316"/>
</svg>
