<svg width="28" height="28" viewBox="0 0 28 28" fill="none" xmlns="http://www.w3.org/2000/svg">
<path d="M5.53306 8.61751L4.97962 8.77808C4.78975 8.83364 4.58413 8.76539 4.46512 8.60701C4.34525 8.44908 4.33562 8.23339 4.44019 8.06495C4.90787 7.31376 5.44469 6.63258 6.03662 6.04064C7.07394 5.00376 8.27925 4.19089 9.61931 3.62345C9.75406 3.56658 9.85863 3.46026 9.91331 3.3242C9.96844 3.18858 9.96756 3.03939 9.91025 2.9042C9.79256 2.62595 9.46925 2.49689 9.19012 2.61283C7.71837 3.23583 6.39625 4.12833 5.2605 5.26451C4.42225 6.10276 3.70169 7.07576 3.11937 8.15595C3.0485 8.28808 2.91944 8.37908 2.77113 8.40183C2.62325 8.42501 2.47231 8.37645 2.36469 8.27233L1.75 7.67601L2.48894 12.776L5.53262 8.61708L5.53306 8.61751Z" fill="#1FA0FE"/>
<path d="M13.9994 6.77344C10.0142 6.77344 6.77148 10.0158 6.77148 14.0009C6.77148 17.9861 10.0142 21.2284 13.9994 21.2284C17.9846 21.2284 21.2274 17.9861 21.2274 14.0009C21.2274 10.0158 17.9846 6.77344 13.9994 6.77344ZM13.9994 19.1039C11.1854 19.1039 8.89686 16.8149 8.89686 14.0014C8.89686 11.1878 11.1859 8.89881 13.9994 8.89881C16.813 8.89881 19.102 11.1878 19.102 14.0014C19.102 16.8149 16.813 19.1039 13.9994 19.1039Z" fill="#1FA0FE"/>
<path d="M14.0008 9.85156C11.7153 9.85156 9.85547 11.7109 9.85547 13.9969C9.85547 16.2828 11.7153 18.1422 14.0008 18.1422C16.2863 18.1422 18.1461 16.2828 18.1461 13.9969C18.1461 11.7109 16.2863 9.85156 14.0008 9.85156ZM15.8807 13.2711L13.7523 15.3995C13.6626 15.4896 13.5405 15.5399 13.4137 15.5399C13.4093 15.5399 13.4058 15.5399 13.4014 15.5399C13.2702 15.5369 13.1463 15.4796 13.0584 15.382L12.1042 14.3254C11.927 14.1294 11.9423 13.8267 12.1388 13.6495C12.3348 13.4727 12.6371 13.4876 12.8147 13.6841L13.4312 14.367L15.2035 12.5947C15.3903 12.4079 15.6935 12.4079 15.8803 12.5947C16.0671 12.7815 16.0671 13.0847 15.8803 13.2715L15.8807 13.2711Z" fill="#1FA0FE"/>
<path d="M8.77498 23.0217C8.83054 23.212 8.76229 23.4167 8.60435 23.5366C8.44641 23.6565 8.23029 23.6661 8.06273 23.5611C7.31066 23.0926 6.62948 22.5553 6.03798 21.9642C5.00154 20.9274 4.18866 19.7221 3.62035 18.3816C3.53198 18.1724 3.3281 18.0469 3.11373 18.0469C3.04285 18.0469 2.97023 18.0609 2.90066 18.0902C2.62241 18.2079 2.49204 18.5307 2.60973 18.8094C3.23316 20.2812 4.12566 21.6038 5.26185 22.7399C6.10054 23.5786 7.0731 24.2987 8.15285 24.8806C8.28454 24.9519 8.37598 25.0806 8.39873 25.2293C8.42147 25.3776 8.37335 25.5277 8.26923 25.6357L7.67335 26.2504L12.7737 25.5115L8.61485 22.4678L8.77541 23.0221L8.77498 23.0217Z" fill="#1FA0FE"/>
<path d="M19.2249 4.97875C19.1693 4.78844 19.2376 4.58369 19.3955 4.46381C19.4804 4.3995 19.5823 4.36669 19.6842 4.36669C19.7717 4.36669 19.8597 4.39075 19.9376 4.43931C20.6901 4.90831 21.3712 5.44556 21.9619 6.03619C22.9983 7.07306 23.8112 8.27838 24.3795 9.61888C24.4941 9.88969 24.8205 10.0279 25.0996 9.91025C25.3779 9.79256 25.5083 9.46969 25.3906 9.191C24.7671 7.71925 23.8746 6.39669 22.7384 5.2605C21.8998 4.42181 20.9272 3.70169 19.8474 3.11981C19.7157 3.0485 19.6243 2.91988 19.6016 2.77113C19.5788 2.62281 19.6269 2.47275 19.7311 2.36469L20.3269 1.75L15.2266 2.48894L19.3854 5.53262L19.2249 4.97831V4.97875Z" fill="#1FA0FE"/>
<path d="M22.4673 19.3854L23.0208 19.2249C23.0645 19.2122 23.1096 19.2061 23.1542 19.2061C23.3016 19.2061 23.4443 19.2743 23.5357 19.3959C23.6556 19.5539 23.6652 19.7696 23.5606 19.938C23.093 20.6892 22.5561 21.3704 21.9642 21.9623C20.9269 22.9992 19.7216 23.8121 18.3815 24.3795C18.2468 24.4364 18.1422 24.5427 18.0875 24.6788C18.0324 24.8144 18.0333 24.9636 18.0906 25.0988C18.2052 25.3696 18.5316 25.5083 18.8107 25.3901C20.2825 24.7671 21.6046 23.8746 22.7403 22.7384C23.5786 21.9002 24.2991 20.9272 24.8815 19.847C24.9523 19.7149 25.0814 19.6239 25.2297 19.6011C25.3785 19.5784 25.5281 19.6265 25.6361 19.7306L26.2508 20.3265L25.5119 15.2266L22.4682 19.3854H22.4673Z" fill="#1FA0FE"/>
</svg>
