<svg width="20" height="20" viewBox="0 0 20 20" fill="none" xmlns="http://www.w3.org/2000/svg">
<path d="M18.3947 8.29437C18.3181 6.11281 17.4347 4.07281 15.8834 2.52156C14.2575 0.895313 12.0966 0 9.79906 0C5.15875 0 1.36719 3.69344 1.20375 8.29437C0.495625 8.60906 0 9.31781 0 10.1416V12.4109C0 13.5253 0.906563 14.4322 2.02125 14.4322C2.7425 14.4322 3.32906 13.8456 3.32906 13.1244V9.42781C3.32906 8.75063 2.80969 8.19844 2.14937 8.13281C2.39312 4.12437 5.73 0.9375 9.79906 0.9375C11.8466 0.9375 13.7719 1.73563 15.2209 3.18469C16.5516 4.51531 17.3303 6.24969 17.4475 8.13312C16.7878 8.19938 16.2694 8.75125 16.2694 9.42781V13.1241C16.2694 13.8069 16.7969 14.3625 17.465 14.4203V15.3544C17.465 16.4062 16.6091 17.2619 15.5572 17.2619H14.1444C14.075 17.0637 13.9662 16.8806 13.8137 16.7288C13.5466 16.4603 13.1903 16.3125 12.8109 16.3125H11.3547C11.1456 16.3125 10.945 16.3569 10.7612 16.4425C10.26 16.6728 9.93625 17.1784 9.93625 17.7306C9.93625 18.11 10.0841 18.4662 10.3519 18.7328C10.6197 19.0012 10.9759 19.1491 11.3547 19.1491H12.8109C13.4147 19.1491 13.9469 18.7587 14.1453 18.1994H15.5572C17.1262 18.1994 18.4025 16.9231 18.4025 15.3544V14.2534C19.1062 13.9369 19.5981 13.2306 19.5981 12.4103V10.1409C19.5981 9.31781 19.1025 8.60906 18.3947 8.29437ZM2.39125 9.42781V13.1241C2.39125 13.3281 2.22531 13.4944 2.02094 13.4944C1.42344 13.4944 0.937188 13.0081 0.937188 12.4106V10.1412C0.937188 9.54344 1.42344 9.0575 2.02094 9.0575C2.22531 9.0575 2.39125 9.22375 2.39125 9.42781ZM13.2812 17.8313C13.2347 18.0519 13.0366 18.2122 12.8106 18.2122H11.3544C11.2262 18.2122 11.1059 18.1622 11.0141 18.0703C10.9234 17.98 10.8734 17.8594 10.8734 17.7313C10.8734 17.5441 10.9831 17.3731 11.155 17.2941C11.2162 17.2653 11.2834 17.2506 11.3544 17.2506H12.8106C12.9388 17.2506 13.0591 17.3003 13.1506 17.3922C13.2412 17.4825 13.2912 17.6031 13.2912 17.7313C13.2916 17.7656 13.2878 17.8 13.2812 17.8313ZM18.6606 12.4106C18.6606 13.0081 18.1744 13.4944 17.5769 13.4944C17.3728 13.4944 17.2066 13.3284 17.2066 13.1241V9.42781C17.2066 9.22375 17.3725 9.0575 17.5769 9.0575C18.1744 9.0575 18.6606 9.54375 18.6606 10.1412V12.4106Z" fill="black"/>
<path d="M12.8342 12.5705C13.9295 12.5705 14.8205 11.6792 14.8205 10.5842V6.53703C14.8205 6.00766 14.6136 5.50891 14.238 5.13328C13.8623 4.75766 13.3639 4.55078 12.8342 4.55078H6.76359C5.66828 4.55078 4.77734 5.44172 4.77734 6.53703V10.5842C4.77734 11.6795 5.66828 12.5705 6.76359 12.5705H6.80078V13.6192C6.80078 14.0192 7.03922 14.3742 7.40797 14.5239C7.52703 14.5717 7.65078 14.5955 7.77328 14.5955C8.02859 14.5955 8.27734 14.4942 8.45953 14.3058L10.2042 12.5705H12.8342ZM9.68078 11.7692L7.79266 13.647C7.78422 13.6558 7.77797 13.6623 7.76016 13.6545C7.73859 13.6458 7.73859 13.6317 7.73859 13.6192V12.1017C7.73859 11.843 7.52891 11.633 7.26984 11.633H6.76391C6.18547 11.633 5.71516 11.1623 5.71516 10.5842V6.53703C5.71516 5.95859 6.18547 5.48828 6.76391 5.48828H12.8345C13.1139 5.48828 13.3767 5.59766 13.5755 5.79609C13.7742 5.99484 13.8833 6.25797 13.8833 6.53703V10.5842C13.8833 11.1627 13.4127 11.633 12.8345 11.633H10.0114C9.88734 11.633 9.76859 11.682 9.68078 11.7692Z" fill="black"/>
<path d="M7.51969 7.94531C7.13844 7.94531 6.82812 8.25594 6.82812 8.63687C6.82812 9.01781 7.13875 9.32844 7.51969 9.32844C7.90125 9.32844 8.21187 9.01781 8.21187 8.63687C8.21187 8.25594 7.90156 7.94531 7.51969 7.94531Z" fill="black"/>
<path d="M9.80094 7.94531C9.41969 7.94531 9.10938 8.25594 9.10938 8.63687C9.10938 9.01781 9.42 9.32844 9.80094 9.32844C10.1828 9.32844 10.4931 9.01781 10.4931 8.63687C10.4931 8.25594 10.1828 7.94531 9.80094 7.94531Z" fill="black"/>
<path d="M12.0744 7.94531C11.6931 7.94531 11.3828 8.25594 11.3828 8.63687C11.3828 9.01781 11.6934 9.32844 12.0744 9.32844C12.4559 9.32844 12.7666 9.01781 12.7666 8.63687C12.7666 8.25594 12.4559 7.94531 12.0744 7.94531Z" fill="black"/>
</svg>
