<svg width="28" height="28" viewBox="0 0 28 28" fill="none" xmlns="http://www.w3.org/2000/svg">
<path d="M27.9487 24.0779L25.8056 14.8182C25.7885 14.7466 25.7538 14.6804 25.7046 14.6257C25.6555 14.5709 25.5934 14.5293 25.5241 14.5046L20.9582 12.7176C20.8603 12.6793 20.7519 12.6775 20.6528 12.7125L18.8439 13.3523C18.7983 13.4229 18.7524 13.4935 18.7064 13.5641L18.4997 13.8791C18.3515 14.1051 18.2028 14.332 18.0537 14.5599L20.791 13.5918L24.4372 15.0188L18.2112 17.5319C18.153 17.5554 18.1006 17.5911 18.0574 17.6367C18.0142 17.6822 17.9814 17.7365 17.9611 17.7959C17.9407 17.8553 17.9334 17.9183 17.9396 17.9808C17.9458 18.0433 17.9654 18.1036 17.997 18.1579L20.1545 21.8592L14 24.0359L7.65621 21.7923V17.5C7.65621 17.4202 7.63436 17.3419 7.59303 17.2736C7.5517 17.2053 7.49247 17.1496 7.42176 17.1125L3.48555 15.0507L7.209 13.5918L9.94623 14.5599C9.79732 14.332 9.64865 14.1051 9.50021 13.8791L9.29406 13.5649C9.24769 13.494 9.20189 13.4232 9.15605 13.3523L7.3471 12.7125C7.24797 12.6775 7.13953 12.6793 7.04162 12.7176L2.44573 14.5183C2.37955 14.5442 2.32069 14.5858 2.27423 14.6396C2.22778 14.6934 2.19514 14.7577 2.17913 14.827L0.0112814 24.1847C-0.00618731 24.2601 -0.003327 24.3389 0.0195703 24.4128C0.0424676 24.4868 0.0845816 24.5533 0.141612 24.6057C0.198643 24.658 0.268547 24.6943 0.344188 24.7108C0.419828 24.7273 0.498495 24.7235 0.572156 24.6997L7.19489 22.5573L13.8541 24.9125C13.9485 24.9459 14.0515 24.9459 14.1459 24.9125L20.805 22.5573L27.3981 24.69C27.4505 24.7103 27.5062 24.7208 27.5625 24.7209C27.638 24.7209 27.7122 24.7014 27.7779 24.6642C27.8436 24.627 27.8986 24.5734 27.9375 24.5087C27.9764 24.444 27.9979 24.3703 27.9998 24.2948C28.0018 24.2193 27.9842 24.1446 27.9487 24.0779Z" fill="#1FA0FE"/>
<path d="M12.4891 18.751C12.3482 18.4867 12.2033 18.2233 12.0543 17.9609C11.0335 18.2355 10.2812 18.7427 10.2812 19.4708C10.2812 20.6197 12.1521 21.2208 14 21.2208C15.8479 21.2208 17.7187 20.6197 17.7187 19.4708C17.7187 18.7427 16.9665 18.2355 15.9457 17.9609C15.7967 18.2233 15.6517 18.4866 15.5109 18.751C16.3927 18.9504 16.8437 19.2923 16.8437 19.4708C16.8437 19.7325 15.8763 20.3458 14 20.3458C12.1237 20.3458 11.1562 19.7325 11.1562 19.4708C11.1562 19.2923 11.6073 18.9504 12.4891 18.751Z" fill="#1FA0FE"/>
<path d="M10.2319 13.3992C11.4158 15.2038 12.64 17.0697 13.6087 19.0081C13.645 19.0808 13.7009 19.1419 13.77 19.1846C13.8391 19.2274 13.9188 19.25 14 19.25C14.0813 19.25 14.161 19.2274 14.2301 19.1846C14.2992 19.1419 14.3551 19.0808 14.3914 19.0081C15.3601 17.0697 16.5842 15.2038 17.7681 13.3992L17.9744 13.0848C18.9135 11.6504 19.7509 10.2218 19.6838 8.51993C19.6587 7.87855 19.5295 7.24552 19.3012 6.64561C18.4624 4.43546 16.4312 3.0625 14 3.0625C11.5689 3.0625 9.53767 4.43546 8.69877 6.6456C8.47064 7.24544 8.34146 7.87835 8.31628 8.51961C8.2491 10.2216 9.0865 11.6503 10.0258 13.0851L10.2319 13.3992ZM14.0001 5.46875C14.649 5.46875 15.2834 5.66119 15.823 6.02174C16.3626 6.38229 16.7832 6.89475 17.0315 7.49432C17.2799 8.09389 17.3449 8.75364 17.2183 9.39014C17.0917 10.0266 16.7792 10.6113 16.3203 11.0702C15.8614 11.5291 15.2767 11.8416 14.6402 11.9682C14.0037 12.0948 13.344 12.0298 12.7444 11.7815C12.1448 11.5331 11.6324 11.1126 11.2718 10.573C10.9113 10.0334 10.7188 9.39897 10.7188 8.75C10.7188 7.87976 11.0645 7.04516 11.6799 6.42981C12.2952 5.81445 13.1298 5.46875 14.0001 5.46875Z" fill="#1FA0FE"/>
</svg>
