<svg width="28" height="28" viewBox="0 0 28 28" fill="none" xmlns="http://www.w3.org/2000/svg">
<path d="M10.0613 3.79584C10.2243 3.79597 10.3836 3.74777 10.5191 3.65734C10.6547 3.56691 10.7604 3.43831 10.8228 3.28781C10.8852 3.13731 10.9016 2.97167 10.8699 2.81185C10.8382 2.65202 10.7598 2.50519 10.6447 2.38993C10.5295 2.27466 10.3827 2.19615 10.2229 2.16431C10.0631 2.13248 9.89747 2.14875 9.74692 2.21108C9.59637 2.2734 9.46768 2.37898 9.37715 2.51445C9.28661 2.64992 9.23828 2.8092 9.23828 2.97214C9.23845 3.19043 9.3252 3.39975 9.4795 3.55416C9.63379 3.70858 9.84304 3.7955 10.0613 3.79584Z" fill="#1FA0FE"/>
<path d="M10.1298 6.09705L11.5648 4.17752C11.8418 3.81653 11.9802 3.36822 11.9549 2.91391C11.8984 2.0458 11.2004 1.14844 10.1298 1.14844C9.05928 1.14844 8.36136 2.0458 8.30487 2.91337C8.28357 3.36854 8.42227 3.81682 8.69692 4.18042L10.1298 6.09705ZM10.0609 1.59895C10.332 1.59882 10.5971 1.6791 10.8226 1.82962C11.048 1.98014 11.2238 2.19415 11.3277 2.44458C11.4315 2.69501 11.4587 2.97061 11.4059 3.23652C11.3531 3.50242 11.2226 3.7467 11.031 3.93844C10.8393 4.13019 10.5951 4.26079 10.3292 4.31373C10.0633 4.36666 9.78773 4.33956 9.53725 4.23584C9.28677 4.13213 9.07268 3.95646 8.92205 3.73105C8.77142 3.50565 8.69102 3.24063 8.69102 2.96953C8.69133 2.60624 8.83575 2.25792 9.09257 2.00097C9.34939 1.74402 9.69765 1.59945 10.0609 1.59895Z" fill="#1FA0FE"/>
<path d="M19.8501 8.34245C20.006 8.52101 20.2224 8.63573 20.4577 8.66462L20.6176 8.68436C20.8879 8.71783 21.1427 8.82906 21.3511 9.00454C21.5595 9.18003 21.7124 9.41222 21.7914 9.67295C21.8673 9.92491 21.8694 10.1933 21.7977 10.4465C21.7259 10.6996 21.5831 10.927 21.3863 11.1016L19.8035 12.5012C19.7069 12.5867 19.6295 12.6918 19.5765 12.8094C19.5235 12.927 19.4961 13.0546 19.4961 13.1836V13.555C19.4958 13.6745 19.5256 13.7922 19.5827 13.8972C19.6399 14.0021 19.7225 14.0911 19.823 14.1557C19.9911 14.2637 20.1326 14.4084 20.2368 14.5789C20.341 14.7494 20.4052 14.9412 20.4246 15.1401L20.4617 15.5109C20.4762 15.6625 20.5469 15.8032 20.6597 15.9054C20.7725 16.0077 20.9194 16.0642 21.0717 16.0638H21.9983C22.2652 16.0637 22.5263 15.9859 22.7498 15.8398C22.9732 15.6937 23.1492 15.4857 23.2564 15.2412L23.3121 15.1143C23.4113 14.8854 23.573 14.6891 23.7787 14.5479C23.9843 14.4067 24.2256 14.3263 24.4748 14.3159L24.6925 14.306C24.7169 14.3049 24.7411 14.3031 24.7652 14.3005L25.2933 14.2473C25.1859 13.2162 24.9892 12.1963 24.7053 11.1992L24.395 11.6141C24.3695 11.6481 24.3365 11.6758 24.2985 11.6948C24.2605 11.7138 24.2185 11.7237 24.176 11.7237C24.1335 11.7237 24.0916 11.7138 24.0536 11.6948C24.0156 11.6758 23.9825 11.6481 23.9571 11.6141L22.6274 9.83608C22.3374 9.44996 22.1921 8.97438 22.2166 8.49213C22.2375 8.1668 22.3363 7.85126 22.5047 7.57213C21.9428 7.01922 21.3291 6.52154 20.672 6.08594L19.7764 7.62173C19.7125 7.73469 19.6852 7.86472 19.6984 7.99383C19.7117 8.12294 19.7646 8.24476 19.8501 8.34245Z" fill="#1FA0FE"/>
<path d="M24.177 10.9903L25.2877 9.50508C25.5027 9.22527 25.6103 8.87767 25.5908 8.52535C25.5471 7.85198 25.0063 7.15625 24.177 7.15625C23.3478 7.15625 22.8071 7.85198 22.7633 8.52459C22.7471 8.87788 22.855 9.22571 23.0684 9.50776L24.177 10.9903ZM24.1216 7.41098C24.3501 7.41094 24.5735 7.47866 24.7635 7.60557C24.9535 7.73248 25.1016 7.91288 25.1891 8.12397C25.2766 8.33505 25.2995 8.56734 25.2549 8.79144C25.2104 9.01555 25.1004 9.22141 24.9388 9.38299C24.7773 9.54457 24.5714 9.65462 24.3473 9.69921C24.1232 9.7438 23.8909 9.72094 23.6798 9.63351C23.4687 9.54608 23.2883 9.39801 23.1614 9.20803C23.0344 9.01805 22.9666 8.79469 22.9666 8.5662C22.967 8.25997 23.0888 7.96636 23.3053 7.7498C23.5218 7.53325 23.8154 7.41136 24.1216 7.41098Z" fill="#1FA0FE"/>
<path d="M24.8209 14.8429C24.7867 14.8462 24.7524 14.8487 24.718 14.8503L24.5005 14.8602C24.3533 14.8664 24.2108 14.9139 24.0894 14.9974C23.9679 15.0808 23.8724 15.1967 23.8138 15.3319L23.7581 15.4589C23.6083 15.8006 23.3621 16.0914 23.0498 16.2956C22.7374 16.4997 22.3723 16.6085 21.9991 16.6087H21.0726C20.7846 16.6094 20.5066 16.5026 20.2932 16.3093C20.0797 16.116 19.946 15.8499 19.9183 15.5632L19.8813 15.1925C19.8699 15.0754 19.8322 14.9624 19.7709 14.862C19.7096 14.7616 19.6263 14.6764 19.5273 14.6128C19.3499 14.4987 19.2041 14.3418 19.1032 14.1565C19.0023 13.9713 18.9497 13.7636 18.9502 13.5527V13.1813C18.9502 12.9748 18.9941 12.7706 19.079 12.5824C19.1638 12.3941 19.2877 12.226 19.4424 12.0892L21.0252 10.6896C21.1437 10.5844 21.2297 10.4475 21.2729 10.295C21.3161 10.1425 21.3148 9.98086 21.2691 9.8291C21.2209 9.66975 21.1274 9.52782 21.0001 9.42056C20.8727 9.31329 20.717 9.24528 20.5518 9.2248L20.392 9.20506C20.0231 9.15978 19.6838 8.9799 19.4394 8.69991C19.279 8.51625 19.1798 8.28723 19.1555 8.04462C19.1312 7.80201 19.183 7.55785 19.3037 7.34602L20.2119 5.78934C19.7252 5.491 19.2205 5.22312 18.7006 4.98723C17.0928 4.25956 15.4269 3.875 13.8826 3.875C13.7358 3.875 13.575 3.87965 13.4051 3.88851L14.6194 5.64026C14.8521 5.97436 14.9721 6.37401 14.9618 6.78102C14.9516 7.18803 14.8117 7.58114 14.5625 7.90312L14.1733 8.40865C14.014 8.61457 13.8039 8.77541 13.5635 8.8753C13.3232 8.97519 13.0609 9.01066 12.8027 8.97822L12.3612 8.92178C12.1669 8.89686 11.9696 8.92961 11.7938 9.01596C11.618 9.1023 11.4714 9.23843 11.3724 9.40741C11.2234 9.66142 11.0032 9.86607 10.7389 9.99593C10.4746 10.1258 10.178 10.1751 9.88591 10.1378L8.86643 10.0083C8.6719 9.98303 8.47419 10.0125 8.29548 10.0934C8.11677 10.1743 7.96414 10.3034 7.85471 10.4662C7.75982 10.6063 7.70789 10.7711 7.70527 10.9404C7.70266 11.1096 7.74948 11.2759 7.84 11.419L8.51353 12.4835C8.6174 12.6466 8.77895 12.7645 8.96594 12.8138C9.15293 12.863 9.35161 12.84 9.52235 12.7492L10.2158 12.3773C10.6726 12.1323 11.3398 12.1048 11.8821 12.2821C12.096 11.1542 13.0679 10.3088 14.2138 10.3088C15.4602 10.3088 16.5016 11.3087 16.5845 12.5852C16.6186 13.1698 16.4419 13.7472 16.0865 14.2127L15.6587 14.785L15.9097 15.1295C15.9467 15.1809 15.985 15.2299 16.0246 15.2766L16.8668 16.2685C16.957 16.3748 17.0248 16.4983 17.0659 16.6316C17.1069 16.7649 17.1206 16.9051 17.1058 17.0438C17.0911 17.1824 17.0484 17.3167 16.9803 17.4384C16.9121 17.56 16.82 17.6666 16.7094 17.7516L15.4328 18.7331C15.1922 18.9174 15.0151 19.1723 14.9265 19.4622L14.5012 20.8432C14.4445 21.028 14.3515 21.1997 14.2278 21.3482L13.8139 21.8465C13.5818 22.1254 13.4381 22.4672 13.4012 22.8282C13.3782 23.0522 13.2953 23.2659 13.1611 23.4468C13.027 23.6277 12.8466 23.7691 12.639 23.8563C12.51 23.9104 12.3704 23.9346 12.2307 23.9271C12.091 23.9196 11.9549 23.8806 11.8324 23.8129C11.7099 23.7453 11.6044 23.6509 11.5236 23.5366C11.4429 23.4224 11.389 23.2914 11.3661 23.1534L10.9762 20.8117C10.9437 20.6173 10.8643 20.4338 10.7451 20.2769L9.31673 18.4021C9.14189 18.173 9.01262 17.9124 8.93594 17.6346L8.46448 15.932C8.4092 15.7341 8.30368 15.5539 8.15816 15.4088C8.01264 15.2637 7.83207 15.1588 7.63399 15.1041L7.53151 15.0761C7.22906 14.9933 6.95149 14.8376 6.72306 14.6228L5.84369 13.7943C5.66129 13.6225 5.5048 13.4252 5.37912 13.2084C5.23877 12.9663 5.02694 12.7735 4.77269 12.6566C4.51844 12.5396 4.23423 12.5042 3.95905 12.5552L2.67723 12.9722C2.50267 13.7574 2.41184 14.5589 2.40625 15.3633C2.40625 21.6978 7.55453 26.8513 13.8826 26.8513C20.2106 26.8513 25.3589 21.6978 25.3589 15.3633C25.3589 15.1851 25.3521 14.9927 25.3396 14.7906L24.8209 14.8429Z" fill="#1FA0FE"/>
<path d="M24.1218 9.17763C24.2421 9.17767 24.3598 9.14203 24.4598 9.07521C24.5599 9.00839 24.6379 8.91339 24.684 8.80224C24.7301 8.69108 24.7421 8.56876 24.7187 8.45073C24.6952 8.33271 24.6373 8.22429 24.5523 8.13919C24.4672 8.05409 24.3588 7.99613 24.2408 7.97264C24.1228 7.94915 24.0004 7.96119 23.8893 8.00722C23.7781 8.05326 23.6831 8.13123 23.6162 8.23128C23.5494 8.33133 23.5137 8.44895 23.5137 8.56928C23.5138 8.73054 23.5779 8.88516 23.6919 8.99921C23.8059 9.11326 23.9605 9.17742 24.1218 9.17763Z" fill="#1FA0FE"/>
<path d="M4.73716 8.24897C4.9001 8.24909 5.05942 8.20088 5.19495 8.11044C5.33049 8.02001 5.43616 7.8914 5.4986 7.7409C5.56103 7.5904 5.57743 7.42476 5.54571 7.26494C5.514 7.10512 5.4356 6.95829 5.32042 6.84303C5.20525 6.72778 5.05848 6.64927 4.89868 6.61743C4.73888 6.5856 4.57323 6.60188 4.42269 6.66421C4.27214 6.72653 4.14346 6.83211 4.05292 6.96758C3.96239 7.10305 3.91406 7.26233 3.91406 7.42527C3.91424 7.64357 4.00099 7.85289 4.1553 8.00731C4.30961 8.16173 4.51886 8.24864 4.73716 8.24897Z" fill="#1FA0FE"/>
<path d="M3.83868 12.0218C4.22765 11.9451 4.63086 11.9918 4.992 12.1554C5.35314 12.3189 5.65419 12.5912 5.85309 12.9341C5.9522 13.1052 6.07563 13.2609 6.2195 13.3964L7.09888 14.2249C7.26202 14.3784 7.46028 14.4895 7.67632 14.5487L7.77875 14.5766C8.06817 14.6565 8.33202 14.8098 8.54467 15.0218C8.75731 15.2337 8.91152 15.497 8.99232 15.7862L9.46378 17.4888C9.52193 17.6995 9.61995 17.8971 9.75253 18.0708L11.181 19.9456C11.3543 20.1734 11.4695 20.4399 11.5167 20.7221L11.9066 23.0638C11.9159 23.1204 11.938 23.1741 11.9711 23.221C12.0042 23.2679 12.0474 23.3066 12.0976 23.3344C12.1478 23.3621 12.2037 23.3782 12.261 23.3813C12.3182 23.3844 12.3755 23.3745 12.4284 23.3523C12.5455 23.3031 12.6473 23.2233 12.7229 23.1213C12.7985 23.0192 12.8453 22.8986 12.8583 22.7723C12.9062 22.3035 13.0928 21.8597 13.3942 21.4974L13.8082 20.9992C13.8856 20.906 13.9438 20.7984 13.9794 20.6826L14.4046 19.3016C14.5265 18.9034 14.7697 18.5531 15.1004 18.2999L16.3769 17.3187C16.4287 17.2788 16.4719 17.2288 16.5039 17.1717C16.5358 17.1147 16.5558 17.0517 16.5627 16.9867C16.5696 16.9217 16.5632 16.8559 16.544 16.7934C16.5247 16.7309 16.4929 16.673 16.4506 16.6231L15.6084 15.6312C15.5592 15.573 15.5116 15.5122 15.4673 15.4505L15.3168 15.244L14.4336 16.4252C14.4081 16.4593 14.3751 16.4869 14.337 16.506C14.299 16.525 14.2571 16.5349 14.2146 16.5349C14.172 16.5349 14.1301 16.525 14.0921 16.506C14.0541 16.4869 14.021 16.4593 13.9956 16.4252L12.3417 14.213C12.0473 13.817 11.8741 13.3442 11.8428 12.8518C11.4289 12.6689 10.8365 12.6659 10.475 12.8598L9.78157 13.2316C9.59213 13.3333 9.38045 13.3864 9.16546 13.3862C8.94353 13.3866 8.7251 13.3309 8.53046 13.2243C8.33582 13.1177 8.17129 12.9636 8.05213 12.7764L7.37866 11.7119C7.23125 11.4789 7.15499 11.2081 7.15924 10.9324C7.16348 10.6568 7.24804 10.3884 7.40255 10.1601C7.56844 9.91334 7.79983 9.71769 8.07076 9.59515C8.34168 9.47261 8.6414 9.42803 8.93627 9.46641L9.95575 9.59596C10.1416 9.61968 10.3304 9.58826 10.4986 9.50562C10.6668 9.42298 10.807 9.29276 10.9018 9.13112C11.0551 8.86978 11.2818 8.65926 11.5538 8.52574C11.8257 8.39222 12.1309 8.34159 12.4315 8.38015L12.873 8.43659C13.0366 8.45709 13.2026 8.43458 13.3548 8.37128C13.507 8.30799 13.6401 8.20609 13.7409 8.07565L14.1302 7.57012C14.3083 7.33992 14.4083 7.05889 14.4156 6.76794C14.423 6.47698 14.3372 6.19128 14.171 5.95241L12.7742 3.9375C12.6189 3.95292 12.461 3.97102 12.303 3.99159C12.2235 4.17394 12.1231 4.34644 12.0039 4.50565L10.3502 6.71759C10.3247 6.75165 10.2916 6.77929 10.2536 6.79834C10.2156 6.81738 10.1737 6.8273 10.1312 6.8273C10.0886 6.8273 10.0467 6.81738 10.0087 6.79834C9.97067 6.77929 9.93762 6.75165 9.91216 6.71759L8.6946 5.08889C8.05718 5.44013 7.44552 5.83618 6.86421 6.27408C7.10131 6.68978 7.2104 7.16623 7.17779 7.64368C7.14517 8.12113 6.97232 8.57832 6.6809 8.95792L5.02709 11.1699C5.00163 11.2039 4.96858 11.2316 4.93057 11.2506C4.89255 11.2697 4.85062 11.2796 4.8081 11.2796C4.76558 11.2796 4.72365 11.2697 4.68563 11.2506C4.64761 11.2316 4.61456 11.2039 4.5891 11.1699L3.71213 9.99688C3.34227 10.7499 3.04685 11.5373 2.83008 12.3478L3.80718 12.03C3.81751 12.0266 3.82803 12.0239 3.83868 12.0218Z" fill="#1FA0FE"/>
<path d="M15.6487 13.8887C15.9257 13.5277 16.0641 13.0794 16.0389 12.6251C15.9824 11.7567 15.2842 10.8594 14.2138 10.8594C13.1435 10.8594 12.4452 11.7567 12.3889 12.6243C12.3676 13.0795 12.5063 13.5278 12.7809 13.8914L14.2138 15.8078L15.6487 13.8887ZM12.7752 12.6805C12.7753 12.4095 12.8557 12.1447 13.0063 11.9195C13.1569 11.6943 13.371 11.5188 13.6213 11.4152C13.8716 11.3116 14.1471 11.2846 14.4128 11.3375C14.6785 11.3904 14.9225 11.5209 15.1141 11.7126C15.3056 11.9042 15.436 12.1483 15.4888 12.414C15.5417 12.6798 15.5145 12.9552 15.4108 13.2055C15.3071 13.4558 15.1315 13.6697 14.9062 13.8202C14.6809 13.9707 14.4161 14.051 14.1451 14.051C13.7818 14.0506 13.4336 13.906 13.1768 13.649C12.9199 13.3921 12.7755 13.0438 12.7752 12.6805Z" fill="#1FA0FE"/>
<path d="M14.1434 13.499C14.598 13.499 14.9665 13.1302 14.9665 12.6753C14.9665 12.2203 14.598 11.8516 14.1434 11.8516C13.6888 11.8516 13.3203 12.2203 13.3203 12.6753C13.3203 13.1302 13.6888 13.499 14.1434 13.499Z" fill="#1FA0FE"/>
<path d="M4.80758 10.5504L6.24247 8.63087C6.51945 8.26987 6.65787 7.82156 6.63261 7.36726C6.57618 6.49893 5.87793 5.60156 4.80758 5.60156C3.73724 5.60156 3.03899 6.49893 2.98261 7.36649C2.96128 7.82176 3.10003 8.27012 3.37477 8.63377L4.80758 10.5504ZM4.73868 6.0523C5.00978 6.05218 5.27482 6.13246 5.50029 6.28299C5.72576 6.43352 5.90153 6.64753 6.00535 6.89796C6.10918 7.14839 6.13641 7.42399 6.08359 7.68989C6.03078 7.9558 5.90029 8.20007 5.70864 8.39181C5.51698 8.58355 5.27277 8.71414 5.00689 8.76707C4.741 8.82001 4.4654 8.7929 4.21492 8.68918C3.96444 8.58546 3.75035 8.40979 3.59973 8.18439C3.4491 7.95899 3.3687 7.69398 3.3687 7.42288C3.36903 7.05955 3.51348 6.7112 3.77035 6.45425C4.02721 6.1973 4.37552 6.05275 4.73884 6.0523H4.73868Z" fill="#1FA0FE"/>
</svg>
