<svg width="32" height="32" viewBox="0 0 32 32" fill="none" xmlns="http://www.w3.org/2000/svg">
<path fill-rule="evenodd" clip-rule="evenodd" d="M2.72688 10.1518C2 11.4798 2 13.0817 2 16.2855V18.4149C2 23.8762 2 26.6068 3.6402 28.3034C5.2804 30 7.92027 30 13.2 30H18.8C24.0797 30 26.7196 30 28.3598 28.3034C30 26.6068 30 23.8762 30 18.4149V16.2855C30 13.0817 30 11.4798 29.2731 10.1518C28.5462 8.82389 27.2183 7.99972 24.5624 6.35138L21.7624 4.61362C18.9549 2.87121 17.5511 2 16 2C14.4489 2 13.0451 2.87121 10.2376 4.61362L7.43765 6.35138C4.78172 7.99972 3.45376 8.82389 2.72688 10.1518ZM11.8 23.35C11.2201 23.35 10.75 23.8201 10.75 24.4C10.75 24.9799 11.2201 25.45 11.8 25.45H20.2C20.7799 25.45 21.25 24.9799 21.25 24.4C21.25 23.8201 20.7799 23.35 20.2 23.35H11.8Z" fill="#F97316"/>
</svg>
