<svg width="60" height="60" viewBox="0 0 60 60" fill="none" xmlns="http://www.w3.org/2000/svg">
<g clip-path="url(#clip0_1817_1079)">
<path d="M30 60C46.5685 60 60 46.5685 60 30C60 13.4315 46.5685 0 30 0C13.4315 0 0 13.4315 0 30C0 46.5685 13.4315 60 30 60Z" fill="#FF4055"/>
<path d="M23.7191 46H36.9277C38.6979 46 40.1957 44.5702 40.1957 42.7319V25.6426C41.5574 25.6426 42.6468 24.5532 42.6468 23.1915V20.4C42.6468 19.0383 41.5574 17.9489 40.1957 17.9489H36.6553C36.1787 15.7021 34.2043 14 31.7532 14H28.8255C26.4426 14 24.4 15.7021 23.9234 17.9489H20.4511C19.0894 17.9489 18 19.0383 18 20.4V23.1915C18 24.5532 19.0894 25.6426 20.4511 25.6426H20.5191V42.7319C20.5191 44.5702 21.9489 46 23.7191 46ZM38.0851 42.7319C38.0851 43.4128 37.5404 43.9574 36.8596 43.9574H23.7191C23.0383 43.9574 22.4936 43.4128 22.4936 42.7319V25.6426H38.0851V42.7319ZM28.8936 16.0426H31.8213C33.1149 16.0426 34.2043 16.8596 34.6128 17.9489H26.1021C26.5106 16.8596 27.6 16.0426 28.8936 16.0426ZM20.4511 23.6C20.2468 23.6 20.0426 23.3957 20.0426 23.1915V20.4C20.0426 20.1957 20.2468 19.9915 20.4511 19.9915H23.8553H36.7915H40.1957C40.4 19.9915 40.6043 20.1957 40.6043 20.4V23.1915C40.6043 23.3957 40.4 23.6 40.1957 23.6H40.1277H20.4511Z" fill="white"/>
<path d="M24.8105 29.1875H26.8531V40.013H24.8105V29.1875Z" fill="white"/>
<path d="M29.3047 29.1875H31.3472V40.013H29.3047V29.1875Z" fill="white"/>
<path d="M33.7969 29.1875H35.8394V40.013H33.7969V29.1875Z" fill="white"/>
</g>
<defs>
<clipPath id="clip0_1817_1079">
<rect width="60" height="60" fill="white"/>
</clipPath>
</defs>
</svg>
