<svg width="20" height="20" viewBox="0 0 20 20" fill="none" xmlns="http://www.w3.org/2000/svg">
<path d="M18.4022 3.88527H16.6594H13.3165V2.31384C13.3165 1.48527 12.6594 0.828125 11.8308 0.828125H7.88795C7.05938 0.828125 6.40223 1.48527 6.40223 2.31384V3.88527H3.34509H1.60223C1.20223 3.88527 0.859375 4.22813 0.859375 4.62813C0.859375 5.02813 1.20223 5.37098 1.60223 5.37098H2.60223V15.371C2.60223 17.4567 4.28795 19.1424 6.37366 19.1424H13.6308C15.7165 19.1424 17.4022 17.4567 17.4022 15.371V5.37098H18.4022C18.8022 5.37098 19.1451 5.02813 19.1451 4.62813C19.1451 4.22813 18.8022 3.88527 18.4022 3.88527ZM7.88795 2.34241H11.8308V3.91384H7.88795V2.34241ZM15.9165 15.3996C15.9165 16.6567 14.8879 17.6853 13.6308 17.6853H6.37366C5.11652 17.6853 4.08795 16.6567 4.08795 15.3996V5.39955H7.14509H12.5737H15.9165V15.3996Z" fill="#FF0000"/>
<path d="M6.60223 7.34375C6.20223 7.34375 5.85938 7.68661 5.85938 8.08661V14.9437C5.85938 15.3438 6.20223 15.6866 6.60223 15.6866C7.00223 15.6866 7.34509 15.3438 7.34509 14.9437V8.08661C7.37366 7.68661 7.0308 7.34375 6.60223 7.34375Z" fill="#FF0000"/>
<path d="M10.0007 7.34375C9.60067 7.34375 9.25781 7.68661 9.25781 8.08661V14.9437C9.25781 15.3438 9.60067 15.6866 10.0007 15.6866C10.4007 15.6866 10.7435 15.3438 10.7435 14.9437V8.08661C10.7435 7.68661 10.4007 7.34375 10.0007 7.34375Z" fill="#FF0000"/>
<path d="M13.4008 15.714C13.8008 15.714 14.1436 15.3711 14.1436 14.9711V8.11395C14.1436 7.71395 13.8008 7.37109 13.4008 7.37109C13.0008 7.37109 12.6579 7.71395 12.6579 8.11395V14.9711C12.6293 15.3711 12.9722 15.714 13.4008 15.714Z" fill="#FF0000"/>
</svg>
