<svg width="24" height="24" viewBox="0 0 24 24" fill="none" xmlns="http://www.w3.org/2000/svg">
<g clip-path="url(#clip0_1139_857)">
<path d="M14.8213 4.03125L1.61616 17.2373C1.54972 17.304 1.50175 17.3881 1.47891 17.4785L0.0152456 23.3534C-0.0285368 23.5302 0.023431 23.7183 0.152494 23.8473C0.250147 23.945 0.383208 23.9991 0.519314 23.9991C0.561002 23.9991 0.603642 23.9939 0.64514 23.9834L6.51997 22.5196C6.61153 22.4967 6.69472 22.449 6.76116 22.3825L19.9674 9.17739L14.8213 4.03125Z" fill="white"/>
<path d="M23.2395 2.22985L21.7696 0.759909C20.7871 -0.222529 19.0749 -0.221577 18.0936 0.759909L16.293 2.56051L21.4389 7.70646L23.2395 5.90586C23.7303 5.41531 24.0006 4.76238 24.0006 4.06795C24.0006 3.37353 23.7303 2.7206 23.2395 2.22985Z" fill="white"/>
</g>
<defs>
<clipPath id="clip0_1139_857">
<rect width="24" height="24" fill="white"/>
</clipPath>
</defs>
</svg>
