<svg width="16" height="16" viewBox="0 0 16 16" fill="none" xmlns="http://www.w3.org/2000/svg">
<path d="M16 8C16 12.417 12.4203 15.998 8.00367 16H7.91733C7.52954 15.996 7.14254 15.964 6.75933 15.9043C6.44554 15.8558 6.13497 15.7884 5.82933 15.7023C4.15125 15.2288 2.67374 14.2202 1.6215 12.8299C0.569273 11.4396 -9.39437e-05 9.74362 1.16263e-08 8C1.16263e-08 3.58234 3.58067 3.19156e-06 8 3.19156e-06H8.00367C9.09203 -0.000970439 10.1691 0.22083 11.1685 0.651751C12.1679 1.08267 13.0686 1.71359 13.815 2.50567C15.2189 3.99049 16.0008 5.95659 16 8Z" fill="white"/>
<path d="M5.98094 5.61947V5.97947H4.81794L1.55127 3.26314C1.75319 2.98847 1.97253 2.72704 2.20794 2.48047L5.98094 5.61947Z" fill="#C8102E"/>
<path d="M14.459 3.27976L11.2114 5.97976H10.019V5.64576L13.805 2.49609L13.815 2.50643C14.0333 2.73648 14.2374 2.97947 14.4264 3.23409L14.459 3.27976Z" fill="#C8102E"/>
<path d="M5.98109 10.0195V10.3795L2.20809 13.5192C2.17476 13.4859 2.14142 13.4499 2.11009 13.4149C1.91162 13.1992 1.72522 12.9728 1.55176 12.7365L4.81842 10.0195H5.98109Z" fill="#C8102E"/>
<path d="M14.4594 12.7215C14.2583 12.9964 14.0398 13.2582 13.8054 13.5052L10.019 10.3552V10.0195H11.2114L14.4594 12.7215Z" fill="#C8102E"/>
<path d="M3.19484 5.9802H0.256836C0.423745 5.34011 0.670104 4.72343 0.990169 4.14453L3.19484 5.9802Z" fill="#012169"/>
<path d="M3.1285 10.0195L0.966503 11.8175C0.657544 11.2494 0.419219 10.6456 0.256836 10.0195H3.1285Z" fill="#012169"/>
<path d="M5.98081 11.7109V15.7443C5.93014 15.7313 5.88081 15.7176 5.82914 15.7033C4.78089 15.4081 3.80424 14.9012 2.95947 14.2139L5.98081 11.7109Z" fill="#012169"/>
<path d="M5.98122 0.257812V4.22781L3.00488 1.75181C3.88075 1.04983 4.89499 0.540724 5.98122 0.257812Z" fill="#012169"/>
<path d="M13.041 1.78881L10.019 4.29381V0.257812L10.0647 0.269479C11.1531 0.559813 12.1675 1.07765 13.041 1.78881Z" fill="#012169"/>
<path d="M15.7431 5.98217H12.8765L15.0335 4.1875C15.3421 4.75464 15.5804 5.35731 15.7431 5.98217Z" fill="#012169"/>
<path d="M13.0665 14.1942C12.1751 14.925 11.1359 15.4539 10.0205 15.7445V11.6602L13.0665 14.1942Z" fill="#012169"/>
<path d="M15.7429 10.0195C15.584 10.6304 15.3529 11.2203 15.0545 11.7765L12.9429 10.0195H15.7429Z" fill="#012169"/>
<path d="M16 7.91633V8.076C15.9966 8.44902 15.9673 8.82136 15.9123 9.19033H9.19033V15.912C8.82368 15.9667 8.45369 15.9961 8.083 16H7.91633C7.54551 15.9962 7.17541 15.9667 6.80867 15.9117V9.19033H0.088C0.0333008 8.82323 0.0038982 8.4528 0 8.08167C0 8.02933 0 7.97667 0 7.924C0.00344843 7.55087 0.0327408 7.17842 0.0876667 6.80933H6.80967V0.088C7.15872 0.0358147 7.5108 0.00641911 7.86367 0L8.12167 0C8.45842 0.00481467 8.79453 0.0308664 9.128 0.078L9.19033 0.0873333V6.80933H15.912C15.9667 7.17588 15.9961 7.54575 16 7.91633Z" fill="#C8102E"/>
</svg>
