<svg width="20" height="17" viewBox="0 0 20 17" fill="none" xmlns="http://www.w3.org/2000/svg">
<path d="M13.9998 16.9877C13.802 16.9877 13.6087 16.929 13.4443 16.8191C13.2799 16.7092 13.1518 16.5531 13.0761 16.3704C13.0004 16.1877 12.9806 15.9866 13.0192 15.7927C13.0578 15.5987 13.153 15.4206 13.2928 15.2807L16.5858 11.9877H3.99979C3.73457 11.9877 3.48022 11.8824 3.29268 11.6948C3.10514 11.5073 2.99979 11.2529 2.99979 10.9877C2.99979 10.7225 3.10514 10.4681 3.29268 10.2806C3.48022 10.0931 3.73457 9.98771 3.99979 9.98771H18.9998C19.1975 9.98775 19.3908 10.0464 19.5552 10.1563C19.7197 10.2662 19.8478 10.4224 19.9235 10.6051C19.9991 10.7878 20.0189 10.9888 19.9804 11.1827C19.9418 11.3767 19.8466 11.5549 19.7068 11.6947L14.7068 16.6947C14.5193 16.8823 14.265 16.9877 13.9998 16.9877ZM16.9998 5.98771C16.9998 5.7225 16.8944 5.46814 16.7069 5.28061C16.5194 5.09307 16.265 4.98771 15.9998 4.98771H3.41379L6.70679 1.69471C6.88894 1.50611 6.98974 1.25351 6.98746 0.99131C6.98518 0.729114 6.88001 0.478301 6.69461 0.292893C6.5092 0.107485 6.25838 0.00231622 5.99619 3.78026e-05C5.73399 -0.00224062 5.48139 0.0985537 5.29279 0.280712L0.292787 5.28071C0.152977 5.42056 0.057771 5.59873 0.0192035 5.79268C-0.0193641 5.98663 0.000438951 6.18767 0.076109 6.37037C0.151779 6.55307 0.279918 6.70923 0.444328 6.81911C0.608738 6.929 0.802037 6.98767 0.999787 6.98771H15.9998C16.265 6.98771 16.5194 6.88235 16.7069 6.69482C16.8944 6.50728 16.9998 6.25293 16.9998 5.98771Z" fill="black"/>
</svg>
