<svg width="28" height="28" viewBox="0 0 28 28" fill="none" xmlns="http://www.w3.org/2000/svg">
<g clip-path="url(#clip0_2263_22552)">
<path d="M0.4375 26.6875H27.5625V27.5625H0.4375V26.6875Z" fill="#1FA0FE"/>
<path d="M1.75 20.125H5.25V25.8125H1.75V20.125Z" fill="#1FA0FE"/>
<path d="M8.75 15.75H12.25V25.8125H8.75V15.75Z" fill="#1FA0FE"/>
<path d="M15.75 11.375H19.25V25.8125H15.75V11.375Z" fill="#1FA0FE"/>
<path d="M22.75 7H26.25V25.8125H22.75V7Z" fill="#1FA0FE"/>
<path d="M3.5 13.5625C4.40609 13.5625 5.14062 12.828 5.14062 11.9219C5.14062 11.0158 4.40609 10.2812 3.5 10.2812C2.59391 10.2812 1.85938 11.0158 1.85938 11.9219C1.85938 12.828 2.59391 13.5625 3.5 13.5625Z" fill="#1FA0FE"/>
<path d="M6.125 15.3125C6.125 14.8484 5.94063 14.4033 5.61244 14.0751C5.28425 13.7469 4.83913 13.5625 4.375 13.5625H2.625C2.16087 13.5625 1.71575 13.7469 1.38756 14.0751C1.05937 14.4033 0.875 14.8484 0.875 15.3125V18.375H6.125V15.3125Z" fill="#1FA0FE"/>
<path d="M9.68887 10.9557L7.875 11.2196L9.1875 12.4988L8.87775 14.3053L10.5 13.4526L12.1223 14.3053L11.8125 12.4988L13.125 11.2196L11.3111 10.9557L10.5 9.3125L9.68887 10.9557Z" fill="#1FA0FE"/>
<path d="M15.8777 9.93025L17.5 9.07756L19.1223 9.93025L18.8125 8.12381L20.125 6.84456L18.3111 6.58075L17.5 4.9375L16.6889 6.58075L14.875 6.84456L16.1875 8.12381L15.8777 9.93025Z" fill="#1FA0FE"/>
<path d="M22.8777 5.55525L24.5 4.70256L26.1223 5.55525L25.8125 3.74881L27.125 2.46956L25.3111 2.20575L24.5 0.5625L23.6889 2.20575L21.875 2.46956L23.1875 3.74881L22.8777 5.55525Z" fill="#1FA0FE"/>
<path d="M4.30978 7.94481L8.33084 5.7245L9.06278 7.04969L10.5603 3.99375L7.17584 3.63281L7.90778 4.95844L3.88672 7.17875L4.30978 7.94481Z" fill="#1FA0FE"/>
</g>
<defs>
<clipPath id="clip0_2263_22552">
<rect width="28" height="28" fill="white"/>
</clipPath>
</defs>
</svg>
