<svg width="40" height="40" viewBox="0 0 40 40" fill="none" xmlns="http://www.w3.org/2000/svg">
<path d="M0 20C0 8.95431 8.95431 0 20 0C31.0457 0 40 8.95431 40 20C40 31.0457 31.0457 40 20 40C8.95431 40 0 31.0457 0 20Z" fill="#F97316"/>
<path d="M21.8313 12.2344L14.0536 21.5676C13.749 21.9331 13.5967 22.1158 13.5944 22.2702C13.5924 22.4044 13.6522 22.532 13.7566 22.6164C13.8766 22.7134 14.1145 22.7134 14.5903 22.7134H20.958L20.0848 29.6994L27.8624 20.3662C28.167 20.0007 28.3193 19.8179 28.3217 19.6636C28.3237 19.5294 28.2639 19.4018 28.1595 19.3174C28.0394 19.2204 27.8015 19.2204 27.3258 19.2204H20.958L21.8313 12.2344Z" stroke="#EDECFE" stroke-width="1.7465" stroke-linecap="round" stroke-linejoin="round"/>
</svg>
