<svg width="20" height="20" viewBox="0 0 20 20" fill="none" xmlns="http://www.w3.org/2000/svg">
<path fill-rule="evenodd" clip-rule="evenodd" d="M5.01414 10.8421H1.85695C1.3916 10.8421 1.01172 10.4622 1.01172 9.99687C1.01172 9.53152 1.3916 9.15164 1.85695 9.15164H5.01402C5.3327 8.51074 5.99023 8.09543 6.7173 8.09543C7.44438 8.09543 8.10191 8.51074 8.42059 9.15164H18.1448C18.6101 9.15164 18.99 9.53152 18.99 9.99687C18.99 10.4622 18.6102 10.8421 18.1448 10.8421H8.42047C8.1018 11.483 7.44441 11.8983 6.7173 11.8983C5.99023 11.8983 5.33281 11.483 5.01414 10.8421ZM11.6739 15.7463C11.9921 15.1061 12.6485 14.6901 13.3749 14.6901C14.102 14.6901 14.7593 15.1055 15.078 15.7463H18.1448C18.6101 15.7463 18.99 16.1262 18.99 16.5916C18.99 17.0569 18.6102 17.4368 18.1448 17.4368H15.0782C14.7595 18.0777 14.102 18.493 13.3749 18.493C12.6486 18.493 11.992 18.077 11.6738 17.4368H1.85695C1.3916 17.4368 1.01172 17.0569 1.01172 16.5916C1.01172 16.1262 1.39156 15.7463 1.85695 15.7463H11.6739ZM11.6738 2.55633C11.992 1.91602 12.6485 1.5 13.3749 1.5C14.102 1.5 14.7595 1.91535 15.0781 2.55633H18.1447C18.6101 2.55633 18.99 2.93621 18.99 3.40156C18.99 3.86691 18.6101 4.2468 18.1447 4.2468H15.0781C14.7595 4.88777 14.102 5.30312 13.3749 5.30312C12.6485 5.30312 11.992 4.88711 11.6738 4.2468H1.85695C1.3916 4.2468 1.01172 3.86691 1.01172 3.40156C1.01172 2.93621 1.39156 2.55633 1.85695 2.55633H11.6738Z" fill="black"/>
</svg>
