<svg width="28" height="28" viewBox="0 0 28 28" fill="none" xmlns="http://www.w3.org/2000/svg">
<g clip-path="url(#clip0_1857_1712)">
<path d="M17.2889 20.4062L16.2949 24.1163L20.0845 25.1317C20.2793 24.1382 20.1022 23.1079 19.5867 22.2366C19.0712 21.3653 18.2534 20.7138 17.2889 20.4062Z" fill="#787878"/>
<path d="M9.90959 12.2567C9.64371 12.1864 9.36426 12.1853 9.0978 12.2533C8.83133 12.3214 8.58669 12.4565 8.38709 12.6457C8.28781 12.7391 8.1805 12.8235 8.06641 12.8981L12.5613 18.5419C12.9041 18.9768 13.3859 19.2809 13.9261 19.4032C14.4663 19.5256 15.0321 19.4587 15.5288 19.2139L15.7625 19.1001L10.7496 12.8067C10.5361 12.5377 10.2415 12.3448 9.90959 12.2567Z" fill="#787878"/>
<path d="M3.52552 19.1952C3.62072 18.84 3.64502 18.4695 3.59703 18.1049C3.54905 17.7403 3.4297 17.3887 3.24583 17.0703C3.06195 16.7518 2.81714 16.4727 2.52538 16.2488C2.23361 16.025 1.90061 15.8608 1.54539 15.7656L0.447266 19.865L3.15014 20.5895L3.52552 19.1952Z" fill="#787878"/>
<path d="M22.941 11.2919L21.9907 8.36719H18.9151L17.9648 11.2919L20.4529 13.0992L22.941 11.2919Z" fill="#787878"/>
<path d="M22.5938 8.09481L23.5878 11.1573L25.1829 11.6906L27.8516 9.75031C27.7443 8.69394 27.4101 7.6732 26.8721 6.75781H23.5777L22.5938 8.09481Z" fill="#787878"/>
<path d="M20.1252 15.3652V13.6712L17.5238 11.7812L15.9287 12.3146L14.9102 15.4475C15.6167 16.2411 16.4849 16.8743 17.4564 17.3047L20.1252 15.3652Z" fill="#787878"/>
<path d="M15.7228 11.6854L17.3179 11.1513L18.3119 8.08875L17.328 6.75H14.0323C13.4942 7.66539 13.1601 8.68613 13.0527 9.7425L15.7228 11.6854Z" fill="#787878"/>
<path d="M25.625 12.1767L26.4878 14.8327C27.3923 13.5804 27.8819 12.0761 27.8878 10.5312L25.625 12.1767Z" fill="#787878"/>
<path d="M13.0176 10.5312C13.0235 12.0761 13.5131 13.5803 14.4176 14.8327L15.2808 12.1767L13.0176 10.5312Z" fill="#787878"/>
<path d="M23.3826 11.7812L20.7812 13.6712V15.3652L23.45 17.3047C24.4211 16.8743 25.289 16.2412 25.9954 15.4479L24.9773 12.3146L23.3826 11.7812Z" fill="#787878"/>
<path d="M18.1875 17.5838C19.661 18.0557 21.2452 18.0557 22.7187 17.5838L20.4533 15.9375L18.1875 17.5838Z" fill="#787878"/>
<path d="M26.4413 6.09794C25.528 4.85344 24.2503 3.92371 22.7852 3.4375L23.6497 6.09794H26.4413Z" fill="#787878"/>
<path d="M18.121 3.4375C16.6559 3.92371 15.3782 4.85344 14.4648 6.09794H17.2565L18.121 3.4375Z" fill="#787878"/>
<path d="M18.8427 7.70973H22.0627L23.0466 6.37055L22.0272 3.23323C20.9896 3.00559 19.9149 3.00559 18.8772 3.23323L17.8574 6.37055L18.8427 7.70973Z" fill="#787878"/>
<path d="M0.135347 21.0281C0.0829463 21.2241 0.110506 21.433 0.211975 21.6088C0.313443 21.7846 0.480526 21.9129 0.676534 21.9656L18.8481 26.835C19.0442 26.8873 19.2531 26.8596 19.4289 26.7581C19.6046 26.6565 19.733 26.4894 19.7857 26.2934L19.9274 25.7653L0.276659 20.5L0.135347 21.0281Z" fill="#787878"/>
<path d="M12.0324 18.9346L11.4501 18.2031L7.42773 21.7381L8.51142 22.0286L12.0324 18.9346Z" fill="#787878"/>
<path d="M6.66616 21.5372L11.0412 17.6924L10.4584 16.9609L5.58203 21.2467L6.66616 21.5372Z" fill="#787878"/>
<path d="M4.15916 19.3699L3.78553 20.7647L4.82022 21.0416L10.0492 16.4461L7.45616 13.1898C6.99352 13.3338 6.49743 13.3297 6.03727 13.1779C5.57712 13.0261 5.17592 12.7343 4.88978 12.3432L4.47372 11.7784C4.35034 11.6107 4.1821 11.4812 3.98836 11.405C3.79463 11.3287 3.58328 11.3087 3.37868 11.3473C3.17407 11.3859 2.98453 11.4815 2.83189 11.6231C2.67924 11.7647 2.56971 11.9465 2.51591 12.1477L1.71484 15.138C2.60009 15.3752 3.3549 15.9542 3.81327 16.7478C4.27165 17.5414 4.39606 18.4846 4.15916 19.3699Z" fill="#787878"/>
<path d="M16.6783 20.1496C16.5596 20.0704 16.4533 19.9739 16.3629 19.8634L16.18 19.6333L15.8143 19.8109C15.2822 20.076 14.6839 20.1789 14.0938 20.107C13.5038 20.035 12.9478 19.7914 12.495 19.4062L9.27539 22.2356L15.6629 23.9466L16.6783 20.1496Z" fill="#787878"/>
<path d="M16.3806 27.2983C16.3848 27.367 16.4105 27.4327 16.4541 27.486C16.4977 27.5393 16.5569 27.5776 16.6235 27.5954L17.4346 27.8141C17.5011 27.8318 17.5715 27.8282 17.6358 27.8038C17.7002 27.7794 17.7553 27.7354 17.7933 27.6781L18.044 27.2979L16.3535 26.8438L16.3806 27.2983Z" fill="#787878"/>
<path d="M13.0017 26.3994C13.0059 26.4682 13.0316 26.534 13.0752 26.5874C13.1187 26.6407 13.178 26.6791 13.2445 26.6969L14.0552 26.9157C14.1217 26.9337 14.1922 26.9302 14.2566 26.9057C14.3211 26.8813 14.3761 26.8372 14.414 26.7796L14.6647 26.3999L12.9746 25.9453L13.0017 26.3994Z" fill="#787878"/>
<path d="M9.61936 25.4923C9.62338 25.561 9.64897 25.6267 9.69249 25.6801C9.736 25.7334 9.79523 25.7716 9.86173 25.7894L10.6729 26.0081C10.7394 26.0259 10.8098 26.0223 10.8742 25.9979C10.9385 25.9735 10.9936 25.9295 11.0316 25.8721L11.2823 25.4919L9.5918 25.0391L9.61936 25.4923Z" fill="#787878"/>
<path d="M4.33767 24.0796C4.34179 24.1483 4.36747 24.214 4.41106 24.2673C4.45464 24.3207 4.51393 24.3589 4.58048 24.3766L5.39117 24.5954C5.45769 24.6131 5.5281 24.6096 5.59247 24.5851C5.65684 24.5607 5.71192 24.5167 5.74992 24.4593L6.00061 24.0791L4.31055 23.625L4.33767 24.0796Z" fill="#787878"/>
<path d="M0.95725 23.1733C0.961317 23.2421 0.986914 23.3078 1.03041 23.3612C1.07392 23.4146 1.13311 23.4529 1.19963 23.4708L2.01075 23.6896C2.07726 23.7074 2.1477 23.7039 2.21209 23.6794C2.27647 23.655 2.33154 23.611 2.3695 23.5535L2.62019 23.1738L0.929688 22.7188L0.95725 23.1733Z" fill="#787878"/>
<path d="M12.1506 4.20825L4.14564 2.79688L4.0332 3.95844L11.8588 5.33788L12.1506 4.20825Z" fill="#787878"/>
<path d="M13.1049 0.519313C13.1174 0.47081 13.1186 0.420093 13.1084 0.371047C13.0983 0.322001 13.0771 0.275928 13.0464 0.236357C13.0157 0.196787 12.9763 0.16477 12.9313 0.14276C12.8863 0.120749 12.8369 0.109329 12.7868 0.109375H4.70531C4.62375 0.109335 4.54511 0.13971 4.48476 0.194564C4.4244 0.249418 4.38667 0.324809 4.37894 0.406L4.21094 2.14375L12.3165 3.57306L13.1049 0.519313Z" fill="#787878"/>
<path d="M4.03994 10.733C4.42567 10.8368 4.76491 11.0681 5.00244 11.3893L5.4185 11.9536C5.64469 12.2611 5.96864 12.4826 6.33725 12.5819C6.43152 12.6073 6.52786 12.6242 6.62512 12.6326C6.86326 12.6535 7.1031 12.6233 7.32866 12.5442C7.55423 12.465 7.76033 12.3387 7.93325 12.1737C8.21461 11.9071 8.55944 11.7168 8.935 11.6208C9.31057 11.5249 9.70442 11.5265 10.0792 11.6255C10.1291 11.6391 10.1768 11.6579 10.2249 11.6754L11.6953 5.97781L3.97081 4.61719L3.38281 10.691C3.60252 10.6628 3.8256 10.6771 4.03994 10.733Z" fill="#787878"/>
</g>
<defs>
<clipPath id="clip0_1857_1712">
<rect width="28" height="28" fill="white"/>
</clipPath>
</defs>
</svg>
