<svg width="28" height="28" viewBox="0 0 28 28" fill="none" xmlns="http://www.w3.org/2000/svg">
<path d="M15.832 25.3369V19.5368C15.832 19.3133 15.6507 19.132 15.4279 19.132C15.2044 19.132 15.0237 19.3133 15.0237 19.5368V25.3369H12.8205V17.2192H18.0347V25.3369H15.832V25.3369ZM19.403 19.6955C19.7125 19.6955 19.9642 19.4444 19.9642 19.1355V12.2799C19.9642 11.1708 19.302 10.1651 18.2772 9.71761C17.6132 9.43006 16.8245 9.4532 16.0613 9.47513C15.8794 9.48092 15.6912 9.48612 15.5064 9.48727C15.4804 9.48787 15.4539 9.48787 15.4279 9.48787H13.6831C12.1432 9.48787 10.891 10.7402 10.891 12.28V19.1356C10.891 19.4444 11.1421 19.6956 11.451 19.6956C11.7605 19.6956 12.0122 19.4445 12.0122 19.1356V14.4532C12.0122 14.2303 12.193 14.049 12.4164 14.049C12.6398 14.049 12.8205 14.2303 12.8205 14.4532V16.4104H18.0346V14.4532C18.0346 14.2303 18.2159 14.049 18.4388 14.049C18.6622 14.049 18.8435 14.2303 18.8435 14.4532V19.1356C18.8436 19.4444 19.0941 19.6955 19.403 19.6955ZM18.2084 5.89895C18.2084 4.36551 16.9608 3.11781 15.4279 3.11781C13.8944 3.11781 12.6473 4.36551 12.6473 5.89895C12.6473 7.43184 13.8944 8.67953 15.4279 8.67953C16.9608 8.67953 18.2084 7.43184 18.2084 5.89895ZM9.93835 0.948086V0.03125H2.01758V1.86262H9.02381C9.52787 1.86262 9.93835 1.45214 9.93835 0.948086ZM2.01758 26.1452V27.9766H25.9837V26.1452H2.01758ZM20.6957 0.452125C20.6957 0.229273 20.515 0.0479844 20.2916 0.0479844H10.7466V0.856266H20.2915C20.515 0.85632 20.6957 0.675578 20.6957 0.452125ZM7.18549 2.67151H2.01758V4.18187H4.92859C5.15205 4.18187 5.33334 4.36256 5.33334 4.58601C5.33334 4.80946 5.15205 4.99015 4.92859 4.99015H2.01758V6.0658H3.4558C3.67926 6.0658 3.85995 6.24648 3.85995 6.46994C3.85995 6.69339 3.67926 6.87408 3.4558 6.87408H2.01758V7.94912H4.92859C5.15205 7.94912 5.33334 8.13041 5.33334 8.35327C5.33334 8.57672 5.15205 8.75801 4.92859 8.75801H2.01758V9.83305H3.4558C3.67926 9.83305 3.85995 10.0143 3.85995 10.2372C3.85995 10.4606 3.67926 10.6413 3.4558 10.6413H2.01758V11.7169H4.92859C5.15205 11.7169 5.33334 11.8977 5.33334 12.1211C5.33334 12.3445 5.15205 12.5252 4.92859 12.5252H2.01758V13.6003H3.4558C3.67926 13.6003 3.85995 13.7815 3.85995 14.005C3.85995 14.2279 3.67926 14.4091 3.4558 14.4091H2.01758V15.4842H4.92859C5.15205 15.4842 5.33334 15.6655 5.33334 15.8883C5.33334 16.1118 5.15205 16.2925 4.92859 16.2925H2.01758V17.3664H3.4558C3.67926 17.3664 3.85995 17.5471 3.85995 17.7705C3.85995 17.994 3.67926 18.1746 3.4558 18.1746H2.01758V19.2502H4.92859C5.15205 19.2502 5.33334 19.431 5.33334 19.6544C5.33334 19.8772 5.15205 20.0585 4.92859 20.0585H2.01758V21.1336H3.4558C3.67926 21.1336 3.85995 21.3149 3.85995 21.5377C3.85995 21.7612 3.67926 21.9425 3.4558 21.9425H2.01758V23.0175H4.92859C5.15205 23.0175 5.33334 23.1982 5.33334 23.4216C5.33334 23.645 5.15205 23.8258 4.92859 23.8258H2.01758V25.3367H7.18549V2.67151ZM22.3451 21.758C22.1872 21.6001 21.9313 21.6001 21.7734 21.758C21.6156 21.9158 21.6156 22.1718 21.7734 22.3296L23.0893 23.6455C23.1682 23.7244 23.2717 23.7639 23.3751 23.7639C23.4785 23.7639 23.5819 23.7244 23.6608 23.6457L24.9783 22.3299C25.1362 22.1721 25.1364 21.9161 24.9787 21.7582C24.8208 21.6002 24.5649 21.6001 24.407 21.7578L23.7794 22.3845V6.17162L24.407 6.79839C24.4859 6.8772 24.5892 6.91657 24.6927 6.91657C24.7962 6.91657 24.8997 6.87703 24.9787 6.79801C25.1364 6.64007 25.1363 6.38408 24.9783 6.2263L23.6608 4.91047C23.5029 4.7528 23.2471 4.75286 23.0893 4.91069L21.7735 6.22652C21.6156 6.38435 21.6156 6.64034 21.7735 6.79817C21.9314 6.95605 22.1873 6.95605 22.3451 6.79817L22.9709 6.17238V22.3836L22.3451 21.758Z" fill="#787878"/>
</svg>
