<svg width="28" height="28" viewBox="0 0 28 28" fill="none" xmlns="http://www.w3.org/2000/svg">
<path fill-rule="evenodd" clip-rule="evenodd" d="M3.87891 23.7033V25.4908C3.87891 25.5192 3.90209 25.5424 3.93048 25.5424H8.30772C8.33617 25.5424 8.3593 25.5192 8.3593 25.4908V23.7126C8.3593 23.6842 8.33611 23.6611 8.30772 23.6611H4.35003C4.17218 23.6611 4.01924 23.6931 3.91603 23.7447C3.89313 23.7561 3.87891 23.6633 3.87891 23.7033ZM14.1268 5.49986C15.286 6.4611 16.6577 7.08432 18.1329 7.48047C18.1467 7.48416 18.16 7.48237 18.1723 7.47515C18.1847 7.46787 18.1928 7.45717 18.1963 7.44328L19.2088 3.43626C19.2141 3.41537 19.2065 3.39448 19.189 3.38183C19.1716 3.36917 19.1494 3.3685 19.1311 3.38004L16.0573 5.32811L16.0571 5.32772C15.9983 5.36507 15.92 5.34984 15.8796 5.29216L13.9147 2.47519C13.9047 2.46091 13.8897 2.45312 13.8723 2.45312C13.8549 2.45312 13.84 2.46091 13.83 2.47519L11.8713 5.28292C11.8711 5.28331 11.8708 5.2837 11.8706 5.28409C11.827 5.35029 11.7491 5.36731 11.6873 5.32805L8.61348 3.37998C8.59528 3.36844 8.57305 3.36912 8.55558 3.38177C8.53811 3.39443 8.53055 3.41532 8.53581 3.4362L9.54835 7.44328C9.55187 7.45717 9.55988 7.46787 9.57226 7.47515C9.58463 7.48243 9.59791 7.48422 9.61174 7.48047C11.0867 7.08427 12.4635 6.45892 13.6212 5.497C13.7704 5.37302 13.9841 5.37812 14.1268 5.49986ZM13.8957 18.5499C13.8806 18.5576 13.8642 18.5576 13.8491 18.5499C10.1217 16.6683 7.69559 12.8945 7.95722 8.66638C7.95873 8.64191 7.97671 8.62231 8.00095 8.61856C10.1263 8.28888 12.1662 7.61151 13.841 6.32642C13.8598 6.31203 13.885 6.31203 13.9038 6.32642C15.5786 7.61151 17.6186 8.28888 19.7439 8.61856C19.7682 8.62231 19.7862 8.64185 19.7877 8.66638C20.0482 12.8962 17.6249 16.6673 13.8957 18.5499ZM16.1409 15.268C16.1418 15.2686 16.1425 15.2692 16.1434 15.2698C16.2035 15.3194 16.2926 15.2595 16.2683 15.1847L15.4048 12.5443C15.3977 12.5227 15.4051 12.4999 15.4235 12.4865L17.6741 10.8579C17.735 10.8134 17.704 10.7155 17.6279 10.7156L14.8498 10.7209C14.827 10.721 14.8076 10.7069 14.8006 10.6852L13.9474 8.04204C13.9241 7.96907 13.8209 7.9689 13.7975 8.04159L12.9441 10.6852C12.9371 10.7069 12.9178 10.721 12.8949 10.7209L10.1231 10.7156C10.1226 10.7156 10.1222 10.7156 10.1217 10.7156C10.0384 10.7132 10.0099 10.814 10.0705 10.8579L12.3211 12.4865C12.3396 12.4999 12.347 12.5227 12.3399 12.5443L11.4764 15.1847L11.4766 15.1848C11.4533 15.2567 11.5361 15.3173 11.5975 15.2725L13.8419 13.6353C13.8603 13.6218 13.8843 13.6218 13.9027 13.6353L16.1409 15.268ZM19.6427 16.8775V25.4907C19.6427 25.5192 19.6659 25.5423 19.6943 25.5423H24.0715C24.0999 25.5423 24.1231 25.5191 24.1231 25.4907V16.8775C24.1231 16.8505 24.0915 16.8153 24.0406 16.7804C23.9463 16.7158 23.8093 16.6757 23.6519 16.6757H20.1138C19.9565 16.6757 19.8194 16.7158 19.7251 16.7804C19.6743 16.8154 19.6427 16.8506 19.6427 16.8775ZM14.3881 19.8836V25.4907C14.3881 25.5192 14.4113 25.5423 14.4397 25.5423H18.8169C18.8454 25.5423 18.8685 25.5191 18.8685 25.4907V19.8174C18.8685 19.7889 18.8453 19.7658 18.8169 19.7658H14.8592C14.6912 19.7658 14.5462 19.8017 14.4478 19.8595C14.411 19.8812 14.3881 19.8762 14.3881 19.8836ZM9.1335 21.9028V25.4908C9.1335 25.5192 9.15668 25.5424 9.18507 25.5424H13.5623C13.5908 25.5424 13.6139 25.5192 13.6139 25.4908V21.8721C13.6139 21.8437 13.5907 21.8206 13.5623 21.8206H9.60457C9.4322 21.8206 9.28352 21.8548 9.18267 21.9099C9.15237 21.9265 9.1335 21.8801 9.1335 21.9028Z" fill="#1FA0FE"/>
</svg>
