<svg width="12" height="11" viewBox="0 0 12 11" fill="none" xmlns="http://www.w3.org/2000/svg">
<path d="M5.99999 10.6761C5.82915 10.6761 5.66445 10.6143 5.53609 10.5018C5.05132 10.0779 4.58395 9.6796 4.17159 9.32822L4.16949 9.32639C2.96054 8.29614 1.91656 7.40643 1.19018 6.53C0.378204 5.5502 0 4.62122 0 3.60635C0 2.62033 0.338104 1.71066 0.951964 1.0448C1.57315 0.371063 2.4255 0 3.35229 0C4.04498 0 4.67934 0.218994 5.23772 0.650848C5.51952 0.868835 5.77495 1.13562 5.99999 1.44681C6.22512 1.13562 6.48046 0.868835 6.76235 0.650848C7.32073 0.218994 7.95509 0 8.64778 0C9.57448 0 10.4269 0.371063 11.0481 1.0448C11.662 1.71066 12 2.62033 12 3.60635C12 4.62122 11.6219 5.5502 10.8099 6.52991C10.0835 7.40643 9.03963 8.29605 7.83086 9.3262C7.41777 9.67813 6.94966 10.0771 6.46379 10.502C6.33553 10.6143 6.17073 10.6761 5.99999 10.6761ZM3.35229 0.702942C2.62417 0.702942 1.95529 0.99353 1.46869 1.52124C0.974852 2.05692 0.702849 2.79739 0.702849 3.60635C0.702849 4.4599 1.02008 5.22327 1.73135 6.08148C2.41882 6.91104 3.44137 7.78244 4.62533 8.79144L4.62752 8.79327C5.04143 9.14603 5.51064 9.54593 5.99898 9.97293C6.49025 9.5451 6.96019 9.14456 7.37493 8.79126C8.55879 7.78226 9.58125 6.91104 10.2687 6.08148C10.9799 5.22327 11.2971 4.4599 11.2971 3.60635C11.2971 2.79739 11.0251 2.05692 10.5313 1.52124C10.0448 0.99353 9.37581 0.702942 8.64778 0.702942C8.1144 0.702942 7.62468 0.872498 7.19228 1.20685C6.80693 1.50494 6.5385 1.88177 6.38112 2.14545C6.30019 2.28104 6.15773 2.36197 5.99999 2.36197C5.84224 2.36197 5.69979 2.28104 5.61886 2.14545C5.46157 1.88177 5.19314 1.50494 4.8077 1.20685C4.3753 0.872498 3.88558 0.702942 3.35229 0.702942Z" fill="white"/>
</svg>
