<svg width="28" height="28" viewBox="0 0 28 28" fill="none" xmlns="http://www.w3.org/2000/svg">
<g clip-path="url(#clip0_2263_22649)">
<path d="M16.2317 17.1777C20.9301 17.1777 24.7525 13.3247 24.7525 8.58886C24.7525 3.85301 20.9301 0 16.2317 0C11.5333 0 7.71094 3.85295 7.71094 8.58881C7.71094 13.3247 11.5333 17.1777 16.2317 17.1777ZM13.4937 11.269C13.7416 10.8901 14.2497 10.7837 14.6286 11.0317C15.1807 11.3928 15.3889 11.4261 16.1174 11.421C16.8285 11.4163 17.2411 10.8863 17.3235 10.3959C17.3636 10.1573 17.379 9.57473 16.657 9.31949C15.8101 9.02009 14.9434 8.67789 14.3404 8.20496C13.7375 7.73203 13.4613 6.9156 13.6199 6.0744C13.7918 5.16249 14.4279 4.43656 15.2801 4.1799C15.2878 4.1776 15.2953 4.17575 15.3031 4.17345V3.86268C15.3031 3.40992 15.6701 3.04286 16.1229 3.04286C16.5756 3.04286 16.9427 3.40992 16.9427 3.86268V4.1218C17.4995 4.25472 17.8884 4.50947 18.0463 4.62747C18.4089 4.89861 18.4832 5.41231 18.2121 5.77501C17.941 6.1377 17.4273 6.21192 17.0646 5.94072C16.8966 5.81512 16.4323 5.54513 15.753 5.74981C15.3561 5.86939 15.2532 6.26094 15.2311 6.37807C15.1878 6.60822 15.2364 6.82394 15.3523 6.91478C15.7702 7.2426 16.5226 7.53287 17.2034 7.77352C18.4588 8.21726 19.1568 9.38032 18.9404 10.6677C18.8343 11.2993 18.5165 11.8853 18.0456 12.3179C17.7249 12.6126 17.3516 12.8227 16.9427 12.9427V13.3149C16.9427 13.7677 16.5756 14.1348 16.1229 14.1348C15.6701 14.1348 15.3031 13.7677 15.3031 13.3149V13.0244C14.773 12.9602 14.328 12.7944 13.7309 12.4038C13.3521 12.156 13.2458 11.6478 13.4937 11.269Z" fill="#1FA0FE"/>
<path d="M3.1071 19.9297H1.23779C0.785031 19.9297 0.417969 20.2968 0.417969 20.7495V27.1764C0.417969 27.6291 0.785031 27.9962 1.23779 27.9962H3.10716L3.1071 19.9297Z" fill="#1FA0FE"/>
<path d="M27.3404 19.8735C25.8039 18.3369 23.3036 18.3368 21.7671 19.8735L19.3112 22.3293L18.3046 23.3359C17.8978 23.7427 17.346 23.9712 16.7707 23.9712H11.8762C11.4341 23.9712 11.0537 23.6315 11.0329 23.1899C11.0107 22.7185 11.3863 22.3293 11.8529 22.3293H16.828C17.8282 22.3293 18.6958 21.6171 18.8678 20.6318C18.9073 20.4055 18.9279 20.1728 18.9279 19.9354C18.928 19.4818 18.5605 19.1138 18.1069 19.1138H15.3809C14.49 19.1138 13.6345 18.7097 12.7287 18.2817C11.7787 17.8329 10.7963 17.3689 9.6476 17.2925C8.64294 17.2255 7.63597 17.3355 6.65454 17.6189C5.60368 17.9224 4.8483 18.856 4.7567 19.9339C4.7532 19.9336 4.74965 19.9335 4.74609 19.9333V27.9944L18.8704 27.9983C19.8415 27.9983 20.7546 27.6201 21.4414 26.9334L27.3403 21.0345C27.6611 20.714 27.6611 20.1941 27.3404 19.8735Z" fill="#1FA0FE"/>
</g>
<defs>
<clipPath id="clip0_2263_22649">
<rect width="28" height="28" fill="white"/>
</clipPath>
</defs>
</svg>
