<svg width="60" height="60" viewBox="0 0 60 60" fill="none" xmlns="http://www.w3.org/2000/svg">
<g clip-path="url(#clip0_1937_7015)">
<path d="M30 60C46.5685 60 60 46.5685 60 30C60 13.4315 46.5685 0 30 0C13.4315 0 0 13.4315 0 30C0 46.5685 13.4315 60 30 60Z" fill="#E3E3E3"/>
<path d="M31.6016 44.4C31.6016 45.2836 30.8852 46 30.0016 46H22.0016C18.4727 46 15.6016 43.1289 15.6016 39.6V20.4C15.6016 16.8711 18.4727 14 22.0016 14H30.0016C30.8851 14 31.6016 14.7164 31.6016 15.6C31.6016 16.4836 30.8852 17.2 30.0016 17.2H22.0016C20.2367 17.2 18.8016 18.6351 18.8016 20.4V39.6C18.8016 41.3648 20.2367 42.8 22.0016 42.8H30.0016C30.8852 42.8 31.6016 43.5164 31.6016 44.4ZM44.2781 30.6114C44.4399 30.2202 44.4399 29.7798 44.2781 29.3886C44.1969 29.1927 44.08 29.0157 43.9324 28.8682L37.5328 22.4688C36.9078 21.8438 35.8953 21.8438 35.2703 22.4688C34.6453 23.0938 34.6453 24.1062 35.2703 24.7312L38.9391 28.4H26.8016C25.918 28.4 25.2016 29.1164 25.2016 30C25.2016 30.8836 25.918 31.6 26.8016 31.6H38.9391L35.2703 35.2687C34.6453 35.8937 34.6453 36.9062 35.2703 37.5312C35.5828 37.8438 35.9922 38 36.4016 38C36.8109 38 37.2203 37.8438 37.5328 37.5312L43.9324 31.1318C44.08 30.9843 44.1969 30.8072 44.2781 30.6114Z" fill="black"/>
</g>
<defs>
<clipPath id="clip0_1937_7015">
<rect width="60" height="60" fill="white"/>
</clipPath>
</defs>
</svg>
