<svg width="20" height="20" viewBox="0 0 20 20" fill="none" xmlns="http://www.w3.org/2000/svg">
<path d="M5.625 2.5C3.89911 2.5 2.5 3.89911 2.5 5.625V14.375C2.5 16.1009 3.89911 17.5 5.625 17.5H10.625C12.3509 17.5 13.75 16.1009 13.75 14.375V13.75C13.75 13.4048 13.4702 13.125 13.125 13.125C12.7798 13.125 12.5 13.4048 12.5 13.75V14.375C12.5 15.4106 11.6606 16.25 10.625 16.25H5.625C4.58947 16.25 3.75 15.4106 3.75 14.375V5.625C3.75 4.58947 4.58947 3.75 5.625 3.75H10.625C11.6606 3.75 12.5 4.58947 12.5 5.625V6.25C12.5 6.59519 12.7798 6.875 13.125 6.875C13.4702 6.875 13.75 6.59519 13.75 6.25V5.625C13.75 3.89911 12.3509 2.5 10.625 2.5H5.625Z" fill="black"/>
<path d="M15.1831 7.68305C14.9391 7.92711 14.9391 8.32286 15.1831 8.56692L15.9912 9.37498H8.75C8.40487 9.37498 8.125 9.6548 8.125 9.99998C8.125 10.3452 8.40487 10.625 8.75 10.625H15.9912L15.1831 11.433C14.9391 11.6771 14.9391 12.0729 15.1831 12.3169C15.4272 12.561 15.8229 12.561 16.067 12.3169L17.942 10.4419C18.0024 10.3815 18.0479 10.3119 18.0784 10.2375C18.1066 10.1689 18.1229 10.0941 18.1249 10.0158C18.125 10.0105 18.1251 10.0052 18.1251 9.99998C18.1251 9.98998 18.1248 9.97998 18.1244 9.96998C18.1172 9.82017 18.0564 9.67248 17.942 9.55805L16.067 7.68305C15.8229 7.43898 15.4272 7.43898 15.1831 7.68305Z" fill="black"/>
</svg>
