<svg width="28" height="28" viewBox="0 0 28 28" fill="none" xmlns="http://www.w3.org/2000/svg">
<g clip-path="url(#clip0_1857_1839)">
<path d="M28 13.9992C28 16.0445 26.343 17.7016 24.2977 17.7016C22.2523 17.7016 20.5953 16.0445 20.5953 13.9992C20.5953 11.9539 22.2523 10.2969 24.2977 10.2969C26.343 10.2969 28 11.9539 28 13.9992Z" fill="#787878"/>
<path d="M17.7031 13.9992C17.7031 16.0445 16.0461 17.7016 14.0008 17.7016C11.9555 17.7016 10.2984 16.0445 10.2984 13.9992C10.2984 11.9539 11.9555 10.2969 14.0008 10.2969C16.0461 10.2969 17.7031 11.9539 17.7031 13.9992Z" fill="#787878"/>
<path d="M7.41016 13.9992C7.41016 16.0445 5.75312 17.7016 3.70781 17.7016C1.6625 17.7016 0.00546932 16.0445 0.00546932 13.9992C0.00546932 11.9539 1.6625 10.2969 3.70781 10.2969C5.74766 10.2969 7.41016 11.9539 7.41016 13.9992Z" fill="#787878"/>
</g>
<defs>
<clipPath id="clip0_1857_1839">
<rect width="28" height="28" fill="white" transform="matrix(0 1 -1 0 28 0)"/>
</clipPath>
</defs>
</svg>
