<svg width="28" height="28" viewBox="0 0 28 28" fill="none" xmlns="http://www.w3.org/2000/svg">
<g clip-path="url(#clip0_2263_22657)">
<path d="M10.0293 13C10.217 14.6498 11.2961 16.063 12.8383 16.6785C12.3136 15.5219 12.0316 14.2699 12.0098 13H10.0293Z" fill="#1FA0FE"/>
<path d="M10.0273 11.9988H12.0078C12.0297 10.7289 12.3116 9.47696 12.8363 8.32031C11.2942 8.93581 10.215 10.349 10.0273 11.9988Z" fill="#1FA0FE"/>
<path d="M15 1.85938V4.49788H19.6175L15 1.85938Z" fill="#1FA0FE"/>
<path d="M14.4978 17C15.0713 17 15.8883 15.458 15.9878 13H13.0078C13.1073 15.458 13.9243 17 14.4978 17Z" fill="#1FA0FE"/>
<path d="M5 4.82812V24.0531C5.327 24.0241 5.659 24.0031 6 24.0031C6.341 24.0031 6.673 24.0231 7 24.0531V4.82812C6.35375 5.06147 5.64625 5.06147 5 4.82812Z" fill="#1FA0FE"/>
<path d="M5.99805 4C7.10262 4 7.99805 3.10457 7.99805 2C7.99805 0.89543 7.10262 0 5.99805 0C4.89348 0 3.99805 0.89543 3.99805 2C3.99805 3.10457 4.89348 4 5.99805 4Z" fill="#1FA0FE"/>
<path d="M5.99903 25C3.52703 25 1.34903 25.926 0.442527 27.203C0.332356 27.3559 0.316935 27.5576 0.402575 27.7255C0.488214 27.8935 0.660541 27.9994 0.849027 28H11.149C11.3374 27.9992 11.5096 27.8932 11.5951 27.7253C11.6806 27.5574 11.6651 27.3559 11.555 27.203C10.6515 25.926 8.47103 25 5.99903 25Z" fill="#1FA0FE"/>
<path d="M14.4978 8C13.9243 8 13.1073 9.542 13.0078 12H15.9878C15.8883 9.542 15.0713 8 14.4978 8Z" fill="#1FA0FE"/>
<path d="M20.5 5.5H8.5C8.22386 5.5 8 5.72386 8 6V19C8 19.2761 8.22386 19.5 8.5 19.5H20.5C20.7761 19.5 21 19.2761 21 19V6C21 5.72386 20.7761 5.5 20.5 5.5ZM14.5 18C11.4624 18 9 15.5376 9 12.5C9 9.46243 11.4624 7 14.5 7C17.5376 7 20 9.46243 20 12.5C19.9964 15.5361 17.5361 17.9964 14.5 18Z" fill="#1FA0FE"/>
<path d="M16.1602 8.32031C16.6849 9.47696 16.9668 10.7289 16.9887 11.9988H18.9692C18.7815 10.349 17.7023 8.93581 16.1602 8.32031Z" fill="#1FA0FE"/>
<path d="M24.5173 8.9705C24.3603 8.6763 24.3603 8.3232 24.5173 8.029L27.6073 2.2355C27.69 2.08054 27.6854 1.89354 27.5951 1.74288C27.5047 1.59223 27.342 1.50002 27.1663 1.5H16.3828L21.7503 4.566L21.7463 4.5725C21.9018 4.65881 21.9989 4.82214 22.0003 5V15.5H27.1663C27.342 15.5 27.5047 15.4078 27.5951 15.2571C27.6854 15.1065 27.69 14.9195 27.6073 14.7645L24.5173 8.9705Z" fill="#1FA0FE"/>
<path d="M16.1602 16.6785C17.7023 16.063 18.7815 14.6498 18.9692 13H16.9887C16.9668 14.2699 16.6849 15.5219 16.1602 16.6785Z" fill="#1FA0FE"/>
</g>
<defs>
<clipPath id="clip0_2263_22657">
<rect width="28" height="28" fill="white"/>
</clipPath>
</defs>
</svg>
