<svg width="27" height="27" viewBox="0 0 27 27" fill="none" xmlns="http://www.w3.org/2000/svg">
<path fill-rule="evenodd" clip-rule="evenodd" d="M18.6667 21.3333H24.7811C25.8224 21.3333 26.6667 20.4891 26.6667 19.4477C26.6667 18.9476 26.468 18.468 26.1144 18.1144L24.7811 16.7811C24.2809 16.2809 24 15.6027 24 14.8955V10.6276C24 4.75812 19.2419 0 13.3724 0C7.49052 0 2.72724 4.77759 2.74489 10.6595L2.75752 14.8635C2.75969 15.5896 2.46571 16.2852 1.94345 16.7896L0.57152 18.1147C0.20628 18.4675 0 18.9535 0 19.4612C0 20.4952 0.838173 21.3333 1.87211 21.3333H8C8 24.2788 10.3878 26.6667 13.3333 26.6667C16.2788 26.6667 18.6667 24.2788 18.6667 21.3333ZM23.3668 18.1952L24.5049 19.3333H2.18863L3.33289 18.2281C4.24684 17.3453 4.76132 16.1281 4.75751 14.8575L4.74489 10.6535C4.73056 5.87849 8.59743 2 13.3724 2C18.1373 2 22 5.86269 22 10.6276V14.8955C22 16.1331 22.4916 17.3201 23.3668 18.1952ZM16.6667 21.3333H10C10 23.1743 11.4924 24.6667 13.3333 24.6667C15.1743 24.6667 16.6667 23.1743 16.6667 21.3333Z" fill="white"/>
</svg>
