<svg width="20" height="20" viewBox="0 0 20 20" fill="none" xmlns="http://www.w3.org/2000/svg">
<path d="M18.8718 13.6124L18.633 13.4367C17.3029 12.4585 16.5088 10.8885 16.5088 9.23737V6.5065C16.5088 6.39496 16.5053 6.28265 16.4995 6.17035C17.5748 5.63904 18.3163 4.5311 18.3163 3.25272C18.3163 1.4592 16.8571 0 15.0636 0C14.2842 0 13.5683 0.275879 13.0074 0.734558C12.0831 0.252838 11.0532 0 10.0023 0C6.41464 0 3.49579 2.91885 3.49579 6.5065V9.23737C3.49579 10.8885 2.70172 12.4583 1.37161 13.4367L1.13281 13.6124V17.4742H7.43286C7.45682 18.871 8.59985 20 10.0023 20C11.4047 20 12.5476 18.871 12.5717 17.4742H18.8718V13.6124ZM15.0636 1.17188C16.2111 1.17188 17.1445 2.10526 17.1445 3.25272C17.1445 4.40002 16.2111 5.3334 15.0636 5.3334C13.9163 5.3334 12.9829 4.40002 12.9829 3.25272C12.9829 2.10526 13.9163 1.17188 15.0636 1.17188ZM4.66766 9.23737V6.5065C4.66766 3.56491 7.06085 1.17188 10.0023 1.17188C10.7758 1.17188 11.5347 1.33942 12.2298 1.65894C11.9637 2.13028 11.8111 2.6738 11.8111 3.25272C11.8111 5.04623 13.2701 6.50528 15.0636 6.50528C15.1556 6.50528 15.2466 6.50055 15.3366 6.49307C15.3366 6.4975 15.3368 6.50208 15.3368 6.5065V9.23737C15.3368 10.7396 15.8734 12.1867 16.8172 13.3229H3.18741C4.13101 12.1867 4.66766 10.7394 4.66766 9.23737ZM10.0023 18.8281C9.24591 18.8281 8.62793 18.2248 8.60428 17.4742H11.4001C11.3766 18.2248 10.7585 18.8281 10.0023 18.8281ZM2.30469 16.3023V14.4948H17.6999V16.3023H2.30469Z" fill="black"/>
</svg>
