<svg width="32" height="32" viewBox="0 0 32 32" fill="none" xmlns="http://www.w3.org/2000/svg">
<path d="M25.6639 26.7386H30.9942C31.5488 26.7386 32 26.2874 32 25.7327V24.8422C32 21.8016 29.5263 19.3279 26.4858 19.3279H24.2958C25.4096 20.6864 26.0789 22.4229 26.0789 24.3124V25.3984C26.0789 25.8953 25.9256 26.3569 25.6639 26.7386ZM9.42937 26.7386H23.703C24.4419 26.7386 25.0432 26.1374 25.0432 25.3985V24.3125C25.0432 20.5421 21.9757 17.4748 18.2054 17.4748H13.7946C10.0243 17.4748 6.95681 20.5421 6.95681 24.3125V25.3985C6.95681 26.1374 7.558 26.7386 8.29694 26.7386H9.42937ZM5.51425 19.328C2.47369 19.328 0 21.8016 0 24.8422V25.7328C0 26.2874 0.451188 26.7387 1.00581 26.7387H6.33606C6.07431 26.3569 5.92112 25.8954 5.92112 25.3986V24.3126C5.92112 22.423 6.59044 20.6865 7.70412 19.3281H5.51425V19.328ZM20.6128 14.7829C20.6443 14.8262 20.6696 14.875 20.687 14.9286C21.2511 16.6706 22.8612 17.8409 24.6936 17.8409C27.0154 17.8409 28.9044 15.952 28.9044 13.6301C28.9044 11.3082 27.0154 9.41931 24.6935 9.41931C23.8273 9.41931 23.0013 9.67787 22.2954 10.1684C22.3011 10.2777 22.3039 10.3877 22.3039 10.4983C22.3039 12.1526 21.6614 13.6596 20.6128 14.7829ZM7.33925 9.41931C5.01744 9.41931 3.1285 11.3083 3.1285 13.6302C3.1285 15.9521 5.01744 17.841 7.33925 17.841C9.17412 17.841 10.7849 16.6685 11.3474 14.9234C11.3648 14.8696 11.3901 14.8205 11.4217 14.7772C10.3762 13.6545 9.73594 12.1499 9.73594 10.4984C9.73594 10.3894 9.73875 10.2809 9.74425 10.1733C9.03694 9.6795 8.2085 9.41931 7.33925 9.41931ZM16.0199 5.25C13.126 5.25 10.7716 7.60437 10.7716 10.4983C10.7716 13.3923 13.126 15.7466 16.0199 15.7466C18.9139 15.7466 21.2682 13.3923 21.2682 10.4983C21.2682 7.60437 18.9139 5.25 16.0199 5.25Z" fill="#F97316"/>
</svg>
