<svg width="28" height="28" viewBox="0 0 28 28" fill="none" xmlns="http://www.w3.org/2000/svg">
<path d="M11.2979 20.6292L11.7599 18.7532L13.0759 20.0692L11.4893 22.0946C10.9339 22.7992 11.0599 23.8259 11.7693 24.3859C12.0633 24.6192 12.4179 24.7312 12.7679 24.7312C13.2533 24.7312 13.7386 24.5166 14.0606 24.1059L16.2259 21.3526C16.9119 20.4752 16.8373 19.2199 16.0533 18.4312L14.2006 16.5646L16.0206 12.8499L17.3086 13.4519C18.1299 13.8812 19.1239 13.6619 19.6699 12.9246L22.4233 9.26589C22.8806 8.65456 22.7686 7.80056 22.1666 7.32456C21.8633 7.09122 21.4899 6.99322 21.1166 7.04456C20.7433 7.09589 20.4119 7.29189 20.1833 7.59522L17.9059 10.6006L16.8699 10.1619C16.8466 10.1432 16.8233 10.1292 16.7953 10.1199L13.8086 8.74322C13.4913 8.59856 13.1413 8.54722 12.7913 8.59389L8.47927 9.16789C8.00327 9.27056 7.6206 9.60656 7.4526 10.0639L6.64994 12.3506C6.52394 12.7052 6.5426 13.0879 6.7106 13.4286C6.87394 13.7692 7.1586 14.0212 7.51327 14.1426C8.24127 14.3899 9.03927 14.0026 9.29127 13.2746L9.85594 11.6599L11.4473 11.5339L10.0706 14.3712L8.87594 16.8352C8.8666 16.8632 8.8526 16.8912 8.84794 16.9192L8.28794 19.0286L4.99794 21.8566C4.3166 22.4446 4.24194 23.4759 4.82994 24.1619C5.1146 24.4886 5.51127 24.6892 5.94527 24.7219C6.37927 24.7546 6.79927 24.6146 7.1306 24.3299L11.1486 20.8719C11.2186 20.8112 11.2746 20.7272 11.2979 20.6292Z" fill="#1FA0FE"/>
<path d="M20.7668 24.7328C22.3132 24.7328 23.5668 23.4792 23.5668 21.9328C23.5668 20.3864 22.3132 19.1328 20.7668 19.1328C19.2204 19.1328 17.9668 20.3864 17.9668 21.9328C17.9668 23.4792 19.2204 24.7328 20.7668 24.7328Z" fill="#1FA0FE"/>
<path d="M16.2688 8.86563C17.8151 8.86563 19.0688 7.61202 19.0688 6.06563C19.0688 4.51923 17.8151 3.26562 16.2688 3.26562C14.7224 3.26562 13.4688 4.51923 13.4688 6.06563C13.4688 7.61202 14.7224 8.86563 16.2688 8.86563Z" fill="#1FA0FE"/>
</svg>
