<svg width="28" height="28" viewBox="0 0 28 28" fill="none" xmlns="http://www.w3.org/2000/svg">
<path d="M16.5882 11.375H11.4111C11.62 10.1351 12.7011 9.1875 13.9995 9.1875C15.2979 9.1875 16.3793 10.1351 16.5882 11.375ZM5.70455 8.63977C5.95897 4.68005 9.11632 1.36462 13.0491 0.927979C13.3653 0.892944 13.6851 0.875 14 0.875C18.5835 0.875 22.312 4.604 22.312 9.1875C22.312 12.8434 19.9007 16.0747 16.4177 17.1334L15.334 21.1439C15.651 21.2153 15.9311 21.3081 16.1669 21.4158C16.1891 21.4259 16.2082 21.4368 16.2296 21.4472C16.3054 21.4839 16.376 21.5218 16.442 21.5609C16.4679 21.5762 16.494 21.5912 16.5183 21.6069C16.5917 21.654 16.6584 21.7022 16.7176 21.7514C16.734 21.7651 16.7478 21.7788 16.7631 21.7926C16.8122 21.8367 16.8555 21.8812 16.8927 21.9259C16.9018 21.9369 16.9125 21.9477 16.9209 21.9587C16.9614 22.0117 16.9917 22.0645 17.0148 22.1169C17.0202 22.1293 17.0245 22.1413 17.029 22.1537C17.0485 22.2076 17.062 22.261 17.062 22.3125C17.062 22.3621 17.0507 22.4122 17.0344 22.4624C17.0301 22.4754 17.0249 22.4884 17.0195 22.5014C17.0016 22.5455 16.9783 22.5894 16.9486 22.6332C16.9443 22.6395 16.9414 22.6458 16.9368 22.6521C16.9 22.7033 16.8544 22.7539 16.8024 22.8038C16.7946 22.8111 16.786 22.8183 16.778 22.8257C16.7272 22.8722 16.6704 22.9177 16.6073 22.9622C16.6019 22.9661 16.597 22.9699 16.5915 22.9737C16.445 23.0748 16.2672 23.1691 16.0634 23.2534C16.0625 23.2538 16.0617 23.2542 16.0608 23.2545C15.5253 23.4755 14.8111 23.625 13.9995 23.625C13.499 23.625 13.0366 23.5671 12.6286 23.472C12.6285 23.4719 12.6286 23.472 12.6286 23.472C12.3739 23.4126 12.1414 23.3385 11.9355 23.2533C11.934 23.2527 11.9326 23.2521 11.9312 23.2515C11.7288 23.1674 11.5522 23.0736 11.4066 22.9729C11.4005 22.9688 11.3952 22.9646 11.3893 22.9604C11.3267 22.9162 11.2703 22.8709 11.22 22.8247C11.2121 22.8174 11.2036 22.8103 11.1959 22.8031C11.1441 22.7533 11.0987 22.7028 11.062 22.6517C11.0573 22.6451 11.0542 22.6385 11.0497 22.6319C11.0203 22.5885 10.9973 22.5449 10.9795 22.5013C10.9741 22.4882 10.9689 22.4752 10.9646 22.4621C10.9483 22.412 10.937 22.362 10.937 22.3125C10.937 22.2638 10.9492 22.2133 10.9667 22.1621C10.9715 22.1479 10.9767 22.1339 10.9829 22.1195C11.0037 22.0714 11.0294 22.0229 11.065 21.9739C11.0776 21.9565 11.0946 21.9393 11.1089 21.9218C11.1359 21.8895 11.1653 21.8573 11.1986 21.8251C11.2246 21.7997 11.2514 21.7748 11.2813 21.7497C11.31 21.7258 11.3426 21.7024 11.3748 21.6789C11.4367 21.6333 11.5049 21.5892 11.5798 21.5458C11.6071 21.53 11.6348 21.5144 11.6638 21.499C11.7177 21.4703 11.7722 21.4422 11.832 21.415C11.832 21.415 11.832 21.415 11.832 21.415C12.0657 21.3089 12.3449 21.2172 12.6656 21.1456L11.5811 17.1334C7.91661 16.0192 5.4576 12.488 5.70455 8.63977ZM7.87453 9.1875C7.87453 12.5649 10.6222 15.3125 13.9995 15.3125C17.3769 15.3125 20.1245 12.5649 20.1245 9.1875C20.1245 5.81012 17.3769 3.0625 13.9995 3.0625C10.6222 3.0625 7.87453 5.81012 7.87453 9.1875ZM13.9995 8.3125C14.7233 8.3125 15.312 7.72375 15.312 7C15.312 6.27625 14.7233 5.6875 13.9995 5.6875C13.2758 5.6875 12.687 6.27625 12.687 7C12.687 7.72375 13.2758 8.3125 13.9995 8.3125ZM19.414 21.0769C19.2538 20.5164 18.7351 20.125 18.1519 20.125H16.5157L16.3976 20.5621C17.3531 20.9605 17.937 21.5936 17.937 22.3125C17.937 23.5596 16.2443 24.5 13.9995 24.5C11.7548 24.5 10.062 23.5596 10.062 22.3125C10.062 21.5843 10.6383 20.9548 11.6006 20.5587L11.4834 20.125H9.84713C9.26436 20.125 8.74526 20.5164 8.59743 21.0397L6.89763 25.4519C6.78334 25.8514 6.86132 26.2709 7.11168 26.6029C7.36205 26.9349 7.74379 27.125 8.1595 27.125H19.8396C20.2553 27.125 20.6372 26.9349 20.8876 26.6029C21.1375 26.2714 21.2157 25.8514 21.0888 25.4143L19.414 21.0769ZM8.74953 9.1875C8.74953 6.29248 11.1047 3.9375 13.9995 3.9375C16.8946 3.9375 19.2495 6.29248 19.2495 9.1875C19.2495 12.0825 16.8946 14.4375 13.9995 14.4375C11.1047 14.4375 8.74953 12.0825 8.74953 9.1875ZM10.4995 11.8125C10.4995 12.0543 10.6954 12.25 10.937 12.25H17.062H17.0706C17.3124 12.25 17.5081 12.0543 17.5081 11.8125C17.5081 11.7805 17.5047 11.7493 17.4982 11.7194C17.4621 10.3449 16.6281 9.16851 15.445 8.62906C15.8965 8.22804 16.187 7.64987 16.187 7C16.187 5.79388 15.2056 4.8125 13.9995 4.8125C12.7934 4.8125 11.812 5.79388 11.812 7C11.812 7.64976 12.1025 8.22783 12.5538 8.62885C11.3441 9.1805 10.4995 10.3985 10.4995 11.8125Z" fill="#1FA0FE"/>
</svg>
