<svg width="20" height="20" viewBox="0 0 20 20" fill="none" xmlns="http://www.w3.org/2000/svg">
<path d="M10 19.375C4.83063 19.375 0.625 15.1694 0.625 10C0.625 4.83063 4.83063 0.625 10 0.625C15.1694 0.625 19.375 4.83063 19.375 10C19.375 15.1694 15.1694 19.375 10 19.375ZM10 1.875C5.51969 1.875 1.875 5.51969 1.875 10C1.875 14.4803 5.51969 18.125 10 18.125C14.4803 18.125 18.125 14.4803 18.125 10C18.125 5.51969 14.4803 1.875 10 1.875Z" fill="black"/>
<path d="M10 10C8.44913 10 7.1875 8.73838 7.1875 7.1875C7.1875 5.63663 8.44913 4.375 10 4.375C11.5509 4.375 12.8125 5.63663 12.8125 7.1875C12.8125 8.73838 11.5509 10 10 10ZM10 5.625C9.1385 5.625 8.4375 6.326 8.4375 7.1875C8.4375 8.049 9.1385 8.75 10 8.75C10.8615 8.75 11.5625 8.049 11.5625 7.1875C11.5625 6.326 10.8615 5.625 10 5.625Z" fill="black"/>
<path d="M14.3756 15C14.1617 15 13.9529 14.8901 13.8367 14.6924C12.5628 12.5311 10.0253 12.5 9.99997 12.5C7.4911 12.5 6.17641 14.6704 6.16329 14.6924C5.9881 14.9893 5.60454 15.0879 5.3076 14.9124C5.01066 14.7372 4.91147 14.3549 5.08635 14.0579C5.1541 13.9432 6.77735 11.25 9.99997 11.25C10.133 11.25 13.2775 11.2821 14.9133 14.0576C15.0888 14.3552 14.9896 14.7382 14.6923 14.9133C14.5925 14.9722 14.4833 15 14.3756 15Z" fill="black"/>
</svg>
