<svg width="12" height="12" viewBox="0 0 12 12" fill="none" xmlns="http://www.w3.org/2000/svg">
<path d="M3.61107 6.86091C3.71803 6.96574 3.76703 7.11489 3.74189 7.26234L3.41035 9.19314C3.34728 9.56387 3.7355 9.84641 4.06916 9.67211L5.80349 8.76018C5.93559 8.69029 6.09369 8.69029 6.22579 8.76018L7.96012 9.67211C8.29293 9.84683 8.68242 9.5643 8.61893 9.19314L8.28739 7.26234C8.26225 7.11489 8.31125 6.96446 8.41821 6.86091L9.82101 5.4939C10.0903 5.23097 9.94204 4.77372 9.56917 4.71918L7.63062 4.43793C7.48232 4.4162 7.35449 4.3233 7.28929 4.18907L6.4221 2.43249C6.25506 2.09542 5.77395 2.09542 5.60818 2.43249L4.741 4.18907C4.67452 4.32331 4.54669 4.41577 4.39966 4.43793L2.46112 4.71918C2.0891 4.77372 1.94081 5.23097 2.20927 5.4939L3.61207 6.86091H3.61107Z" fill="#F97316"/>
</svg>
