<svg width="32" height="32" viewBox="0 0 32 32" fill="none" xmlns="http://www.w3.org/2000/svg">
<g clip-path="url(#clip0_550_659)">
<path d="M21.5656 0.995125C19.8323 0.352063 17.9576 8.31859e-09 16.0004 8.31859e-09C14.0433 -6.24917e-05 12.1686 0.352063 10.4353 0.995125L9.04395 15.9999L10.4353 31.0047C12.1685 31.648 14.0433 32 16.0004 32C17.9575 32 19.8323 31.648 21.5656 31.0047L22.9569 16L21.5656 0.995125Z" fill="#FFDA44"/>
<path d="M32.0002 16C32.0002 9.12062 27.6582 3.2558 21.5654 0.995178V31.0049C27.6582 28.7441 32.0002 22.8795 32.0002 16Z" fill="#D80027"/>
<path d="M0 15.9999C0 22.8795 4.342 28.7441 10.4347 31.0049L10.4347 0.995239C4.342 3.25586 0 9.12049 0 15.9999Z" fill="#0052B4"/>
</g>
<defs>
<clipPath id="clip0_550_659">
<rect width="32" height="32" fill="white"/>
</clipPath>
</defs>
</svg>
