<svg width="32" height="32" viewBox="0 0 32 32" fill="none" xmlns="http://www.w3.org/2000/svg">
<mask id="mask0_1334_6743" style="mask-type:luminance" maskUnits="userSpaceOnUse" x="0" y="0" width="32" height="32">
<path d="M0 0H32V32H0V0Z" fill="white"/>
</mask>
<g mask="url(#mask0_1334_6743)">
<path fill-rule="evenodd" clip-rule="evenodd" d="M13.4117 2.66667C7.47741 2.66667 2.66667 7.47741 2.66667 13.4117C2.66667 19.3461 7.47741 24.1568 13.4117 24.1568C19.3461 24.1568 24.1568 19.3461 24.1568 13.4117C24.1568 7.47741 19.3461 2.66667 13.4117 2.66667ZM0 13.4117C0 6.00465 6.00465 0 13.4117 0C20.8189 0 26.8235 6.00465 26.8235 13.4117C26.8235 16.6351 25.6864 19.5929 23.7915 21.9059L31.6095 29.7239C32.1301 30.2445 32.1301 31.0888 31.6095 31.6095C31.0888 32.1301 30.2445 32.1301 29.7239 31.6095L21.9059 23.7915C19.5929 25.6864 16.6351 26.8235 13.4117 26.8235C6.00465 26.8235 0 20.8189 0 13.4117Z" fill="#27A7FF"/>
</g>
</svg>
