<svg width="28" height="28" viewBox="0 0 28 28" fill="none" xmlns="http://www.w3.org/2000/svg">
<g clip-path="url(#clip0_2263_22578)">
<path fill-rule="evenodd" clip-rule="evenodd" d="M8.88314 7.86602C9.63613 8.02757 10.342 8.32327 10.974 8.7267L11.7943 8.36346C11.9422 8.29636 12.1304 8.34339 12.2649 8.47798L13.0851 9.29813C13.2196 9.43271 13.2666 9.62073 13.1995 9.77549L12.8363 10.5957C13.2397 11.2212 13.5424 11.9268 13.7037 12.6798L14.5374 13.0028C14.692 13.0632 14.7929 13.2246 14.7929 13.4195V14.5759C14.7929 14.771 14.692 14.9321 14.5374 14.993L13.7037 15.3156C13.5424 16.0752 13.2398 16.7745 12.8363 17.4064L13.1995 18.2267C13.2666 18.3745 13.2196 18.5628 13.0851 18.6972L12.2649 19.5177C12.1304 19.6519 11.9422 19.699 11.7943 19.6318L10.974 19.2688C10.342 19.6721 9.63613 19.9749 8.88314 20.136L8.56032 20.9698C8.49978 21.1243 8.33845 21.2253 8.14355 21.2253H6.98702C6.79216 21.2253 6.63078 21.1243 6.57019 20.9698L6.24759 20.136C5.49459 19.9749 4.78863 19.6721 4.16334 19.2688L3.3363 19.6318C3.18837 19.699 3.00019 19.6519 2.86577 19.5177L2.04545 18.6972C1.91103 18.5628 1.86395 18.3746 1.93116 18.2267L2.29428 17.4064C1.89085 16.7744 1.5951 16.0752 1.43366 15.3156L0.593336 14.993C0.43857 14.9321 0.337891 14.771 0.337891 14.5759V13.4195C0.337891 13.2246 0.438625 13.0632 0.593336 13.0028L1.43366 12.6798C1.59516 11.9267 1.89085 11.2211 2.29428 10.5957L1.93116 9.77549C1.86395 9.62078 1.91098 9.43271 2.04545 9.29813L2.86577 8.47798C3.00019 8.34339 3.18837 8.29641 3.3363 8.36346L4.16334 8.7267C4.78863 8.32327 5.49459 8.02757 6.24759 7.86602L6.57019 7.02575C6.63078 6.87098 6.79216 6.7702 6.98702 6.7702H8.14355C8.33845 6.7702 8.49978 6.87098 8.56032 7.02575L8.88314 7.86602ZM19.2974 3.39527C19.4857 3.39527 19.6403 3.54976 19.6403 3.73821C19.6403 3.92634 19.4857 4.08083 19.2974 4.08083H17.8586V13.6548H19.2974C19.4857 13.6548 19.6403 13.8095 19.6403 13.9978C19.6403 14.186 19.4857 14.3407 19.2974 14.3407H17.8586V23.9213H19.2974C19.4857 23.9213 19.6403 24.0694 19.6403 24.2576C19.6403 24.4456 19.4857 24.6005 19.2974 24.6005H17.5224C17.3343 24.6005 17.1796 24.4457 17.1796 24.2576V14.3406H15.7743C15.5795 14.3406 15.4315 14.186 15.4315 13.9977C15.4315 13.8095 15.5794 13.6548 15.7743 13.6548H17.1796V3.73816C17.1796 3.54976 17.3342 3.39521 17.5224 3.39521L19.2974 3.39527ZM27.6612 27.1015C27.6276 26.8123 27.5536 26.557 27.4393 26.335C27.2511 25.8509 26.5384 25.4003 25.308 24.9767C25.1533 24.9095 25.0726 24.7347 25.0659 24.459C25.5568 23.9887 25.7652 23.2827 25.6576 22.0253C25.5971 21.2454 24.9719 20.8553 24.3466 20.8553C23.7214 20.8553 23.0961 21.2454 23.0422 22.0253C22.9348 23.2827 23.1431 23.9887 23.6272 24.459C23.6272 24.7347 23.5465 24.9095 23.3918 24.9767C22.1615 25.4003 21.4489 25.8509 21.2606 26.335C21.1395 26.557 21.0657 26.8123 21.0387 27.1015C21.0387 27.4106 21.2875 27.6595 21.5901 27.6595H27.1033C27.4125 27.6595 27.6612 27.4106 27.6612 27.1015ZM27.6612 16.8417C27.6276 16.5527 27.5536 16.2972 27.4393 16.0752C27.2511 15.5911 26.5384 15.1407 25.308 14.7172C25.1533 14.6498 25.0726 14.4753 25.0659 14.1996C25.5568 13.7289 25.7652 13.0228 25.6576 11.7656C25.5971 10.9857 24.9719 10.5956 24.3466 10.5956C23.7214 10.5956 23.0961 10.9857 23.0422 11.7656C22.9348 13.0228 23.1431 13.7289 23.6272 14.1996C23.6272 14.4753 23.5465 14.6498 23.3918 14.7172C22.1615 15.1407 21.4489 15.5911 21.2606 16.0752C21.1395 16.2972 21.0657 16.5526 21.0387 16.8417C21.0387 17.1509 21.2875 17.3998 21.5901 17.3998H27.1033C27.4125 17.3998 27.6612 17.1509 27.6612 16.8417ZM27.6612 6.58191C27.6276 6.2861 27.5536 6.03071 27.4393 5.81552C27.2511 5.33131 26.5384 4.87407 25.308 4.45741C25.1533 4.38331 25.0726 4.21541 25.0659 3.93973C25.5568 3.46915 25.7652 2.76302 25.6576 1.50576C25.5971 0.725969 24.9719 0.335938 24.3466 0.335938C23.7214 0.335938 23.0961 0.725969 23.0422 1.50576C22.9348 2.76302 23.1431 3.46909 23.6272 3.93973C23.6272 4.21541 23.5465 4.38325 23.3918 4.45741C22.1615 4.87407 21.4489 5.33131 21.2606 5.81552C21.1395 6.03071 21.0657 6.28605 21.0387 6.58191C21.0387 6.89111 21.2875 7.13977 21.5901 7.13977H27.1033C27.4125 7.13983 27.6612 6.89116 27.6612 6.58191ZM10.8801 14.4145C10.8463 14.1187 10.7724 13.8633 10.6581 13.6481C10.4698 13.1639 9.75721 12.707 8.52007 12.2901C8.36541 12.2161 8.29148 12.048 8.28475 11.7724C8.77557 11.3016 8.97726 10.5956 8.86974 9.33181C8.81588 8.55853 8.19058 8.16877 7.56534 8.16877C6.94004 8.16877 6.3148 8.55853 6.26104 9.33181C6.15347 10.5956 6.35505 11.3016 6.84587 11.7724C6.84587 12.048 6.76531 12.2161 6.61071 12.2901C5.37363 12.707 4.66083 13.1639 4.47254 13.6481C4.35841 13.8633 4.28441 14.1187 4.25078 14.4145C4.25078 14.7172 4.50628 14.9727 4.80881 14.9727H10.322C10.6312 14.9727 10.8801 14.7172 10.8801 14.4145ZM9.87818 11.0395C9.7302 10.9254 9.70334 10.7102 9.82437 10.5621C9.93866 10.4141 10.1538 10.3872 10.3017 10.5017C10.8262 10.9185 11.2633 11.4496 11.559 12.0548C11.8414 12.6461 12.0027 13.3052 12.0027 13.9976C12.0027 15.2213 11.5052 16.3375 10.7052 17.1375C9.89847 17.9374 8.78902 18.435 7.56539 18.435C6.3417 18.435 5.23237 17.9374 4.42562 17.1375C3.62559 16.3375 3.12805 15.2213 3.12805 13.9976C3.12805 13.3052 3.28938 12.6461 3.57167 12.0548C3.86759 11.4496 4.30454 10.9185 4.82894 10.5017C4.97681 10.3872 5.19195 10.4141 5.3063 10.5621C5.42733 10.7102 5.40048 10.9254 5.25255 11.0395C4.80209 11.3891 4.43896 11.8396 4.19024 12.3573C3.94825 12.8547 3.80699 13.406 3.80699 13.9977C3.80699 15.0331 4.23071 15.9745 4.90966 16.6533C5.58871 17.3325 6.52994 17.7562 7.56534 17.7562C8.60073 17.7562 9.54202 17.3325 10.2211 16.6533C10.9002 15.9746 11.3237 15.0331 11.3237 13.9977C11.3237 13.406 11.1825 12.8547 10.9472 12.3573C10.6917 11.8396 10.3286 11.3891 9.87818 11.0395Z" fill="#1FA0FE"/>
</g>
<defs>
<clipPath id="clip0_2263_22578">
<rect width="28" height="28" fill="white"/>
</clipPath>
</defs>
</svg>
