<svg width="36" height="36" viewBox="0 0 36 36" fill="none" xmlns="http://www.w3.org/2000/svg">
<rect width="36" height="36" rx="18" fill="#F97316"/>
<path d="M9.92671 25.5424V19.5137C9.92671 19.373 10.0332 19.2551 10.1739 19.2418L21.6893 18.0973C21.8072 18.0859 21.8072 17.9148 21.6893 17.9034L10.1739 16.7589C10.0332 16.7456 9.92671 16.6277 9.92671 16.487V10.4584C9.92671 10.2568 10.1377 10.1238 10.3184 10.2131L25.9309 17.7551C26.1362 17.854 26.1362 18.1487 25.9309 18.2475L10.3203 25.7895C10.1377 25.877 9.92671 25.7439 9.92671 25.5424Z" fill="white"/>
<path d="M10.1168 25.5424C10.1168 25.1393 10.1168 24.7344 10.1168 24.3313C10.1168 23.5005 10.1168 22.6697 10.1168 21.8389C10.1168 21.1639 10.1168 20.489 10.1168 19.8141C10.1168 19.7361 10.1168 19.6582 10.1168 19.5803C10.1168 19.5422 10.1092 19.4928 10.132 19.4624C10.1434 19.4472 10.1568 19.4434 10.172 19.432C10.1758 19.4282 10.2366 19.4206 10.1739 19.4301H10.1796C10.1891 19.4282 10.1967 19.4282 10.2062 19.4282C10.248 19.4244 10.2879 19.4206 10.3298 19.4167L11.5845 19.2913C12.2975 19.2209 13.0104 19.1487 13.7234 19.0783C14.5694 18.9947 15.4173 18.911 16.2634 18.8255C17.0904 18.7437 17.9174 18.662 18.7444 18.5783C19.3965 18.5137 20.0467 18.449 20.6988 18.3844C21.0182 18.3521 21.3395 18.3217 21.6589 18.2893C21.7407 18.2817 21.8205 18.2665 21.8833 18.2057C22.0049 18.0859 21.9935 17.8768 21.8586 17.7722C21.8053 17.7323 21.7502 17.719 21.6855 17.7114C21.6038 17.7019 21.522 17.6962 21.4422 17.6867C20.9783 17.641 20.5144 17.5935 20.0505 17.5479C19.311 17.4737 18.5714 17.4015 17.8337 17.3273C16.9801 17.2418 16.1284 17.1581 15.2747 17.0726C14.461 16.9927 13.6492 16.911 12.8355 16.8311C12.2157 16.7703 11.596 16.7076 10.9781 16.6467C10.7138 16.6201 10.4457 16.6049 10.1834 16.5669C10.1815 16.5669 10.1815 16.5669 10.1796 16.5669C10.2081 16.5707 10.2062 16.5802 10.1777 16.565C10.1549 16.5517 10.1358 16.5384 10.1263 16.5117C10.1206 16.4965 10.1244 16.4851 10.1225 16.4699C10.1206 16.4186 10.1225 16.3653 10.1225 16.314C10.1225 16.0669 10.1225 15.8197 10.1225 15.5726C10.1225 14.7703 10.1225 13.9699 10.1225 13.1676C10.1225 12.4337 10.1225 11.6979 10.1225 10.9641C10.1225 10.8025 10.1206 10.639 10.1225 10.4774C10.1244 10.3804 10.1739 10.3519 10.2613 10.3899C10.4819 10.4869 10.6986 10.601 10.9153 10.7055C11.3678 10.9242 11.8184 11.1428 12.2709 11.3614L14.1473 12.2683C14.8793 12.6219 15.6113 12.9755 16.3432 13.3292C17.1208 13.7056 17.8984 14.0801 18.676 14.4566C19.4383 14.8254 20.2026 15.1942 20.965 15.563C21.6456 15.892 22.3243 16.2209 23.005 16.5479C23.543 16.8083 24.0791 17.0669 24.6172 17.3273C24.948 17.487 25.2807 17.6486 25.6115 17.8083C25.6799 17.8426 25.7503 17.8749 25.8187 17.9091C25.8244 17.9129 25.8301 17.9148 25.8358 17.9167C25.8377 17.9167 25.8377 17.9186 25.8396 17.9186C25.8663 17.9319 25.8834 17.949 25.8853 17.9509C25.9195 18.0023 25.91 18.046 25.832 18.0859C25.6514 18.1791 25.467 18.2627 25.2845 18.3502C24.8605 18.5555 24.4347 18.7608 24.0107 18.9662C23.4061 19.259 22.8015 19.5498 22.197 19.8426C21.4726 20.1924 20.7502 20.5423 20.0258 20.8921C19.2501 21.2666 18.4763 21.6411 17.7007 22.0157C16.9345 22.3864 16.1683 22.7552 15.4021 23.126C14.7044 23.4625 14.0086 23.799 13.3108 24.1355C12.7519 24.4055 12.191 24.6754 11.6321 24.9473C11.269 25.1222 10.9077 25.2971 10.5446 25.472C10.459 25.5139 10.3735 25.5538 10.2879 25.5956C10.2708 25.6032 10.2537 25.6146 10.2347 25.6222C10.1758 25.6412 10.1206 25.6089 10.1168 25.5424C10.1054 25.299 9.72519 25.2971 9.7366 25.5424C9.7518 25.8941 10.0978 26.0975 10.4153 25.953C10.4267 25.9473 10.4381 25.9416 10.4495 25.9378C10.5275 25.8998 10.6073 25.8618 10.6853 25.8237C11.037 25.6545 11.3887 25.4834 11.7385 25.3142C12.2937 25.0462 12.8469 24.7781 13.4021 24.51C14.096 24.1754 14.7899 23.8389 15.4839 23.5043C16.2558 23.1317 17.0295 22.7571 17.8014 22.3845C18.5847 22.0062 19.3699 21.6259 20.1532 21.2476C20.8813 20.8959 21.6095 20.5442 22.3377 20.1924C22.9498 19.8977 23.5601 19.6012 24.1723 19.3065C24.6039 19.0974 25.0354 18.8901 25.467 18.681C25.6514 18.5916 25.8377 18.508 26.0183 18.4148C26.3511 18.2437 26.353 17.7608 26.0202 17.5878C25.967 17.5593 25.9119 17.5346 25.8567 17.508C25.545 17.3578 25.2332 17.2076 24.9214 17.0555C24.3966 16.8007 23.87 16.5479 23.3453 16.2931C22.6666 15.9661 21.9878 15.6372 21.3091 15.3102C20.5467 14.9414 19.7844 14.5744 19.022 14.2056C18.2349 13.8254 17.4478 13.4451 16.6626 13.0649C15.9192 12.7056 15.174 12.3462 14.4306 11.9869C13.7956 11.6808 13.1625 11.3747 12.5275 11.0667C12.0636 10.8424 11.6017 10.6181 11.1378 10.3956C10.9096 10.2854 10.6796 10.1751 10.4514 10.0648C10.4381 10.0591 10.4267 10.0515 10.4134 10.0458C10.1358 9.91843 9.79363 10.0648 9.7442 10.3842C9.72329 10.5135 9.7366 10.6523 9.7366 10.7835V16.1942C9.7366 16.3425 9.71568 16.5212 9.77272 16.66C9.84496 16.8387 10.0028 16.93 10.1872 16.9509C10.2195 16.9547 10.2537 16.9566 10.286 16.9604C10.4362 16.9756 10.5864 16.9908 10.7366 17.006C11.3051 17.0631 11.8754 17.1182 12.4439 17.1753C13.2405 17.2551 14.0352 17.3331 14.8318 17.4129C15.6987 17.4985 16.5638 17.5859 17.4307 17.6715C18.2045 17.7475 18.9783 17.8255 19.7501 17.9015C20.2692 17.9528 20.7863 18.0042 21.3053 18.0555C21.4213 18.0669 21.5354 18.0783 21.6513 18.0897C21.6627 18.0916 21.6722 18.0916 21.6836 18.0935C21.6855 18.0935 21.6874 18.0954 21.6893 18.0935C21.6285 18.1087 21.5639 18.0137 21.6 17.9585C21.6323 17.9072 21.7407 17.9034 21.6456 17.9129C21.3053 17.9471 20.965 17.9814 20.6247 18.0137C19.9536 18.0802 19.2805 18.1468 18.6094 18.2133C17.771 18.297 16.9326 18.3806 16.0942 18.4624C15.2424 18.546 14.3926 18.6316 13.5409 18.7152C12.8412 18.7856 12.1397 18.854 11.4401 18.9243C11.0522 18.9624 10.6644 19.0023 10.2765 19.0403C10.2461 19.0441 10.2157 19.046 10.1872 19.0498C9.98185 19.0726 9.79743 19.1981 9.7518 19.411C9.72329 19.5441 9.7404 19.6943 9.7404 19.8293V25.5424C9.7366 25.7876 10.1168 25.7876 10.1168 25.5424Z" fill="white"/>
</svg>
