<svg width="32" height="32" viewBox="0 0 32 32" fill="none" xmlns="http://www.w3.org/2000/svg">
<path d="M28.8605 19.2648L26.6785 17.6297C26.848 16.5469 26.848 15.4477 26.6785 14.3703L28.8551 12.7352C29.5222 12.232 29.7137 11.3078 29.2926 10.5859L27.4715 7.41406C27.0558 6.69219 26.1644 6.39141 25.3933 6.71953L22.8832 7.79141C22.0355 7.10781 21.084 6.55547 20.0613 6.16172L19.7332 3.45469C19.6347 2.62344 18.9293 2 18.0926 2H14.434C13.5972 2 12.8918 2.62344 12.7933 3.45469L12.4652 6.16172C11.448 6.55547 10.4965 7.10781 9.64334 7.79141L7.13318 6.71953C6.36209 6.39141 5.47068 6.69219 5.05506 7.41406L3.22303 10.5859C2.80193 11.3078 2.99334 12.232 3.66053 12.7352L5.83709 14.3703C5.66756 15.4531 5.66756 16.5523 5.83709 17.6297L3.66053 19.2648C2.99334 19.768 2.80193 20.6922 3.22303 21.4141L5.04959 24.5859C5.46521 25.3078 6.35662 25.6086 7.12771 25.2805L9.63787 24.2086C10.4855 24.8922 11.4426 25.4445 12.4597 25.8383L12.7879 28.5453C12.8863 29.3766 13.5918 30 14.4285 30H18.0871C18.9238 30 19.6293 29.3766 19.7277 28.5453L20.0558 25.8383C21.073 25.4445 22.0246 24.8922 22.8777 24.2086L25.3879 25.2805C26.159 25.6086 27.0504 25.3078 27.466 24.5859L29.298 21.4141C29.7191 20.6922 29.5277 19.768 28.8605 19.2648ZM16.2605 19.9539C14.0785 19.9539 12.3066 18.182 12.3066 16C12.3066 13.818 14.0785 12.0461 16.2605 12.0461C18.4426 12.0461 20.2144 13.818 20.2144 16C20.2144 18.182 18.4426 19.9539 16.2605 19.9539Z" fill="#787878"/>
</svg>
