<svg width="28" height="28" viewBox="0 0 28 28" fill="none" xmlns="http://www.w3.org/2000/svg">
<path d="M16.2743 22.0803H11.6937C10.8599 22.0803 10.8599 20.8203 11.6937 20.8203H16.2743C17.1081 20.8203 17.1081 22.0803 16.2743 22.0803Z" fill="#1FA0FE"/>
<path d="M19.5868 24.6037H8.38124C7.5474 24.6037 7.5474 23.3438 8.38124 23.3438H19.5868C20.4207 23.3438 20.4207 24.6037 19.5868 24.6037Z" fill="#1FA0FE"/>
<path d="M13.3539 3.39844C10.5769 3.5488 8.07622 4.67132 6.15234 6.40508L8.55334 8.80608C9.83266 7.69392 11.4715 6.94016 13.3539 6.80072V3.39844Z" fill="#1FA0FE"/>
<path d="M5.66066 14.4951C5.7945 12.6597 6.51774 11.0335 7.66434 9.69566L5.25774 7.28906C3.51222 9.22778 2.4023 11.6739 2.25586 14.4951H5.66066Z" fill="#1FA0FE"/>
<path d="M5.65506 15.7578H2.25586C2.38746 18.2353 3.27226 20.5128 4.70362 22.3507C4.9223 22.6313 5.33838 22.6618 5.6097 22.4316L7.23594 21.054C7.50026 20.83 7.5263 20.4442 7.31714 20.1678C6.3755 18.9238 5.77798 17.407 5.65506 15.7578Z" fill="#1FA0FE"/>
<path d="M24.044 9.04688C23.4756 9.74492 22.632 10.7801 21.6889 11.9351C22.1003 12.9196 22.3413 13.9922 22.3413 15.1262C22.3413 17.0316 21.7038 18.7881 20.6303 20.194C20.4275 20.4594 20.4849 20.8416 20.7403 21.0566L22.3593 22.4194C22.6339 22.6507 23.0545 22.619 23.2749 22.3354C24.8221 20.3443 25.7433 17.8428 25.7433 15.126C25.7436 12.8658 25.1108 10.8008 24.044 9.04688Z" fill="#1FA0FE"/>
<path d="M23.2949 7.9714C21.2355 5.31392 18.0861 3.58576 14.6144 3.39844V6.80296C16.7734 6.9676 18.9913 7.97392 20.566 9.98768C20.566 9.98768 13.0648 15.5558 12.798 15.8229C12.1845 16.4364 12.1845 17.4312 12.798 18.0447C13.4115 18.6582 14.4063 18.6582 15.0198 18.0447C15.4174 17.6468 23.2949 7.9714 23.2949 7.9714ZM23.2636 8.01004C23.2638 8.01004 23.2638 8.00976 23.2638 8.00976L23.2636 8.01004Z" fill="#1FA0FE"/>
</svg>
