<svg width="28" height="28" viewBox="0 0 28 28" fill="none" xmlns="http://www.w3.org/2000/svg">
<path d="M22.8383 9.94178C22.4293 9.47683 22.1703 8.89912 22.0953 8.28441C21.9776 7.61141 21.7109 6.97326 21.3146 6.41668C20.9184 5.8601 20.4027 5.39918 19.8053 5.06767C18.7731 4.46418 17.86 3.67699 17.111 2.74494C16.8291 2.39419 16.4289 2.15837 15.9855 2.08171C15.542 2.00504 15.0859 2.09282 14.7026 2.32856C13.582 3.00043 12.2424 3.67019 12.7636 5.23508C12.7636 5.23504 13.3078 4.9609 13.5705 4.82721C13.667 4.77842 13.7789 4.76987 13.8816 4.80345C13.9844 4.83703 14.0696 4.90999 14.1186 5.00633C14.1677 5.10267 14.1765 5.21452 14.1432 5.31736C14.1098 5.42019 14.0371 5.50561 13.9409 5.55488C13.3171 5.87275 12.6921 6.18488 12.1186 6.47601C11.9681 6.55538 11.8434 6.6759 11.7588 6.82351C11.6743 6.97112 11.6335 7.13973 11.6412 7.30965C11.649 7.47957 11.7048 7.64379 11.8024 7.78314C11.8999 7.92249 12.0351 8.03122 12.1921 8.09663L15.6292 9.4764C16.2346 9.66547 16.8713 9.73343 17.5029 9.6764C17.3956 9.26386 16.9763 8.79854 17.4657 8.53262C17.515 8.50986 17.5684 8.49713 17.6228 8.49514C17.6771 8.49315 17.7313 8.50196 17.7822 8.52104C17.8331 8.54013 17.8797 8.56912 17.9193 8.60633C17.959 8.64354 17.9908 8.68825 18.0131 8.73785C18.2631 9.29538 18.452 9.87834 18.5765 10.4765C18.901 12.1604 18.9644 13.8842 18.7643 15.5874C19.4632 16.0852 20.098 16.6672 20.6544 17.3203C20.7251 17.4021 20.7605 17.5085 20.7529 17.6164C20.7453 17.7242 20.6952 17.8246 20.6136 17.8955C20.532 17.9664 20.4257 18.0021 20.3178 17.9947C20.21 17.9874 20.1095 17.9375 20.0384 17.8561C19.6481 17.3996 19.2176 16.9791 18.7521 16.5998C16.6143 14.7679 13.8082 14.7187 12.0696 15.812C8.44779 12.1136 4.43964 12.6428 2.02342 15.1956C1.27076 18.7694 2.10348 22.5588 4.13388 25.0335C5.85052 25.5339 9.36269 24.6205 9.65705 24.5559C12.2385 25.4859 14.9632 25.9556 17.7071 25.9438C19.4756 25.9413 21.2395 25.7635 22.973 25.4131C23.8294 25.2342 24.6049 24.7828 25.1833 24.1264C25.7617 23.47 26.1119 22.6439 26.1816 21.7718C26.7122 15.0934 24.018 11.2725 22.8383 9.94178Z" fill="#1FA0FE"/>
</svg>
