<svg width="60" height="60" viewBox="0 0 60 60" fill="none" xmlns="http://www.w3.org/2000/svg">
<g clip-path="url(#clip0_1831_1577)">
<path d="M30 60C46.5685 60 60 46.5685 60 30C60 13.4315 46.5685 0 30 0C13.4315 0 0 13.4315 0 30C0 46.5685 13.4315 60 30 60Z" fill="#25C934"/>
<path d="M23.4257 41.1789C23.2102 41.1789 23.0029 41.096 22.8496 40.9384L16.0558 34.1447C15.7366 33.8255 15.7366 33.3115 16.0558 32.9923L17.2123 31.8317C17.3656 31.6783 17.5687 31.5954 17.7884 31.5954C18.0371 31.5954 18.2693 31.7074 18.4226 31.9022L21.063 35.1892C21.5314 35.7737 22.232 36.1094 22.9822 36.1094C23.6371 36.1094 24.2547 35.8524 24.719 35.3882L41.0465 19.0607C41.1998 18.9074 41.4029 18.8203 41.6226 18.8203C41.7926 18.8203 41.9542 18.8701 42.091 18.9695L43.5459 20.0017C43.7449 20.1426 43.8651 20.354 43.8858 20.5944C43.9066 20.839 43.8237 21.0669 43.6496 21.2369L25.8465 39.04L25.863 39.0566L23.9936 40.926C23.8402 41.0794 23.6371 41.1664 23.4174 41.1664L23.4257 41.1789Z" fill="white"/>
<path d="M41.6218 19.6539L43.0725 20.6694L25.8497 37.8922L24.6891 39.0528L24.7098 39.0736L23.4332 40.3585L16.6394 33.5772L17.7876 32.4166L20.428 35.7036C21.0539 36.4829 21.9865 36.9306 22.9855 36.9306C23.8601 36.9306 24.685 36.5907 25.3026 35.9689L41.6259 19.6456M41.6259 18C41.2031 18 40.7845 18.1617 40.4694 18.4808L24.142 34.8083C23.8228 35.1275 23.4041 35.2891 22.9855 35.2891C22.5088 35.2891 22.0321 35.0819 21.7088 34.6756L19.0684 31.3886C18.7451 30.9824 18.2684 30.7751 17.7917 30.7751C17.3731 30.7751 16.9585 30.9326 16.6352 31.256L15.4788 32.4124C14.8404 33.0508 14.8404 34.087 15.4788 34.7254L22.2725 41.5192C22.5917 41.8383 23.0104 42 23.429 42C23.8477 42 24.2663 41.8383 24.5855 41.5192L27.0352 39.0694L27.0187 39.0528L44.2415 21.8301C44.9586 21.113 44.8591 19.9233 44.0301 19.3389L42.5751 18.3067C42.2891 18.1036 41.9575 18.0041 41.6301 18.0041L41.6259 18Z" fill="white"/>
</g>
<defs>
<clipPath id="clip0_1831_1577">
<rect width="60" height="60" fill="white"/>
</clipPath>
</defs>
</svg>
