
<svg width="50" height="50" viewBox="0 0 50 50" fill="none" xmlns="http://www.w3.org/2000/svg">
<path fill-rule="evenodd" clip-rule="evenodd" d="M44.5025 20.555C44.8275 21.985 45 23.4725 45 25C45 36.0375 36.0375 45 25 45C13.9625 45 5 36.0375 5 25C5 13.9625 13.9625 5 25 5C27.3075 5 29.5225 5.39 31.585 6.11C32.8875 6.565 34.3125 5.8775 34.7675 4.575C35.2225 3.27 34.535 1.845 33.2325 1.39C30.6525 0.49 27.8825 0 25 0C11.2025 0 0 11.2025 0 25C0 38.7975 11.2025 50 25 50C38.7975 50 50 38.7975 50 25C50 23.0925 49.785 21.2325 49.38 19.445C49.0725 18.1 47.7325 17.2575 46.3875 17.5625C45.0425 17.8675 44.1975 19.2075 44.5025 20.555ZM22.5 26.465L43.2325 5.7325C44.2075 4.7575 45.7925 4.7575 46.7675 5.7325C47.7425 6.7075 47.7425 8.2925 46.7675 9.2675L24.2675 31.7675C23.2925 32.745 21.7075 32.745 20.7325 31.7675L13.2325 24.2675C12.2575 23.2925 12.2575 21.7075 13.2325 20.7325C14.2075 19.7575 15.7925 19.7575 16.7675 20.7325L22.5 26.465Z" fill="#00C951"/>
</svg>
