<svg width="20" height="20" viewBox="0 0 20 20" fill="none" xmlns="http://www.w3.org/2000/svg">
<path d="M17.5 15.0013C17.5 15.0013 16.508 14.61 15.8333 14.4197C11.5664 13.2158 8.43357 16.7868 4.16667 15.5829C3.49201 15.3926 2.5 15.0013 2.5 15.0013M17.5 10.0013C17.5 10.0013 16.508 9.61004 15.8333 9.41969C11.5664 8.2158 8.43357 11.7868 4.16667 10.5829C3.49201 10.3926 2.5 10.0013 2.5 10.0013M17.5 5.0013C17.5 5.0013 16.508 4.61004 15.8333 4.41969C11.5664 3.2158 8.43357 6.78681 4.16667 5.58292C3.49201 5.39257 2.5 5.0013 2.5 5.0013" stroke="black" stroke-width="1.66667" stroke-linecap="round" stroke-linejoin="round"/>
</svg>
