<svg width="8" height="11" viewBox="0 0 8 11" fill="none" xmlns="http://www.w3.org/2000/svg">
<path d="M0.338778 3.76127e-06C0.248863 -0.000422348 0.162781 0.0353732 0.0992902 0.0988674C0.035796 0.162362 0 0.248867 0 0.33878V9.96431V9.96388C0.000426109 10.151 0.152127 10.3018 0.338782 10.3018C0.42827 10.3018 0.513927 10.2664 0.577418 10.2034L3.70735 7.06996L6.83727 10.2034C6.93401 10.3005 7.07932 10.3295 7.20588 10.2771C7.33245 10.2247 7.41512 10.1011 7.41469 9.96389V0.338358V0.338784C7.41469 0.24887 7.37932 0.162363 7.31583 0.0988717C7.25233 0.0353775 7.16583 -0.000418519 7.07634 8.0268e-06L0.338778 3.76127e-06ZM0.675847 0.67628H6.73759V9.14697L3.94639 6.35239C3.81429 6.22029 3.60037 6.22029 3.46869 6.35239L0.675748 9.14697L0.675847 0.67628Z" fill="#F97316"/>
</svg>
