<svg width="12" height="10" viewBox="0 0 12 10" fill="none" xmlns="http://www.w3.org/2000/svg">
<path fill-rule="evenodd" clip-rule="evenodd" d="M9.516 6.4376C9.585 6.17025 9.85775 6.00945 10.1251 6.0785C10.6615 6.21695 11.1366 6.52965 11.476 6.96745C11.8153 7.4052 11.9997 7.9433 12.0001 8.49725V9.4976C12.0001 9.77375 11.7763 9.9976 11.5001 9.9976C11.224 9.9976 11.0001 9.77375 11.0001 9.4976V8.49795C11.0001 8.498 11.0001 8.4979 11.0001 8.49795C10.9998 8.16565 10.8892 7.8427 10.6856 7.5801C10.482 7.3174 10.1969 7.1298 9.8751 7.0467C9.60775 6.9777 9.44695 6.705 9.516 6.4376Z" fill="#F97316"/>
<path fill-rule="evenodd" clip-rule="evenodd" d="M0.732235 6.73225C1.20108 6.2634 1.83696 6 2.5 6H6.5C7.16305 6 7.79895 6.2634 8.26775 6.73225C8.7366 7.20105 9 7.83695 9 8.5V9.5C9 9.77615 8.77615 10 8.5 10C8.22385 10 8 9.77615 8 9.5V8.5C8 8.1022 7.84195 7.72065 7.56065 7.43935C7.27935 7.15805 6.8978 7 6.5 7H2.5C2.10217 7 1.72064 7.15805 1.43934 7.43935C1.15804 7.72065 1 8.1022 1 8.5V9.5C1 9.77615 0.77614 10 0.5 10C0.223857 10 0 9.77615 0 9.5V8.5C0 7.83695 0.263392 7.20105 0.732235 6.73225Z" fill="#F97316"/>
<path fill-rule="evenodd" clip-rule="evenodd" d="M7.51573 0.4386C7.58423 0.17109 7.85663 0.00975051 8.12413 0.0782455C8.66193 0.215935 9.13853 0.528686 9.47893 0.967191C9.81928 1.4057 10.004 1.94502 10.004 2.50012C10.004 3.05523 9.81928 3.59455 9.47893 4.03307C9.13853 4.47157 8.66193 4.78432 8.12413 4.92202C7.85663 4.99047 7.58423 4.82917 7.51573 4.56162C7.44728 4.29412 7.60858 4.02172 7.87613 3.95325C8.19878 3.87064 8.48473 3.68299 8.68898 3.41988C8.89318 3.15678 9.00403 2.83319 9.00403 2.50012C9.00403 2.16706 8.89318 1.84347 8.68898 1.58036C8.48473 1.31726 8.19878 1.12961 7.87613 1.047C7.60858 0.978501 7.44728 0.706115 7.51573 0.4386Z" fill="#F97316"/>
<path fill-rule="evenodd" clip-rule="evenodd" d="M4.5 1C3.67158 1 3 1.67158 3 2.5C3 3.32842 3.67158 4 4.5 4C5.32845 4 6 3.32842 6 2.5C6 1.67158 5.32845 1 4.5 1ZM2 2.5C2 1.11929 3.11929 0 4.5 0C5.8807 0 7 1.11929 7 2.5C7 3.88071 5.8807 5 4.5 5C3.11929 5 2 3.88071 2 2.5Z" fill="#F97316"/>
</svg>
