<svg width="12" height="12" viewBox="0 0 12 12" fill="none" xmlns="http://www.w3.org/2000/svg">
<path d="M5.99999 11.3324C5.82915 11.3324 5.66445 11.2705 5.53609 11.1581C5.05132 10.7342 4.58395 10.3358 4.17159 9.98447L4.16949 9.98264C2.96054 8.95239 1.91656 8.06268 1.19018 7.18625C0.378204 6.20645 0 5.27747 0 4.2626C0 3.27658 0.338104 2.36691 0.951964 1.70105C1.57315 1.02731 2.4255 0.65625 3.35229 0.65625C4.04498 0.65625 4.67934 0.875244 5.23772 1.3071C5.51952 1.52509 5.77495 1.79187 5.99999 2.10306C6.22512 1.79187 6.48046 1.52509 6.76235 1.3071C7.32073 0.875244 7.95509 0.65625 8.64778 0.65625C9.57448 0.65625 10.4269 1.02731 11.0481 1.70105C11.662 2.36691 12 3.27658 12 4.2626C12 5.27747 11.6219 6.20645 10.8099 7.18616C10.0835 8.06268 9.03963 8.9523 7.83086 9.98245C7.41777 10.3344 6.94966 10.7334 6.46379 11.1583C6.33553 11.2705 6.17073 11.3324 5.99999 11.3324ZM3.35229 1.35919C2.62417 1.35919 1.95529 1.64978 1.46869 2.17749C0.974852 2.71317 0.702849 3.45364 0.702849 4.2626C0.702849 5.11615 1.02008 5.87952 1.73135 6.73773C2.41882 7.56729 3.44137 8.43869 4.62533 9.44769L4.62752 9.44952C5.04143 9.80228 5.51064 10.2022 5.99898 10.6292C6.49025 10.2014 6.96019 9.80081 7.37493 9.44751C8.55879 8.43851 9.58125 7.56729 10.2687 6.73773C10.9799 5.87952 11.2971 5.11615 11.2971 4.2626C11.2971 3.45364 11.0251 2.71317 10.5313 2.17749C10.0448 1.64978 9.37581 1.35919 8.64778 1.35919C8.1144 1.35919 7.62468 1.52875 7.19228 1.8631C6.80693 2.16119 6.5385 2.53802 6.38112 2.8017C6.30019 2.93729 6.15773 3.01822 5.99999 3.01822C5.84224 3.01822 5.69979 2.93729 5.61886 2.8017C5.46157 2.53802 5.19314 2.16119 4.8077 1.8631C4.3753 1.52875 3.88558 1.35919 3.35229 1.35919Z" fill="white"/>
</svg>
