<svg width="10" height="9" viewBox="0 0 10 9" fill="none" xmlns="http://www.w3.org/2000/svg">
<path d="M7.35851 8.99941C7.40482 8.99703 7.45011 8.98484 7.49147 8.96365C7.53283 8.94247 7.56934 8.91275 7.59862 8.87641C7.62791 8.84007 7.64933 8.79791 7.6615 8.75267C7.67368 8.70744 7.67633 8.66014 7.66928 8.6138L7.24903 5.83599L9.23374 3.7473C9.27494 3.70331 9.30357 3.64885 9.31659 3.58972C9.32961 3.5306 9.32654 3.46901 9.3077 3.4115C9.28887 3.354 9.25496 3.30274 9.2096 3.26316C9.16424 3.22359 9.10912 3.19718 9.0501 3.18675L6.30259 2.73329L4.95708 0.176864C4.9286 0.123116 4.88615 0.0782409 4.83432 0.0470761C4.78248 0.0159112 4.72321 -0.00036079 4.6629 6.06878e-06C4.60259 0.000372927 4.54352 0.0173679 4.49206 0.049161C4.44059 0.0809542 4.39868 0.126344 4.37084 0.180434L3.09244 2.67974L0.274285 3.18675C0.214868 3.19727 0.159417 3.22399 0.113908 3.26402C0.0683987 3.30405 0.0345559 3.35587 0.0160264 3.41391C-0.00250306 3.47195 -0.00501697 3.534 0.00875565 3.59337C0.0225283 3.65275 0.0520653 3.7072 0.0941841 3.75086L2.05417 5.75387L1.65864 8.62094C1.65095 8.68119 1.65961 8.74242 1.68368 8.79808C1.70775 8.85374 1.74633 8.90174 1.7953 8.93695C1.84427 8.97215 1.90178 8.99324 1.96168 8.99795C2.02159 9.00266 2.08163 8.99082 2.1354 8.9637L4.62511 7.70334L7.19606 8.96728C7.24665 8.99171 7.30254 9.00276 7.35851 8.99941ZM6.91707 8.08537L4.76637 7.02495C4.72006 7.00219 4.66913 6.99066 4.61764 6.99127C4.56615 6.99188 4.5155 7.00461 4.46972 7.02845L2.40379 8.08174L2.73222 5.6824C2.73938 5.63142 2.73482 5.57945 2.7189 5.53054C2.70298 5.48162 2.67612 5.43707 2.64041 5.40034L1.01238 3.73653L3.36789 3.31164C3.41796 3.30277 3.46534 3.28238 3.50637 3.25205C3.5474 3.22171 3.58098 3.18224 3.60451 3.13669L4.66749 1.05512L5.79405 3.19025C5.81793 3.23623 5.85206 3.27596 5.89373 3.30633C5.93541 3.33669 5.98349 3.35684 6.03419 3.36519L8.31908 3.74367L6.65926 5.48603C6.62304 5.52314 6.59588 5.56828 6.57994 5.61786C6.564 5.66745 6.55973 5.72011 6.56745 5.77166L6.91707 8.08537Z" fill="#F97316"/>
</svg>
