<svg width="28" height="28" viewBox="0 0 28 28" fill="none" xmlns="http://www.w3.org/2000/svg">
<g clip-path="url(#clip0_2263_22522)">
<path d="M21.3011 4.78089C21.3011 4.12398 21.0447 3.50558 20.5801 3.04095L18.2601 0.721C17.8019 0.262773 17.1515 0 16.5043 0H16.3633V4.92188H21.3011L21.3011 4.78089Z" fill="#1FA0FE"/>
<path d="M14.9809 16.9278C15.1379 16.4511 15.4119 16.0074 15.7692 15.6477L21.3234 10.1159V6.5625H15.5593C15.1059 6.5625 14.7656 6.1956 14.7656 5.74219V0H2.46094C1.10392 0 0 1.10392 0 2.46094V25.5391C0 26.8961 1.10392 28 2.46094 28H18.8406C20.1976 28 21.3234 26.8961 21.3234 25.5391V19.4167L20.4219 20.2963C20.0566 20.6584 19.6289 20.922 19.1466 21.083L16.5383 21.9538L16.1409 21.9755C15.484 21.9755 14.8624 21.6558 14.4763 21.1207C14.0934 20.588 13.9892 19.8974 14.1975 19.2734L14.9809 16.9278ZM4.10156 14.7656H12.2781C12.7315 14.7656 13.0984 15.1325 13.0984 15.5859C13.0984 16.0394 12.7315 16.4062 12.2781 16.4062H4.10156C3.64815 16.4062 3.28125 16.0394 3.28125 15.5859C3.28125 15.1325 3.64815 14.7656 4.10156 14.7656ZM3.28125 12.3047C3.28125 11.8513 3.64815 11.4844 4.10156 11.4844H12.2781C12.7315 11.4844 13.0984 11.8513 13.0984 12.3047C13.0984 12.7581 12.7315 13.125 12.2781 13.125H4.10156C3.64815 13.125 3.28125 12.7581 3.28125 12.3047ZM3.28125 18.8672C3.28125 18.4138 3.64815 18.0469 4.10156 18.0469H12.2781C12.7315 18.0469 13.0984 18.4138 13.0984 18.8672C13.0984 19.3206 12.7315 19.6875 12.2781 19.6875H4.10156C3.64815 19.6875 3.28125 19.3206 3.28125 18.8672ZM15.5593 22.9688C16.0127 22.9688 16.3796 23.3356 16.3796 23.7891C16.3796 24.2425 16.0128 24.6094 15.5593 24.6094H10.6374C10.184 24.6094 9.81712 24.2425 9.81712 23.7891C9.81712 23.3356 10.184 22.9688 10.6374 22.9688H15.5593ZM4.10156 9.84375C3.64815 9.84375 3.28125 9.47685 3.28125 9.02344C3.28125 8.57002 3.64815 8.20312 4.10156 8.20312H15.5593C16.0127 8.20312 16.3796 8.57002 16.3796 9.02344C16.3796 9.47685 16.0127 9.84375 15.5593 9.84375H4.10156Z" fill="#1FA0FE"/>
<path d="M16.4679 17.6562L15.7542 19.7973C15.6472 20.1181 15.9524 20.4232 16.2732 20.316L18.413 19.6014L16.4679 17.6562Z" fill="#1FA0FE"/>
<path d="M22.8381 10.8984L17.4355 16.301L19.7655 18.6309C20.9866 17.4096 23.3625 15.0334 25.1678 13.2281L22.8381 10.8984Z" fill="#1FA0FE"/>
<path d="M27.5181 8.54957C27.2297 8.25956 26.8051 8.09375 26.3549 8.09375C25.9046 8.09375 25.4801 8.25956 25.1901 8.55039L23.998 9.74241L26.3276 12.072C26.9802 11.4194 27.4313 10.9683 27.5198 10.8799C28.1605 10.2381 28.1605 9.1928 27.5181 8.54957Z" fill="#1FA0FE"/>
<path d="M27.5195 10.8798L27.5196 10.8797C27.5217 10.8776 27.5226 10.8767 27.5243 10.875C27.5226 10.8768 27.5217 10.8777 27.5195 10.8798Z" fill="#1FA0FE"/>
<path d="M27.5234 10.8666C27.5261 10.864 27.5291 10.861 27.5307 10.8594C27.5291 10.861 27.5261 10.864 27.5234 10.8666Z" fill="#1FA0FE"/>
<path d="M27.5312 10.8634C27.5366 10.8581 27.5367 10.858 27.5312 10.8634V10.8634Z" fill="#1FA0FE"/>
</g>
<defs>
<clipPath id="clip0_2263_22522">
<rect width="28" height="28" fill="white"/>
</clipPath>
</defs>
</svg>
