<svg width="42" height="42" viewBox="0 0 42 42" fill="none" xmlns="http://www.w3.org/2000/svg">
<g clip-path="url(#clip0_1831_4841)">
<path d="M33.4393 3.125H14.1719V11.115H37.5543V7.23842C37.5543 4.97006 35.7083 3.125 33.4393 3.125Z" fill="#F9A266"/>
<path d="M22.5352 12.3403H0V4.92636C0 2.20972 2.21068 0 4.92828 0H12.1336C12.8497 0 13.5396 0.150925 14.1664 0.434509C15.0418 0.828964 15.7939 1.47913 16.3213 2.3286L22.5352 12.3403Z" fill="#F97316"/>
<path d="M42 14.0023V37.8837C42 40.1549 40.1511 42.0022 37.8789 42.0022H4.12111C1.84891 42.0022 0 40.1549 0 37.8837V9.88281H37.8789C40.1511 9.88281 42 11.7308 42 14.0023Z" fill="#F97316"/>
<path d="M42 14.0023V37.8837C42 40.1549 40.1511 42.0022 37.8789 42.0022H21V9.88281H37.8789C40.1511 9.88281 42 11.7308 42 14.0023Z" fill="#CD5A0A"/>
<path d="M32.049 25.9386C32.049 32.031 27.0928 36.9875 21.0011 36.9875C14.9093 36.9875 9.95312 32.031 9.95312 25.9386C9.95312 19.8471 14.9093 14.8906 21.0011 14.8906C27.0928 14.8906 32.049 19.8471 32.049 25.9386Z" fill="#E7ECFC"/>
<path d="M32.0479 25.9386C32.0479 32.031 27.0918 36.9875 21 36.9875V14.8906C27.0918 14.8906 32.0479 19.8471 32.0479 25.9386Z" fill="#CED9F9"/>
<path d="M24.5593 26.0719C24.3289 26.267 24.0466 26.3622 23.7668 26.3622C23.4166 26.3622 23.0686 26.2138 22.8251 25.9248L22.2287 25.2179V29.846C22.2287 30.5253 21.6776 31.0764 20.9983 31.0764C20.3189 31.0764 19.7678 30.5253 19.7678 29.846V25.2179L19.1715 25.9248C18.7325 26.4442 17.9567 26.5106 17.4373 26.0719C16.9182 25.6339 16.8515 24.8578 17.2896 24.3383L19.7252 21.4509C20.0427 21.0753 20.5061 20.8594 20.9983 20.8594C21.4905 20.8594 21.9538 21.0753 22.2714 21.4509L24.707 24.3383C25.145 24.8578 25.0784 25.6339 24.5593 26.0719Z" fill="#F9A266"/>
<path d="M24.561 26.0719C24.3306 26.267 24.0483 26.3622 23.7686 26.3622C23.4183 26.3622 23.0703 26.2138 22.8268 25.9248L22.2305 25.2179V29.846C22.2305 30.5253 21.6793 31.0764 21 31.0764V20.8594C21.4922 20.8594 21.9555 21.0753 22.2731 21.4509L24.7087 24.3383C25.1467 24.8578 25.0801 25.6339 24.561 26.0719Z" fill="#F97316"/>
</g>
<defs>
<clipPath id="clip0_1831_4841">
<rect width="42" height="42" fill="white"/>
</clipPath>
</defs>
</svg>
