<svg width="54" height="54" viewBox="0 0 54 54" fill="none" xmlns="http://www.w3.org/2000/svg">
<rect width="54" height="54" rx="27" fill="#F2F2F2"/>
<g clip-path="url(#clip0_1908_557)">
<path d="M35.2942 15.0781H22.4492V20.4048H38.0375V17.8204C38.0375 16.3082 36.8068 15.0781 35.2942 15.0781Z" fill="#F9A266"/>
<path d="M28.0235 21.2268H13V16.2842C13 14.4731 14.4738 13 16.2855 13H21.0891C21.5665 13 22.0264 13.1006 22.4443 13.2897C23.0279 13.5526 23.5293 13.9861 23.8809 14.5524L28.0235 21.2268Z" fill="#F97316"/>
<path d="M41 22.3323V38.2532C41 39.7673 39.7674 40.9989 38.2526 40.9989H15.7474C14.2326 40.9989 13 39.7673 13 38.2532V19.5859H38.2526C39.7674 19.5859 41 20.8179 41 22.3323Z" fill="#F97316"/>
<path d="M41 22.3323V38.2532C41 39.7673 39.7674 40.9989 38.2526 40.9989H27V19.5859H38.2526C39.7674 19.5859 41 20.8179 41 22.3323Z" fill="#CD5A0A"/>
<path d="M34.3654 30.295C34.3654 34.3566 31.0612 37.6609 27.0001 37.6609C22.9389 37.6609 19.6348 34.3566 19.6348 30.295C19.6348 26.234 22.9389 22.9297 27.0001 22.9297C31.0612 22.9297 34.3654 26.234 34.3654 30.295Z" fill="#E7ECFC"/>
<path d="M34.3653 30.295C34.3653 34.3566 31.0612 37.6609 27 37.6609V22.9297C31.0612 22.9297 34.3653 26.234 34.3653 30.295Z" fill="#CED9F9"/>
<path d="M29.3754 30.3813C29.2218 30.5114 29.0336 30.5748 28.8472 30.5748C28.6137 30.5748 28.3817 30.4759 28.2193 30.2832L27.8218 29.812V32.8973C27.8218 33.3502 27.4543 33.7176 27.0014 33.7176C26.5486 33.7176 26.1811 33.3502 26.1811 32.8973V29.812L25.7836 30.2832C25.4909 30.6295 24.9737 30.6737 24.6275 30.3813C24.2814 30.0892 24.237 29.5718 24.529 29.2256L26.1527 27.3006C26.3644 27.0502 26.6733 26.9062 27.0014 26.9062C27.3296 26.9062 27.6385 27.0502 27.8502 27.3006L29.4739 29.2256C29.7659 29.5718 29.7215 30.0892 29.3754 30.3813Z" fill="#F9A266"/>
<path d="M29.374 30.3813C29.2204 30.5114 29.0322 30.5748 28.8457 30.5748C28.6122 30.5748 28.3802 30.4759 28.2179 30.2832L27.8203 29.812V32.8973C27.8203 33.3502 27.4529 33.7176 27 33.7176V26.9062C27.3281 26.9062 27.637 27.0502 27.8487 27.3006L29.4725 29.2256C29.7645 29.5718 29.7201 30.0892 29.374 30.3813Z" fill="#F97316"/>
</g>
<defs>
<clipPath id="clip0_1908_557">
<rect width="28" height="28" fill="white" transform="translate(13 13)"/>
</clipPath>
</defs>
</svg>
