<svg width="32" height="22" viewBox="0 0 32 22" fill="none" xmlns="http://www.w3.org/2000/svg">
<path d="M25.6639 21.4886H30.9942C31.5488 21.4886 32 21.0374 32 20.4827V19.5922C32 16.5516 29.5263 14.0779 26.4858 14.0779H24.2958C25.4096 15.4364 26.0789 17.1729 26.0789 19.0624V20.1484C26.0789 20.6453 25.9256 21.1069 25.6639 21.4886ZM9.42937 21.4886H23.703C24.4419 21.4886 25.0432 20.8874 25.0432 20.1485V19.0625C25.0432 15.2921 21.9757 12.2248 18.2054 12.2248H13.7946C10.0243 12.2248 6.95681 15.2921 6.95681 19.0625V20.1485C6.95681 20.8874 7.558 21.4886 8.29694 21.4886H9.42937ZM5.51425 14.078C2.47369 14.078 0 16.5516 0 19.5922V20.4828C0 21.0374 0.451188 21.4887 1.00581 21.4887H6.33606C6.07431 21.1069 5.92112 20.6454 5.92112 20.1486V19.0626C5.92112 17.173 6.59044 15.4365 7.70412 14.0781H5.51425V14.078ZM20.6128 9.53294C20.6443 9.57619 20.6696 9.625 20.687 9.67863C21.2511 11.4206 22.8612 12.5909 24.6936 12.5909C27.0154 12.5909 28.9044 10.702 28.9044 8.38013C28.9044 6.05825 27.0154 4.16931 24.6935 4.16931C23.8273 4.16931 23.0013 4.42787 22.2954 4.91844C22.3011 5.02769 22.3039 5.13769 22.3039 5.24831C22.3039 6.90256 21.6614 8.40962 20.6128 9.53294ZM7.33925 4.16931C5.01744 4.16931 3.1285 6.05831 3.1285 8.38019C3.1285 10.7021 5.01744 12.591 7.33925 12.591C9.17412 12.591 10.7849 11.4185 11.3474 9.67344C11.3648 9.61956 11.3901 9.5705 11.4217 9.52719C10.3762 8.4045 9.73594 6.89987 9.73594 5.24837C9.73594 5.13944 9.73875 5.03087 9.74425 4.92331C9.03694 4.4295 8.2085 4.16931 7.33925 4.16931ZM16.0199 0C13.126 0 10.7716 2.35437 10.7716 5.24831C10.7716 8.14225 13.126 10.4966 16.0199 10.4966C18.9139 10.4966 21.2682 8.14225 21.2682 5.24831C21.2682 2.35437 18.9139 0 16.0199 0Z" fill="#787878"/>
</svg>
