<svg width="28" height="28" viewBox="0 0 28 28" fill="none" xmlns="http://www.w3.org/2000/svg">
<path d="M21.3611 2.33594H6.63803C5.01111 2.33594 3.69336 3.65369 3.69336 5.2806V18.2944C3.69336 19.3515 4.26024 20.3262 5.17748 20.8504L13.2694 25.4749C13.7213 25.734 14.2779 25.734 14.7299 25.4749L22.8218 20.8504C23.739 20.3277 24.3059 19.3515 24.3059 18.2944V5.2806C24.3058 3.65369 22.988 2.33594 21.3611 2.33594ZM19.774 11.6646L15.5484 15.8902L13.4666 17.972L11.3847 15.8902L9.16596 13.6714C8.59033 13.0958 8.59033 12.1637 9.16596 11.5895C9.74159 11.0138 10.6736 11.0138 11.2479 11.5895L13.4666 13.8082L17.6922 9.58269C18.2678 9.00705 19.1999 9.00705 19.7741 9.58269C20.3482 10.1569 20.3482 11.0889 19.774 11.6646Z" fill="#1FA0FE"/>
</svg>
