<svg width="28" height="25" viewBox="0 0 28 25" fill="none" xmlns="http://www.w3.org/2000/svg">
<path d="M23.77 22.4466C23.54 23.6966 22.44 24.6366 21.13 24.6366H2.67999C1.20001 24.6366 0 23.4366 0 21.9666V6.86658C0 5.55658 0.940002 4.46655 2.19 4.22656V17.7666C2.19 20.3466 4.28998 22.4466 6.87 22.4466H23.77Z" fill="#787878"/>
<path d="M13.2803 6.72656L19.3203 10.2166L13.2803 13.7066V6.72656Z" fill="#787878"/>
<path d="M25.3204 0H6.87042C5.39044 0 4.19043 1.20001 4.19043 2.66998V17.77C4.19043 19.25 5.39044 20.45 6.87042 20.45H25.3204C26.8004 20.45 28.0004 19.25 28.0004 17.77V2.66998C28.0004 1.20001 26.8004 0 25.3204 0ZM20.5604 11.82L14.0404 15.58C13.7504 15.75 13.4304 15.83 13.1204 15.83C12.8004 15.83 12.4904 15.75 12.2004 15.58C11.6204 15.25 11.2805 14.66 11.2805 13.99V6.45001C11.2805 5.78998 11.6204 5.19 12.2004 4.85999C12.7704 4.52997 13.4604 4.52997 14.0404 4.85999L20.5604 8.63C21.1404 8.96002 21.4804 9.56 21.4804 10.22C21.4804 10.89 21.1404 11.48 20.5604 11.82Z" fill="#787878"/>
</svg>
