<svg width="28" height="28" viewBox="0 0 28 28" fill="none" xmlns="http://www.w3.org/2000/svg">
<path d="M6.26 3.67L10.59 8H3.09C3.24304 7.08067 3.60956 6.21004 4.1601 5.45804C4.71064 4.70604 5.42986 4.09363 6.26 3.67ZM12.08 3H9C8.81 3 8.62 3.01 8.43 3.02L13.41 8H17.08L12.08 3ZM19 3H14.92L19.92 8H24.91C24.6757 6.60207 23.9533 5.33251 22.8712 4.41702C21.7891 3.50153 20.4174 2.99944 19 3ZM12.4819 19.626L17.4819 16.876C17.6389 16.7899 17.7699 16.6631 17.8611 16.509C17.9523 16.3549 18.0005 16.1791 18.0005 16C18.0005 15.8209 17.9523 15.6451 17.8611 15.491C17.7699 15.3369 17.6389 15.2101 17.4819 15.124L12.4819 12.374C12.3297 12.2903 12.1582 12.2477 11.9845 12.2503C11.8107 12.253 11.6407 12.301 11.4911 12.3894C11.3416 12.4778 11.2176 12.6037 11.1315 12.7546C11.0454 12.9055 11 13.0762 11 13.25V18.75C11 18.9238 11.0454 19.0945 11.1315 19.2454C11.2176 19.3963 11.3416 19.5222 11.4911 19.6106C11.6407 19.699 11.8107 19.747 11.9845 19.7497C12.1582 19.7524 12.3297 19.7097 12.4819 19.626ZM25 10V19C24.9987 20.5909 24.3662 22.1163 23.2412 23.2412C22.1163 24.3662 20.5909 24.9987 19 25H9C7.40909 24.9987 5.88371 24.3662 4.75876 23.2412C3.63382 22.1163 3.00127 20.5909 3 19V10H25Z" fill="#1FA0FE"/>
</svg>
