<?xml version="1.0" encoding="UTF-8"?>
<svg version="1.1" xmlns="http://www.w3.org/2000/svg" width="512" height="512">
<path d="M0 0 C3.94593683 3.41927175 6.36568751 7.04357593 8 12 C8.22705078 15.50512695 8.22705078 15.50512695 8.1953125 19.48828125 C8.1924826 20.19147995 8.18965271 20.89467865 8.18673706 21.6191864 C8.17560151 23.85046892 8.15050997 26.08134017 8.125 28.3125 C8.1149616 29.83137438 8.10583726 31.3502551 8.09765625 32.86914062 C8.07568413 36.57955921 8.04120047 40.28973942 8 44 C10.25062454 43.96690258 12.50073465 43.89742124 14.75 43.8125 C16.00296875 43.77769531 17.2559375 43.74289063 18.546875 43.70703125 C22.78927391 42.83839527 23.66620603 41.53165255 26 38 C32.48136992 33.32093616 39.12382048 31.73839639 47 33 C51.58097067 34.39454719 54.31844058 35.77301091 56.69018555 40.04278564 C58.69901837 42.44635606 59.81107966 42.96360235 62.9319458 43.56487274 C66.89675333 43.78442664 70.84012142 43.8116012 74.80859375 43.77636719 C76.33816018 43.78450053 77.86771486 43.7951854 79.39724731 43.80822754 C83.54620839 43.83556591 87.69427367 43.82498248 91.84325027 43.80595303 C96.18645886 43.79075489 100.52959111 43.80485237 104.87280273 43.81427002 C112.16631838 43.82518386 119.45946941 43.81080592 126.75292969 43.78222656 C135.18347232 43.74957291 143.61314435 43.76015008 152.04366589 43.793185 C159.28377576 43.82041903 166.52362365 43.82425223 173.7637682 43.80855298 C178.08719464 43.79920196 182.41021195 43.79794246 186.73361206 43.81777191 C190.79859003 43.83511401 194.86244644 43.82306692 198.92730331 43.78840637 C200.41841647 43.7804775 201.90962414 43.78274387 203.40069962 43.79598236 C211.03360635 44.18113881 211.03360635 44.18113881 217.95489502 41.66394806 C219.51084325 39.90549407 219.51084325 39.90549407 221 37 C225.84301705 33.17871651 231.1237068 32.31088497 237.18359375 32.546875 C241.96592707 33.3162934 246.08086703 35.1706794 250 38 C250.5556665 38.84087158 251.11133301 39.68174316 251.68383789 40.5480957 C253.8526839 43.31428903 253.8526839 43.31428903 257.453125 43.70703125 C258.70609375 43.74183594 259.9590625 43.77664062 261.25 43.8125 C262.51328125 43.86019531 263.7765625 43.90789063 265.078125 43.95703125 C266.04234375 43.97121094 267.0065625 43.98539063 268 44 C267.97905273 43.07251953 267.95810547 42.14503906 267.93652344 41.18945312 C267.86794501 37.71539171 267.81800673 34.24205989 267.78027344 30.76757812 C267.76028081 29.2700661 267.73307701 27.77263092 267.69824219 26.27539062 C267.34713633 10.78542619 267.34713633 10.78542619 272 4 C277.03808327 -1.15258516 282.32586902 -3.52372376 289.375 -4.4375 C295.03153923 -3.75481423 301.06583843 -2.1837308 304.9375 2.1875 C307.53189461 4.46742253 308.84653755 4.29979633 312.25 4.5 C319.52091407 4.94535559 324.41739897 6.97539599 329.375 12.375 C333.42549525 17.14960613 334.2487752 22.46681789 334.30639648 28.58105469 C334.32238388 29.86969421 334.33837128 31.15833374 334.35484314 32.48602295 C334.36122182 33.8813029 334.36661393 35.27658766 334.37109375 36.671875 C334.38007372 38.11908046 334.38919579 39.56628505 334.39845276 41.01348877 C334.4149035 44.04286952 334.4226354 47.0721403 334.42553711 50.1015625 C334.43091007 53.95934624 334.46856018 57.81607752 334.51428127 61.67356491 C334.5442152 64.66269583 334.5512642 67.65157857 334.55226326 70.64084625 C334.55643504 72.06166645 334.56874541 73.4824895 334.58978081 74.9031601 C334.70787254 83.56982696 334.28748012 90.83669436 329 98 C323.61110406 103.06403104 318.84080646 104.66942326 311.48046875 104.796875 C307.63046205 105.11215114 305.51097056 106.58074211 302.5625 109 C296.8283591 113.47542705 291.04426053 113.78159632 284 113 C277.03447473 111.00814603 272.78580466 106.28093835 268.93554688 100.36425781 C267.62715423 97.05776659 267.75317214 93.88995043 267.8046875 90.390625 C267.80893234 89.30041046 267.80893234 89.30041046 267.81326294 88.18817139 C267.82442477 85.87527749 267.84952149 83.56277612 267.875 81.25 C267.88503499 79.67839102 267.89415994 78.10677596 267.90234375 76.53515625 C267.92435096 72.68995378 267.95885285 68.84504336 268 65 C263.71 65 259.42 65 255 65 C254.87995605 66.8147583 254.75991211 68.6295166 254.63623047 70.49926758 C254.02693781 78.38566048 252.95424743 86.18802553 251.8203125 94.01171875 C251.6045744 95.51615765 251.38899122 97.02061877 251.17355347 98.52510071 C250.72432223 101.6542989 250.27170699 104.78298533 249.81689453 107.91137695 C249.2383887 111.89403376 248.67083829 115.8781672 248.10609627 119.86279583 C247.66523726 122.96159944 247.21734092 126.05935668 246.76751328 129.15686989 C246.55541464 130.62473692 246.34570762 132.09295185 246.13858414 133.56152916 C242.98436313 155.86220214 242.98436313 155.86220214 235.75 163.1875 C235.25983398 163.6937793 234.76966797 164.20005859 234.26464844 164.72167969 C232.86036491 166.16479133 231.43084623 167.58322108 230 169 C229.3296875 169.67160156 228.659375 170.34320313 227.96875 171.03515625 C226.85353573 172.14783594 225.73398175 173.25618933 224.609375 174.359375 C222.20255376 176.81293063 219.9925772 179.4282586 217.75 182.03125 C215.5207971 184.53910326 213.1429125 186.86856808 210.75 189.21875 C208.29747514 191.71506995 206.04384336 194.36816401 203.76171875 197.01953125 C201.50941822 199.55149659 199.11737731 201.91335786 196.67578125 204.26171875 C192.38849665 208.70890208 190.51130568 211.40731542 190.17871094 217.71118164 C190.13911255 218.36563263 190.09951416 219.02008362 190.05871582 219.69436646 C189.93284815 221.84905383 189.83337151 224.00408094 189.734375 226.16015625 C189.65193339 227.67134339 189.56794363 229.18244678 189.48248291 230.69346619 C189.26207887 234.6714498 189.06446905 238.65026259 188.87109375 242.62963867 C188.71088258 245.84839737 188.53460274 249.06617665 188.35735703 252.28403568 C188.14422656 256.15912115 187.93824724 260.03457377 187.734375 263.91015625 C187.67702808 264.99687465 187.67702808 264.99687465 187.61852264 266.10554695 C187.50989367 268.19788374 187.40599985 270.29040125 187.30371094 272.38305664 C187.24471619 273.56710587 187.18572144 274.75115509 187.12493896 275.97108459 C186.76746888 285.70385185 187.11399026 295.32997027 187.82617188 305.03857422 C187.91395401 306.28270584 188.00173615 307.52683746 188.09217834 308.80867004 C188.28190793 311.4915897 188.47310069 314.17435695 188.66676331 316.85699081 C188.97446322 321.12305503 189.27485309 325.38961591 189.57409668 329.65628052 C190.4256266 341.781565 191.28729787 353.90612077 192.15478516 366.03027344 C192.63514035 372.74471225 193.10977873 379.45953306 193.5787034 386.17478001 C193.82586457 389.71019992 194.07586058 393.24536386 194.33323669 396.780056 C195.26820587 409.64022588 196.1709522 422.50288173 196.37304688 435.39892578 C196.41220592 436.69774091 196.41220592 436.69774091 196.45215607 438.02279472 C196.47216378 444.407306 194.97096568 449.70225542 190.62303925 454.52841377 C184.94079755 459.63617609 179.12517316 460.47880318 171.74609375 460.30859375 C164.85630816 459.53435042 160.55357819 456.08824637 156.2265625 450.87890625 C152.89144246 445.77001218 152.29699587 440.29581102 151.48779297 434.37963867 C151.35095093 433.41640182 151.21410889 432.45316498 151.07312012 431.46073914 C150.62311282 428.28067488 150.18239255 425.09940357 149.7421875 421.91796875 C149.43156106 419.70219934 149.12053021 417.48648659 148.80911255 415.27082825 C148.15787181 410.62699535 147.51115456 405.98256111 146.86767578 401.33764648 C146.04410276 395.39498002 145.20996846 389.45385469 144.37249565 383.51313305 C143.72845878 378.93683228 143.08975488 374.35979945 142.45267105 369.78252602 C142.14724057 367.59233063 141.84023715 365.40235399 141.5316124 363.21260643 C141.10018417 360.14530306 140.67588056 357.07709427 140.25341797 354.00854492 C140.12564972 353.1100885 139.99788147 352.21163208 139.86624146 351.28594971 C139.16616247 346.13662645 138.8793504 341.19702736 139 336 C138.34 336 137.68 336 137 336 C137.02519714 337.11455566 137.05039429 338.22911133 137.07635498 339.37744141 C137.07221988 344.30701618 136.45822838 349.08504887 135.77832031 353.9609375 C135.6481955 354.92461243 135.51807068 355.88828735 135.38400269 356.88116455 C134.95466892 360.04662295 134.51704117 363.21085694 134.078125 366.375 C133.77375532 368.58641632 133.46945546 370.79784225 133.16522217 373.00927734 C132.52701193 377.63632104 131.88397111 382.26266639 131.23828125 386.88867188 C130.41349721 392.80474303 129.60687756 398.72313809 128.80464554 404.64230347 C128.1827799 409.20765957 127.54816671 413.77117827 126.91005707 418.33428955 C126.6072207 420.51524133 126.30903221 422.69684392 126.01566315 424.87908936 C125.60359391 427.93445351 125.17360522 430.98679673 124.73925781 434.0390625 C124.62272858 434.93280579 124.50619934 435.82654907 124.38613892 436.74737549 C123.3555294 443.775858 121.32531152 450.7700744 115.5625 455.375 C115.00691406 455.83648437 114.45132813 456.29796875 113.87890625 456.7734375 C108.17112794 460.49951316 102.62541481 460.61875282 96 460 C90.73172356 458.65344427 85.83401131 455.82820599 82.83984375 451.2109375 C78.05822042 442.33322823 79.08462287 433.77467948 79.80444336 423.9934082 C79.90346323 422.57348549 80.00181892 421.15351632 80.0995636 419.73350525 C80.31082672 416.68470652 80.52671264 413.6362835 80.74622917 410.58806801 C81.0939753 405.75822201 81.43106522 400.92766749 81.76673889 396.0969696 C82.36013027 387.57708828 82.96256834 379.05786467 83.56695557 370.53875732 C84.47526882 357.73410147 85.37592181 344.9289083 86.26900011 332.12318105 C86.60348725 327.33176243 86.94244372 322.54068793 87.28508937 317.7498461 C87.49852924 314.75469249 87.70852162 311.75930375 87.91769218 308.76384926 C88.0603688 306.73590801 88.20723514 304.70826284 88.35427856 302.68063354 C89.50963165 286.01117995 88.81438386 269.37144568 88.05714035 252.69853306 C87.8781814 248.73318164 87.72101665 244.76951949 87.61425781 240.80151367 C88.05933732 220.24506727 88.05933732 220.24506727 79.2890625 202.83203125 C77.26013008 201.08329232 75.18558713 199.5630675 73 198 C71.64332543 196.62078574 70.31720414 195.21010441 69.0390625 193.7578125 C67.90154567 192.54640154 66.76353133 191.33545754 65.625 190.125 C61.76824056 186.01904386 57.91382996 181.91106846 54.07421875 177.7890625 C53.44241699 177.11085449 52.81061523 176.43264648 52.15966797 175.73388672 C50.9614764 174.44701061 49.76385069 173.15960731 48.56689453 171.87158203 C48.02532715 171.29005371 47.48375977 170.70852539 46.92578125 170.109375 C46.42256348 169.56861328 45.9193457 169.02785156 45.40087891 168.47070312 C44.1713857 167.17992811 42.89193533 165.93712557 41.60546875 164.703125 C40 163 40 163 40 161 C39.34 161 38.68 161 38 161 C33.57856232 154.25543404 31.93537733 148.19658135 30.90234375 140.2578125 C30.74133682 139.13599579 30.5803299 138.01417908 30.41444397 136.85836792 C29.90508689 133.28273415 29.42069196 129.70425352 28.9375 126.125 C28.61041158 123.79273145 28.28164778 121.46069722 27.95117188 119.12890625 C27.29118447 114.46121532 26.64220732 109.79217089 25.99951172 105.12207031 C25.31967134 100.22039825 24.60496237 95.32538679 23.86376953 90.43261719 C23.67818985 89.20590302 23.49261017 87.97918884 23.30140686 86.71530151 C22.94534591 84.37530797 22.5857064 82.03585519 22.22190857 79.697052 C22.06174759 78.64315277 21.90158661 77.58925354 21.73657227 76.50341797 C21.59405533 75.58269501 21.45153839 74.66197205 21.30470276 73.71334839 C20.980379 70.82527693 21 67.90622481 21 65 C16.71 65 12.42 65 8 65 C8.02094727 65.92748047 8.04189453 66.85496094 8.06347656 67.81054688 C8.13205499 71.28460829 8.18199327 74.75794011 8.21972656 78.23242188 C8.23971919 79.7299339 8.26692299 81.22736908 8.30175781 82.72460938 C8.68364162 99.57242426 8.68364162 99.57242426 2.25390625 107.0234375 C1.69574219 107.46945313 1.13757813 107.91546875 0.5625 108.375 C-0.27087891 109.06722656 -0.27087891 109.06722656 -1.12109375 109.7734375 C-6.79474648 113.47723575 -12.40461138 113.7574536 -19 113 C-23.0988892 111.67909551 -26.13426588 109.97395089 -29 106.75 C-31.61553296 104.46140866 -33.4310747 104.87420992 -36.78125 105.04296875 C-41.85015474 104.94480334 -46.40224785 102.90781372 -50.75 100.4375 C-58.28012283 92.27986693 -58.72897087 83.52936861 -58.59375 72.8671875 C-58.59203462 71.42090963 -58.59210891 69.97462865 -58.59387207 68.52835083 C-58.59222854 65.51419865 -58.57370788 62.50079898 -58.54199219 59.48681641 C-58.50224532 55.64258136 -58.49796129 51.79932532 -58.50545502 47.95492363 C-58.50853798 44.97440783 -58.49635856 41.9941081 -58.47932434 39.01364517 C-58.47234446 37.59681683 -58.46916365 36.17996403 -58.47001648 34.76311874 C-58.45480922 18.14866212 -58.45480922 18.14866212 -53.1328125 11.7578125 C-52.47023438 11.21898437 -51.80765625 10.68015625 -51.125 10.125 C-50.46757813 9.57070313 -49.81015625 9.01640625 -49.1328125 8.4453125 C-44.99687269 5.64256941 -41.51028094 4.82084445 -36.5625 4.6875 C-31.17548899 4.29139625 -28.98041528 2.71505426 -25 -1 C-16.39642031 -5.53287773 -8.37368086 -4.71795528 0 0 Z M65 65 C66.6613651 80.06775466 66.6613651 80.06775466 68.65625 95.08203125 C68.80404907 96.11011398 68.95184814 97.13819672 69.10412598 98.19743347 C69.41175478 100.32887175 69.72095333 102.46008408 70.03173828 104.59106445 C70.50575545 107.85209497 70.96978252 111.11445724 71.43359375 114.37695312 C71.73637554 116.4662334 72.03973904 118.55542948 72.34375 120.64453125 C72.48026978 121.61219925 72.61678955 122.57986725 72.75744629 123.57685852 C73.97287453 132.39148182 73.97287453 132.39148182 79.375 139.125 C83.01158871 142.1532866 86.52701611 145.28653578 90 148.5 C93.95854469 152.14521644 97.92153969 155.77969373 102.03007507 159.25627136 C104 161 104 161 105.70491028 162.80976868 C110.37471086 167.54708961 113.8969404 168.84819634 120.50114441 169.10087585 C122.08419121 169.10314934 122.08419121 169.10314934 123.69921875 169.10546875 C124.81126175 169.1240242 125.92330475 169.14257965 127.06904602 169.16169739 C129.4146293 169.18827574 131.7604853 169.1964421 134.10620117 169.18725586 C137.66341822 169.18749836 141.20829145 169.28877545 144.76367188 169.39648438 C158.44806833 169.81208233 158.44806833 169.81208233 170.24494934 163.79585266 C172.70474981 161.33345215 174.84157506 158.73239666 177 156 C178.32268804 154.77753529 179.66909807 153.57870755 181.0625 152.4375 C185.05587296 148.98906493 188.92644908 145.41139986 192.78930664 141.81811523 C196.80029092 138.10959645 196.80029092 138.10959645 199.2421875 136.76953125 C202.30093425 133.69039285 202.29075267 129.61170079 202.875 125.4375 C203.10654785 123.92494629 203.10654785 123.92494629 203.34277344 122.38183594 C203.80303607 119.33314815 204.24462941 116.28227272 204.67980957 113.22991943 C205.03464236 110.75873837 205.3970988 108.28874739 205.76074219 105.81884766 C206.59807173 100.13032262 207.42687932 94.440598 208.25 88.75 C208.38678162 87.80478485 208.52356323 86.8595697 208.66448975 85.88571167 C209.05584193 83.16908165 209.44279655 80.45186527 209.828125 77.734375 C209.9466684 76.91238113 210.06521179 76.09038727 210.18734741 75.2434845 C210.67411773 71.78022854 211 68.50503272 211 65 C162.82 65 114.64 65 65 65 Z " fill="#1FA0FE" transform="translate(118,11)"/>
<path d="M0 0 C1.22406915 -0.00583219 2.4481383 -0.01166439 3.70930046 -0.01767331 C5.06967464 -0.01404003 6.43004832 -0.01021565 7.79042149 -0.00622082 C9.23399238 -0.00924049 10.67756168 -0.01312905 12.12112814 -0.01781338 C16.09301597 -0.02812583 20.06481387 -0.02590334 24.03670919 -0.02163279 C28.31831143 -0.01917145 32.59989168 -0.02817233 36.88148594 -0.03567028 C45.27141579 -0.04843569 53.66131366 -0.05020869 62.05125158 -0.04787002 C68.86890945 -0.0460888 75.68655759 -0.04783227 82.50421429 -0.05209446 C83.47360515 -0.05268965 84.44299601 -0.05328484 85.44176235 -0.05389806 C87.41091756 -0.05510978 89.38007277 -0.05632392 91.34922797 -0.05754044 C109.82614543 -0.06842302 128.30304465 -0.06625005 146.77996314 -0.06015559 C163.69278722 -0.05498544 180.60555371 -0.06624321 197.51836639 -0.08525381 C214.87438309 -0.10461342 232.23037252 -0.11289154 249.58640009 -0.10913056 C259.33453043 -0.1072157 269.08261175 -0.10973372 278.8307333 -0.1238451 C287.12907104 -0.13573595 295.42732958 -0.13718964 303.72566836 -0.12505493 C307.96119941 -0.11915014 312.19658543 -0.1181108 316.43210697 -0.13005733 C320.30770464 -0.14086184 324.18303527 -0.13787805 328.05862016 -0.12379565 C329.46234863 -0.12113366 330.86609766 -0.12356207 332.26980602 -0.13153151 C334.1750311 -0.14159941 336.08033113 -0.13144739 337.98554993 -0.12025452 C339.57427498 -0.12033704 339.57427498 -0.12033704 341.19509548 -0.12042123 C344.49655547 0.31225263 346.37497455 1.31284277 349.05569553 3.25447559 C351.58176678 6.90158438 351.18737195 9.89662721 350.60257053 14.12947559 C349.83494033 17.11226723 348.54646416 18.49628597 346.05569553 20.25447559 C342.87034353 21.31625959 340.61293839 21.3819421 337.26567364 21.38590336 C336.05056233 21.3897445 334.83545101 21.39358565 333.58351815 21.39754319 C332.22806265 21.39676291 330.87260721 21.39588412 329.51715183 21.39491749 C328.08269479 21.39750044 326.64823847 21.40051341 325.21378314 21.40392089 C321.26246297 21.41200217 317.31116094 21.41378109 313.35983348 21.41451836 C309.10207712 21.41636693 304.84433022 21.42391321 300.58657932 21.43065357 C291.27267 21.44424489 281.95876498 21.4502627 272.64484739 21.45466423 C266.83203668 21.457425 261.01922763 21.46166202 255.20641804 21.4661684 C239.12016816 21.47836154 223.03391962 21.48866114 206.94766521 21.4920435 C205.4028669 21.49237284 205.4028669 21.49237284 203.82686054 21.49270885 C202.79450024 21.49292712 201.76213993 21.4931454 200.69849598 21.49337029 C198.60646224 21.49381376 196.5144285 21.49426033 194.42239475 21.49470997 C193.38466887 21.4949314 192.34694298 21.49515283 191.27777086 21.49538097 C174.45541758 21.49933066 157.63310757 21.5167897 140.810771 21.54006949 C123.54971074 21.56376413 106.2886722 21.57624446 89.0275954 21.57741141 C79.33198336 21.57832918 69.63642772 21.58410701 59.94083118 21.60223103 C51.68639187 21.61760649 43.43202639 21.62276758 35.17757548 21.61449292 C30.96432518 21.61057748 26.75122366 21.61155942 22.53799152 21.62555027 C18.68271453 21.63823569 14.82769894 21.63713922 10.97242258 21.62495956 C9.57606398 21.62299323 8.17968719 21.62612396 6.78335418 21.63480392 C4.8880661 21.64584171 2.9926923 21.6366471 1.09739971 21.62641239 C-0.48302516 21.62730802 -0.48302516 21.62730802 -2.0953778 21.62822175 C-6.45082333 21.05683778 -9.0691231 19.37108631 -11.75680447 15.94197559 C-13.17882497 12.72371867 -13.38027638 10.74225091 -12.94430447 7.25447559 C-10.09521426 0.98647713 -6.60381664 0.0054052 0 0 Z " fill="#1FA0FE" transform="translate(86.94430446624756,483.7455244064331)"/>
<path d="M0 0 C7.61059872 7.08572984 11.86161899 15.55926898 12.28466797 25.94824219 C12.37950816 33.57871766 11.61568258 39.91597981 7.8125 46.6875 C7.255625 47.71875 6.69875 48.75 6.125 49.8125 C-0.29511873 57.79426923 -7.99517914 63.68609881 -18.1875 65.6875 C-30.0912795 66.61250707 -40.01153414 64.98522061 -49.41015625 57.31640625 C-56.70370575 50.63198836 -61.71818235 43.01658375 -62.4609375 33 C-62.85449244 21.24801214 -61.16661663 12.23159097 -53.5625 2.8125 C-38.96196196 -12.28111437 -16.1639459 -13.03544024 0 0 Z " fill="#1FA0FE" transform="translate(281.1875,102.3125)"/>
</svg>
