<?xml version="1.0" encoding="UTF-8"?>
<svg version="1.1" xmlns="http://www.w3.org/2000/svg" width="230" height="219">
<path d="M0 0 C75.9 0 151.8 0 230 0 C230 72.27 230 144.54 230 219 C154.1 219 78.2 219 0 219 C0 146.73 0 74.46 0 0 Z " fill="#FEFEFE" transform="translate(0,0)"/>
<path d="M0 0 C0.8146875 0.00257812 1.629375 0.00515625 2.46875 0.0078125 C3.2834375 0.00523438 4.098125 0.00265625 4.9375 0 C6.96875 0.1328125 6.96875 0.1328125 7.96875 1.1328125 C9.43391304 1.23062475 10.90376822 1.25912998 12.37219238 1.25979614 C13.79828575 1.26402588 13.79828575 1.26402588 15.25318909 1.26834106 C16.30465622 1.26631683 17.35612335 1.2642926 18.43945312 1.26220703 C19.54014633 1.26395935 20.64083954 1.26571167 21.77488708 1.26751709 C25.43327384 1.27193818 29.09161271 1.26899671 32.75 1.265625 C35.27966318 1.26629797 37.8093263 1.26726793 40.33898926 1.26852417 C45.64868849 1.27000149 50.95837037 1.26794008 56.26806641 1.26318359 C62.41480958 1.25774101 68.56151959 1.25950368 74.70826197 1.26501 C80.61092564 1.2700869 86.51357896 1.26955956 92.41624451 1.26662827 C94.93297836 1.26595874 97.44971305 1.2667883 99.96644592 1.26910782 C103.47700275 1.27163283 106.9874949 1.26779588 110.49804688 1.26220703 C112.07524757 1.26524338 112.07524757 1.26524338 113.68431091 1.26834106 C114.63503983 1.26552124 115.58576874 1.26270142 116.56530762 1.25979614 C117.81192799 1.2592306 117.81192799 1.2592306 119.0837326 1.25865364 C120.98128287 1.3397582 120.98128287 1.3397582 121.96875 0.1328125 C123.46613124 0.0349068 124.96817892 0.00306386 126.46875 0.0078125 C127.2834375 0.00523438 128.098125 0.00265625 128.9375 0 C130.96875 0.1328125 130.96875 0.1328125 131.96875 1.1328125 C133.65058948 1.36568258 135.3399916 1.54545416 137.03125 1.6953125 C138.660625 1.8396875 140.29 1.9840625 141.96875 2.1328125 C141.96875 5.4328125 141.96875 8.7328125 141.96875 12.1328125 C140.90599854 12.02791504 140.90599854 12.02791504 139.82177734 11.92089844 C136.5426815 11.86000015 134.08739108 12.0838436 130.96875 13.1328125 C128.08648027 16.24914126 126.29712566 19.73054756 124.47180176 23.54721069 C123.57928246 25.41305747 122.64141693 27.24861806 121.68652344 29.08325195 C120.71177806 30.95602834 119.73950347 32.82948983 118.78149414 34.71089172 C115.86930822 40.42169915 112.62847726 45.89188335 109.21875 51.3203125 C108.69249023 52.16231201 108.16623047 53.00431152 107.62402344 53.87182617 C102.15912118 62.53422336 96.56950432 71.27541874 90.23828125 79.3359375 C87.9177587 82.62036942 87.47901029 86.24010515 86.96875 90.1328125 C86.73478516 91.84210938 86.73478516 91.84210938 86.49609375 93.5859375 C85.64010903 105.88318271 89.69672775 115.7342186 94.390625 126.96875 C94.82342773 128.01861084 95.25623047 129.06847168 95.70214844 130.15014648 C96.47870382 131.97882365 97.29623569 133.7915443 98.18066406 135.57055664 C102.60471224 145.35194266 101.39628054 156.32842495 101.21875 166.8203125 C101.19865479 168.88995668 101.18040937 170.95961969 101.1640625 173.02929688 C101.12030539 178.06427257 101.0514441 183.09833192 100.96875 188.1328125 C95.02875 188.1328125 89.08875 188.1328125 82.96875 188.1328125 C83.01257813 185.33554688 83.05640625 182.53828125 83.1015625 179.65625 C83.10998188 176.8989031 83.10118623 174.14209871 83.09082031 171.38476562 C83.09274802 169.49175881 83.1121292 167.59867577 83.15039062 165.70605469 C83.41999598 151.55177368 81.25715242 143.78502515 71.96875 133.1328125 C71.41034424 132.19912842 70.85193848 131.26544434 70.27661133 130.3034668 C69.18194303 127.96232874 69.18194303 127.96232874 66.92578125 127.42578125 C65.86423828 127.37357422 65.86423828 127.37357422 64.78125 127.3203125 C63.523125 127.2584375 62.265 127.1965625 60.96875 127.1328125 C60.63037109 128.16341797 60.63037109 128.16341797 60.28515625 129.21484375 C58.6357443 132.87095867 56.40142533 135.70399027 53.90625 138.8203125 C49.01148871 145.00569808 47.80182728 148.36762696 47.65234375 156.296875 C47.63156265 157.20408295 47.61078156 158.11129089 47.58937073 159.04598999 C47.52387865 161.9498523 47.46499186 164.85380655 47.40625 167.7578125 C47.36306445 169.72396792 47.31945015 171.69011397 47.27539062 173.65625 C47.16738907 178.48167789 47.06831323 183.30717351 46.96875 188.1328125 C41.02875 188.1328125 35.08875 188.1328125 28.96875 188.1328125 C27.69503781 159.90529192 28.35755215 137.71028215 40.98266602 112.07397461 C44.13639552 105.37592896 43.33407585 98.33188074 42.96875 91.1328125 C42.91654297 89.76189453 42.91654297 89.76189453 42.86328125 88.36328125 C42.0655025 81.39138874 37.96438159 76.50690847 33.875 71.078125 C25.92362954 60.4601364 19.28531324 48.82478994 12.71875 37.3203125 C12.21359863 36.44334717 11.70844727 35.56638184 11.18798828 34.6628418 C8.94366397 30.73841084 6.78172196 26.82341897 4.859375 22.73046875 C3.17348849 19.23845864 1.5552876 16.06609608 -1.03125 13.1328125 C-5.16279694 11.73176812 -8.721208 11.62997427 -13.03125 12.1328125 C-13.03125 8.8328125 -13.03125 5.5328125 -13.03125 2.1328125 C-9.17382812 1.79101562 -9.17382812 1.79101562 -5.31640625 1.44921875 C-2.82048824 1.1036301 -2.44492601 0.15986055 0 0 Z " fill="#1FA0FE" transform="translate(50.03125,29.8671875)"/>
<path d="M0 0 C33.66 0 67.32 0 102 0 C100.56177909 2.87644183 99.5164879 4.78571205 97.56640625 7.1796875 C96.84904297 8.06732788 96.84904297 8.06732788 96.1171875 8.97290039 C95.34761719 9.9144397 95.34761719 9.9144397 94.5625 10.875 C93.46940756 12.2247387 92.37697382 13.57501108 91.28515625 14.92578125 C90.73359863 15.60721191 90.18204102 16.28864258 89.61376953 16.99072266 C87.6608773 19.42223598 85.74510839 21.88080585 83.83496094 24.34594727 C82.04724288 26.64467544 80.23423619 28.92282127 78.41943359 31.20019531 C77.43023879 32.45446846 76.45220081 33.71758696 75.48291016 34.98730469 C73.95046329 36.99116278 72.38531358 38.96524566 70.8125 40.9375 C70.34972656 41.55955322 69.88695312 42.18160645 69.41015625 42.82250977 C68.01953125 44.52734375 68.01953125 44.52734375 65 47 C62.01224555 46.91438253 59.83895319 46.63502442 57 46 C54.81379139 45.9140681 52.6253902 45.86963094 50.4375 45.875 C49.31730469 45.86984375 48.19710937 45.8646875 47.04296875 45.859375 C43.83446752 45.88423547 43.83446752 45.88423547 40.25 47.125 C36.09186547 46.96507175 35.53047663 45.93826087 32.75 42.9375 C31.13894625 40.98083167 29.55763032 38.99945816 28 37 C27.14667459 35.92511286 26.29248875 34.85090831 25.4375 33.77734375 C23.60511921 31.46459749 21.78909534 29.13995024 19.98046875 26.80859375 C15.6919668 21.29935127 11.26056867 15.905692 6.84765625 10.49609375 C6.36055176 9.89651855 5.87344727 9.29694336 5.37158203 8.67919922 C4.13323807 7.16312059 2.87813819 5.66076595 1.62109375 4.16015625 C0 2 0 2 0 0 Z " fill="#FBFBFB" transform="translate(64,42)"/>
<path d="M0 0 C3.78511764 1.02874485 5.29793276 3.96921362 7.25585938 7.17016602 C7.66320312 7.78762695 8.07054687 8.40508789 8.49023438 9.04125977 C9.25948662 10.212397 10.01790015 11.39079297 10.76074219 12.57885742 C12.0637468 14.7187644 12.0637468 14.7187644 14.125 17.17602539 C16.62073113 21.6465718 16.5163399 25.07311261 16.39648438 30.09985352 C16.39082458 31.00140167 16.38516479 31.90294983 16.3793335 32.83181763 C16.35704493 35.69515364 16.30686326 38.5572119 16.25585938 41.42016602 C16.23578462 43.36806454 16.21753556 45.31598278 16.20117188 47.26391602 C16.16061567 52.02521411 16.08231355 56.78376965 16.00585938 61.54516602 C21.94585937 61.54516602 27.88585937 61.54516602 34.00585938 61.54516602 C34.00585938 61.87516602 34.00585938 62.20516602 34.00585938 62.54516602 C10.24585937 62.54516602 -13.51414063 62.54516602 -37.99414062 62.54516602 C-37.99414062 62.21516602 -37.99414062 61.88516602 -37.99414062 61.54516602 C-32.05414063 61.54516602 -26.11414063 61.54516602 -19.99414062 61.54516602 C-20.08695313 58.7130957 -20.17976563 55.88102539 -20.27539062 52.96313477 C-20.33797837 50.18627065 -20.38643925 47.40948837 -20.43359375 44.63232422 C-20.47355471 42.71854856 -20.52794595 40.8050129 -20.59765625 38.89208984 C-21.2804105 19.65950491 -21.2804105 19.65950491 -14.01953125 11.71313477 C-13.35115234 10.99770508 -12.68277344 10.28227539 -11.99414062 9.54516602 C-10.49538258 7.11272339 -9.14850556 4.64760806 -7.80664062 2.12719727 C-5.37045188 0.00078252 -3.17574926 -0.15944121 0 0 Z " fill="#FDFDFD" transform="translate(116.994140625,156.454833984375)"/>
<path d="M0 0 C6.6 0 13.2 0 20 0 C20 23.76 20 47.52 20 72 C13.4 72 6.8 72 0 72 C0 48.24 0 24.48 0 0 Z " fill="#1FA0FE" transform="translate(198,1)"/>
<path d="M0 0 C6.6 0 13.2 0 20 0 C20 23.76 20 47.52 20 72 C13.4 72 6.8 72 0 72 C0 48.24 0 24.48 0 0 Z " fill="#1FA0FE" transform="translate(12,1)"/>
<path d="M0 0 C4.56720613 3.24779103 7.47247885 6.70408063 8.44140625 12.31640625 C8.68654169 18.8451801 7.92968959 23.19087567 3.93359375 28.375 C-1.27264837 33.19077396 -5.43593224 34.90295227 -12.46484375 34.7578125 C-18.03199203 33.93862251 -21.76911067 30.77208755 -25.50390625 26.75 C-28.84496502 21.67159068 -28.65897018 16.25948907 -28.06640625 10.375 C-26.43024384 5.5109737 -23.35349324 2.1309845 -19.06640625 -0.625 C-12.34546584 -3.54714801 -6.38621344 -3.58524263 0 0 Z " fill="#1FA0FE" transform="translate(125.06640625,48.625)"/>
<path d="M0 0 C3.3 0 6.6 0 10 0 C10 12.54 10 25.08 10 38 C6.7 38 3.4 38 0 38 C0 25.46 0 12.92 0 0 Z " fill="#1FA0FE" transform="translate(220,18)"/>
<path d="M0 0 C3.3 0 6.6 0 10 0 C10 12.54 10 25.08 10 38 C6.7 38 3.4 38 0 38 C0 25.46 0 12.92 0 0 Z " fill="#1FA0FE" transform="translate(0,18)"/>
</svg>
